<svg fill="none" height="26" viewBox="0 0 159 26" width="159" xmlns="http://www.w3.org/2000/svg"><g fill="#000"><path d="m79.2017 7.08066c-1.5881.02953-2.7551.08859-2.7431.13781s.3369.18703.7219.315c1.0226.30516 1.6242.57094 1.937.85641l.2887.24609-.2887.1575c-.3128.16734-1.6242.34453-2.5266.35437-.8061 0-.8181.1575 0 .23625.9264.0886 1.8168.44297 2.3341.93521.4211.4035.8061 1.191.8302 1.6734 0 .1378.0481.3445.1082.4528.1203.2461.1925.1083.2888-.5709.1925-1.3191 1.3114-2.32316 2.9356-2.62832.3369-.0689.6256-.1575.6256-.20672s-.5895-.08859-1.3114-.08859c-.7098 0-1.4678-.04922-1.6843-.10828l-.385-.10828.2406-.21657c.2286-.19687 1.3836-.68906 2.695-1.13203.3248-.11812.5534-.24609.5053-.30515-.0361-.05907-.4452-.0886-.9384-.07875-.4813.00984-2.1055.04922-3.6335.07875z"/><path d="m85.4098 11.1362c-.8422.1181-1.3956.4922-1.8768 1.2698-.4452.7186-.8182 2.0574-.5655 2.0574.0481 0 .2647-.2166.4812-.4824.385-.4725 1.4678-1.3584 2.5747-2.1262.3128-.2166.5775-.4528.6016-.5316.0481-.187-.5535-.2854-1.2152-.187z"/><path d="m73.1861 11.3136c-.0602.0886.0962.2756.4933.5709 1.4798 1.1025 2.4543 1.9196 2.7792 2.3231.5895.7679.6737.5119.2647-.7382-.3249-.9844-.7821-1.575-1.4799-1.9097-.6376-.3052-1.9009-.4528-2.0573-.2461z"/><path d="m144.892 12.4554c-3.272.817-13.379 1.9786-23.16 2.648-1.42.0984-1.925.1673-1.925.2559 0 .0492 1.516.0886 3.585.0886 13.536 0 27.408 1.26 31.246 2.8252.685.2854 1.383.7875 1.383 1.004 0 .0985-.096.0689-.325-.1083-1.191-.9056-4.788-1.6635-10.323-2.1853-6.917-.6497-15.375-.8957-28.153-.817-14.184.0886-24.784.5316-29.6807 1.26-1.4919.2166-3.3086.2559-4.0907.0788-.782-.1674-1.6001-.5415-2.0934-.945-.5414-.4627-1.1069-1.3979-1.2031-2.0279-.0963-.5709-.2406-.5906-.3489-.0492-.2647 1.2699-1.1069 2.2346-2.4424 2.7563-.7339.2854-.9384.315-2.1897.3543-1.0587.0296-1.6964-.0098-2.707-.1673-4.7764-.7284-15.3037-1.1714-29.7773-1.26-11.3936-.0689-18.9613.1083-25.2657.5709-6.8337.5021-11.44168 1.3093-12.89746 2.2641-.49328.315-.63765.2559-.18047-.0787 2.1536-1.6243 13.05393-2.9236 27.45533-3.278 2.1175-.0492 4.8606-.0985 6.1119-.0985 2.3581 0 2.9837-.1279 1.1911-.2362-1.9611-.128-9.3363-.7481-11.8147-.9942-5.5464-.5611-10.4191-1.2502-12.4163-1.7621l-.9384-.2362.2767.2953c.9384 1.0041 1.0587 1.2502.7941 1.6439-.3008.4627-1.0829.6694-3.4771.945-5.00497.571-7.5195 1.2895-8.26544 2.3724-.33687.4823-.34891.9351-.02406 1.4765.385.6596.40906.6694 1.81672.443 4.33125-.7088 12.64488-1.388 22.23378-1.8309 19.1176-.8761 35.2636-.6104 45.4179.7481 3.4169.4626 4.7163.3347 5.8833-.5808.5294-.4233 1.1069-1.3388 1.2272-1.9589.0963-.5119.2286-.4725.3369.0787.0962.5218.5654 1.3191 1.0347 1.7818.9023.8957 2.6829 1.1517 5.3539.7776 4.4756-.6201 8.6745-.945 15.6763-1.2009 3.67-.128 20.225-.0689 24.267.0984 13.933.5611 22.752 1.2108 28.37 2.0869.722.1083 1.324.187 1.348.1673.216-.1673.782-1.2403.782-1.4667 0-.9745-1.167-1.7423-3.513-2.333-1.143-.2953-2.323-.4823-5.042-.8071-2.394-.2855-2.899-.4036-3.356-.8171-.373-.315-.241-.7678.421-1.4667.301-.315.505-.5709.445-.5611-.048 0-.517.1083-1.047.2461z"/><path d="m86.2159 13.42c-.8181.1772-1.3475.5611-1.7686 1.2699-.385.63-.8061 1.9195-.6737 2.0278.0481.0295.1804-.0492.3128-.187.9023-.9549 1.3836-1.3782 2.3701-2.0771.6016-.4331 1.1069-.8465 1.1069-.9253 0-.2658-.4692-.3051-1.3475-.1083z"/><path d="m72.3198 13.6463c-.0481.1083.0602.256.3369.4528 1.4799 1.0336 2.3461 1.7424 2.7792 2.2444.2768.315.5414.5513.6016.502.1083-.0885-.1925-1.1812-.5173-1.8506-.4452-.9056-1.504-1.5159-2.659-1.5159-.3248 0-.4932.0492-.5414.1673z"/></g></svg>