<svg fill="none" height="100" viewBox="0 0 117 100" width="117" xmlns="http://www.w3.org/2000/svg"><path clip-rule="evenodd" d="m42.4679 14.032c19.2469-.3611 32.5214 13.1234 37.0102 28.2416 2.5826 8.6978 1.1428 20.3499-2.0466 26.9982-.7608 1.5856-2.1845 6.0066-3.9227 6.2167-2.2534-.3629-2.5754-.2926-3.7522-.7105-1.5104-.5361-5.7242-2.2638-6.3105-3.5524 1.3132-.6529 1.9692-2.6277 2.7288-3.9076 3.3108-5.5789 5.2985-14.4228 2.7289-22.5578-2.8708-9.0879-8.8296-14.6961-17.3965-17.9396-2.0732-.7849-7.5869-2.2065-10.9154-1.4209-2.036.4804-4.2468.6847-6.14 1.4209-7.9308 3.0833-14.0356 9.3972-16.7143 17.9396-4.9182 15.6839 4.7708 29.472 14.6677 33.9254 2.5839 1.1627 5.5089 2.1315 9.0393 2.1315 2.1048 3.3245 7.562 8.2771 11.086 10.1243-.1741.1421-.0467.0631-.3411.1776-4.5932.9389-1.6155.3212-3.5816.7105-5.9854 1.1854-13.2222-.0025-17.7376-1.7762-12.3217-4.8401-18.8938-12.5245-23.36591-25.5773-1.4289-4.1706-2.64001-11.6238-1.36443-17.2291 3.45184-15.1687 10.96664-25.5485 23.87754-30.7282 2.5445-1.0208 5.4066-1.4542 8.1866-2.1315 1.3121-.3197 2.1466-.1206 4.2638-.3552zm31.8936 0c16.8095-.3503 28.6055 9.806 34.4515 20.9591.934 1.7807 1.282 3.5169 2.047 5.5063 2.349 6.1067 2.876 17.0822.682 23.9786-3.936 12.377-11.8048 20.7786-23.0245 25.5773-2.5881 1.1069-5.5587 1.7707-8.5277 2.1315-5.2322.6358-12.6154-.5253-15.8615-1.7762-13.3218-5.1333-21.0145-13.3254-25.242-27.8864-2.5042-8.6254-.302-19.6684 2.7289-25.7549.8156-1.638 2.3695-4.9618 3.2405-5.5062 1.1076.2324 3.4452.6395 4.7755 1.0657 1.4712.472 3.6785 1.7478 5.4577 2.6643-.1076.3116-.0329.1725-.1705.3553-.6747 1.6447-2.2401 3.0195-3.07 4.6181-1.5643 3.0146-2.2472 6.4801-3.07 10.302v2.8419c0 4.4696.8223 7.6275 2.0467 10.6572 3.4322 8.4923 8.9541 13.5641 17.9081 16.341 2.9648.9195 7.5914 1.6185 11.2566.7105 2.3073-.5716 4.5963-1.203 6.6516-2.1315 9.2029-4.1563 19.1246-17.7719 14.6676-33.0373-3.1226-10.6939-12.2786-20.2374-25.583-20.2486-1.6032-2.5006-4.9843-5.7004-7.3339-7.4601-1.0091-.7557-2.3558-1.2621-3.0699-2.309l.1705-.1776c2.1429-.45 3.4254-.6913 4.9461-1.0658 1.2406-.3055 1.6312-.1515 3.9227-.3552z" fill="#000" fill-rule="evenodd"/></svg>