<svg fill="none" height="24" viewBox="0 0 155 24" width="155" xmlns="http://www.w3.org/2000/svg"><path clip-rule="evenodd" d="m74.022 10.6027c-1.1232-.1055-1.5173.1696-2.4035.3719v.7537c1.1175.0422 2.346-.0513 2.7414.3768.1522.8967.0317 1.8236-.3427 2.6377-.6737.6224-.8844.8289-2.056.7536-2.2078-2.3246-2.9795-2.9071-4.7974-4.145 2.5217-1.3018 2.4881-3.63468 6.1681-3.76807.5174.1251.9139.8791 1.028 1.13044.0905.7864.0446 1.46163-.3379 1.88893zm3.0793-1.13531h1.028c.9715.55841 1.1175.99701 1.028 2.63771-.5678 1.1199-.8114 1.1632-2.3987 1.1304-.8224-.2427-.894-.751-1.028-1.5072.0795-.4594-.1371-.7537.3427-1.5073.3224-.85196.698-.73515 1.028-.75361zm-22.6164.37681h8.2241v.3768c-.3531.088-.6974.2142-1.028.3768-.3294.2724-.6726.524-1.028.7536v.3769c.4921.237.8697.4985 1.3707.7536.3187.315.6853.6281.6853.7536h-6.8534c-3.2609-.211-8.8958-.3768-11.9935-.3768l-17.1337-.3768c-4.112-.0234-9.2939.1711-12.6788 0-3.2349-.1636-11.26676.2423-14.0496-.7536 5.74593-.0524 14.2737-.436 19.875-.7537 3.3945-.1925 10.1164-.119 13.3642-.3768 3.5014-.2781 6.9792-.1507 10.2802-.3768 3.1738-.2185 9.1332-.32141 10.9655-.3768zm45.2328 3.3913h-8.2242v-.3768c.3532-.088.6975-.2142 1.028-.3768.3295-.2724.6727-.524 1.0281-.7536v-.3769c-.4921-.237-.8697-.4985-1.3707-.7536-.3187-.315-.6854-.62812-.6854-.7536h6.8535c3.261.211 8.896.3768 11.994.3768l17.133.3768c4.112.0234 9.294-.171 12.679 0 3.234.1636 7.657-.0927 14.05.7536-8.634.4262-13.252.4616-18.847.7537-5.765.3014-7.131.1884-14.393.3768-3.509.0912-6.979.1507-10.28.3768-3.174.2185-9.133.3214-10.9653.3768zm-18.8518-.7585c1.1233.1055 1.5173-.1696 2.4035-.3719v-.7537c-1.1175-.0422-2.3459.0513-2.7414-.3768-.1522-.8967-.0317-1.82361.3427-2.63764.6737-.6225.8844-.82899 2.056-.75363 2.2079 2.32455 2.9795 2.90707 4.7974 4.14497-2.5217 1.3018-2.4881 3.6347-6.1681 3.7681-.5174-.1251-.9139-.8791-1.028-1.1305-.0905-.786-.0445-1.4616.3379-1.8889zm-4.071 3.0612c-.0956 1.2352.1542 1.6685.3386 2.643h.6853c.0384-1.2288-.0469-2.5797.3427-3.0145.8155-.1672 1.6584-.0348 2.3987.3768.5661.7412.7539.9725.6854 2.2608-2.114 2.4278-2.6441 3.2764-3.7694 5.2754-1.184-2.7729-3.3055-2.736-3.4268-6.7826.1135-.569.7995-1.005 1.0281-1.1304.7148-.0995 1.3292-.049 1.7174.3715zm1.6408-7.99669c.0956-1.23519-.1543-1.66853-.3386-2.64296h-.6853c-.0384 1.22878.0469 2.57965-.3427 3.01449-.8155.16718-1.6584.03477-2.3987-.37681-.5661-.74081-.7539-.97255-.6854-2.26087 2.114-2.4278 2.6441-3.27637 3.7694-5.27536 1.184 2.77296 3.3054 2.73603 3.4267 6.78261-.1134.56898-.7994 1.00495-1.028 1.13043-.7148.09948-1.3292.04899-1.7174-.37153z" fill="#000" fill-rule="evenodd"/></svg>