<svg height="724.20981" viewBox="0 0 967.42532 724.20981" width="967.42532" xmlns="http://www.w3.org/2000/svg"><g transform="translate(-116.28734 -87.89509)"><path d="m855.15259 631.01825-68-30v-25.79138l24.234-.13617a17.99989 17.99989 0 0 0 16.97516-12.30761l17.02429-51.07276a18 18 0 0 0 -17.07629-23.69208h-41.15716v-24h51.66846a18 18 0 0 0 17.54242-13.96725l11.72412-51a18 18 0 0 0 -17.54242-22.03272h-63.39258v-6a12 12 0 1 0 -24 0v6h-425v-6a12 12 0 0 0 -24 0v6h-50.39259a18 18 0 0 0 -17.54241 22.03272l11.72412 51a18 18 0 0 0 17.54242 13.96728h38.66846v24h-28.15784a17.99994 17.99994 0 0 0 -17.1325 23.52045l17.37622 53.92621a18 18 0 0 0 17.23364 12.47925l10.68048-.06v23.13409l-55 30a17.99994 17.99994 0 0 0 -18 17.99994v.00006a18 18 0 0 0 18 18h55v132a12 12 0 0 0 24 0v-132h425v132a12 12 0 0 0 24 0v-132h68a18 18 0 0 0 18-18v-.00006a17.99994 17.99994 0 0 0 -18-17.99997zm-517-167h425v24h-425zm0 137v-23.26892l425-2.38763v25.65655z" fill="#e6e6e6"/><path d="m805.98327 630.93236c7.47525-60.10953 44.72786-119.33487 102.05418-138.89616a279.0811 279.0811 0 0 0 .01382 191.608c8.80885 23.82761 21.08743 49.41245 12.80154 73.42708-5.15538 14.94257-17.76731 26.37494-31.86492 33.52331-14.09848 7.14837-29.74485 10.55541-45.1954 13.89429l-3.04076 2.51488c-24.52751-55.38442-42.24373-115.96187-34.76846-176.0714z" fill="#e6e6e6"/><path d="m908.60631 493.17278c-33.0441 37.0023-54.481 84.80085-59.30047 134.24978-1.042 10.69074-1.16852 21.62632 1.16847 32.1639 2.338 10.54229 7.42886 19.38918 14.65323 27.3266 6.60453 7.25641 14.20055 13.91409 18.92615 22.6496 4.981 9.20768 5.17241 19.66949 1.76242 29.44992-4.17221 11.96663-12.39541 21.72047-20.76849 30.97943-9.2967 10.28032-19.11595 20.81106-23.06775 34.44-.47882 1.65134-3.01315.81182-2.535-.837 6.87546-23.71209 29.89362-37.181 40.87093-58.53818 5.12222-9.96565 7.2722-21.53531 2.4702-32.05507-4.19914-9.19908-12.02636-16.07124-18.77709-23.36071-7.08837-7.65406-12.52336-16.052-15.32324-26.18569-2.86411-10.36625-3.16481-21.32983-2.40075-32.00032a231.42538 231.42538 0 0 1 16.902-70.3283 242.769 242.769 0 0 1 43.653-69.95621c1.14146-1.27818 2.90048.7324 1.76648 2.00223z" fill="#fff"/><path d="m850.02444 611.26672a35.78848 35.78848 0 0 1 -27.2421-37.48975c.136-1.71228 2.80321-1.58135 2.667.13321a33.13935 33.13935 0 0 0 25.41211 34.8215c1.67126.39734.82467 2.93012-.837 2.535z" fill="#fff"/><path d="m861.2942 683.67482a68.97943 68.97943 0 0 0 30.80343-39.72706c.48465-1.64959 3.01911-.81058 2.53505.837a71.749 71.749 0 0 1 -32.13779 41.27446c-1.48036.87812-2.673-1.51106-1.20069-2.38442z" fill="#fff"/><path d="m876.119 538.01836a20.258 20.258 0 0 0 19.19775-.97453c1.46849-.89646 2.65962 1.49379 1.20068 2.38441a22.70075 22.70075 0 0 1 -21.23546 1.12517 1.37968 1.37968 0 0 1 -.849-1.686 1.34158 1.34158 0 0 1 1.686-.849z" fill="#fff"/><path d="m1082.77612 599.39914c-.901.58584-1.80207 1.17167-2.7042 1.78007a266.78624 266.78624 0 0 0 -34.11173 26.632c-.83393.74358-1.66785 1.50971-2.47867 2.2757a281.25271 281.25271 0 0 0 -61.08228 83.61409 273.13094 273.13094 0 0 0 -14.96115 38.70891c-5.52063 18.318-10.04891 38.61869-20.97685 53.60212a46.85609 46.85609 0 0 1 -3.65035 4.50627h-98.75524c-.22444-.11262-.45-.20284-.67551-.31547l-3.943.18029c.15843-.69847.33775-1.41949.49618-2.11795.09021-.40555.20243-.8111.29264-1.21665.06711-.27036.13532-.54087.18043-.78868.022-.09008.0451-.18015.06711-.24781.0451-.24781.11331-.47321.15842-.69847q1.48688-6.0496 3.064-12.09934c0-.02256 0-.02256.022-.04511 8.08952-30.71029 18.81393-61.015 33.79708-88.72861.45107-.83365.901-1.68985 1.39721-2.5235a260.62905 260.62905 0 0 1 23.41042-35.50949 230.40633 230.40633 0 0 1 15.344-17.5519 191.59989 191.59989 0 0 1 47.9463-35.915c35.41983-18.701 76.42629-25.866 114.27968-14.44255.96812.29282 1.91539.58561 2.88351.90108z" fill="#e6e6e6"/><path d="m1082.55411 600.65254c-48.66181 9.64943-94.556 34.9074-128.17575 71.48795-7.2685 7.90863-13.95354 16.56388-18.43193 26.38458-4.4804 9.82509-5.74209 19.95386-4.75272 30.641.90449 9.77021 2.96111 19.65933 1.47485 29.47928-1.56659 10.35074-7.71251 18.81914-16.32369 24.57522-10.536 7.04272-22.97426 9.87968-35.23423 12.23127-13.61236 2.611-27.79272 5.10735-39.1536 13.61006-1.37652 1.03022-2.89459-1.16592-1.52014-2.19459 19.766-14.79327 46.25392-11.68893 67.87717-22.13233 10.08981-4.87308 18.77219-12.81638 21.27169-24.10695 2.1857-9.87312.07362-20.07268-.9277-29.95732-1.0514-10.379-.33482-20.35652 3.53085-30.13346 3.95436-10.00126 10.3151-18.93611 17.34953-26.99588a231.42567 231.42567 0 0 1 55.83777-45.97706 242.769 242.769 0 0 1 76.97294-29.574c1.68094-.33332 1.87492 2.33107.205 2.66221z" fill="#fff"/><path d="m964.67905 659.67361a35.78848 35.78848 0 0 1 .82013-46.33509c1.13952-1.28527 3.19029.42511 2.04926 1.71208a33.13934 33.13934 0 0 0 -.6748 43.10286c1.09518 1.32347-1.10568 2.83605-2.19459 1.52015z" fill="#fff"/><path d="m930.08265 724.2726a68.97941 68.97941 0 0 0 48.51325-13.174c1.38013-1.02531 2.89861 1.17052 1.52015 2.1946a71.749 71.749 0 0 1 -50.5103 13.60617c-1.71068-.19015-1.22449-2.81584.4769-2.62672z" fill="#fff"/><path d="m1029.61464 616.89961a20.258 20.258 0 0 0 15.91507 10.78025c1.71224.16837 1.22419 2.794-.4769 2.62672a22.70076 22.70076 0 0 1 -17.63276-11.88683 1.37969 1.37969 0 0 1 .33722-1.85737 1.34158 1.34158 0 0 1 1.85737.33723z" fill="#fff"/><path d="m139.46933 684.3085c5.25347-42.24391 31.43395-83.86642 71.72186-97.61374a196.13318 196.13318 0 0 0 .00972 134.65866c6.1907 16.74562 14.81986 34.72619 8.99668 51.60324-3.6231 10.50138-12.48655 18.53584-22.39409 23.55958-9.90816 5.02375-20.90415 7.41816-31.76252 9.76466l-2.137 1.76741c-17.23749-38.92316-29.68812-81.49591-24.43465-123.73981z" fill="#e6e6e6"/><path d="m211.591 587.49352a167.64116 167.64116 0 0 0 -41.67532 94.34835c-.73226 7.51326-.82121 15.19859.82118 22.60422a41.4054 41.4054 0 0 0 10.298 19.20464c4.64154 5.09968 9.9799 9.77858 13.301 15.91773 3.50058 6.471 3.63508 13.82337 1.2386 20.69689-2.93216 8.40993-8.71127 15.26475-14.59572 21.77179-6.53356 7.22482-13.43435 14.62564-16.21161 24.20384-.3365 1.16053-2.11758.57053-1.78159-.58825 4.832-16.66443 21.00871-26.13015 28.72337-41.13958 3.5998-7.00368 5.11077-15.13463 1.736-22.52773-2.95108-6.46495-8.45191-11.29458-13.1962-16.41749-4.98159-5.37914-8.8012-11.281-10.7689-18.40284-2.01285-7.28521-2.22418-14.99022-1.68721-22.48925a162.64185 162.64185 0 0 1 11.8784-49.42548 170.6138 170.6138 0 0 1 30.67855-49.164c.80219-.89828 2.0384.51472 1.24145 1.40713z" fill="#fff"/><path d="m170.42068 670.48784a25.15151 25.15151 0 0 1 -19.14526-26.34713c.0956-1.20336 1.97005-1.11135 1.87433.09362a23.28974 23.28974 0 0 0 17.85917 24.47192c1.17454.27925.57957 2.05924-.58824 1.78159z" fill="#fff"/><path d="m178.34087 721.375a48.47749 48.47749 0 0 0 21.6481-27.91948c.3406-1.1593 2.12178-.56965 1.78159.58825a50.42392 50.42392 0 0 1 -22.58587 29.007c-1.04037.61713-1.87854-1.062-.84382-1.67572z" fill="#fff"/><path d="m188.75945 619.0102a14.237 14.237 0 0 0 13.49184-.68489c1.032-.63 1.86913 1.04982.84382 1.67572a15.95368 15.95368 0 0 1 -14.9239.79076.96961.96961 0 0 1 -.59667-1.18492.94283.94283 0 0 1 1.18491-.59667z" fill="#fff"/><path d="m333.99441 662.14751c-.63323.41172-1.26646.82343-1.90047 1.251a187.49178 187.49178 0 0 0 -23.97311 18.71649c-.58607.52257-1.17214 1.061-1.742 1.59931a197.65952 197.65952 0 0 0 -42.92753 58.76249 191.95053 191.95053 0 0 0 -10.51443 27.20392c-3.8798 12.87359-7.0622 27.14053-14.74216 37.67061a32.92867 32.92867 0 0 1 -2.5654 3.16693h-69.40339c-.15773-.07915-.31623-.14255-.47473-.2217l-2.77106.1267c.11133-.49087.23736-.99759.3487-1.48846.0634-.285.14226-.57.20566-.855.04717-.19.0951-.38011.1268-.55427.01547-.0633.0317-.12661.04717-.17416.0317-.17415.07963-.33256.11133-.49087q1.045-4.25156 2.1533-8.5032c0-.01585 0-.01585.01547-.0317 5.68516-21.58264 13.22209-42.88027 23.752-62.35688.317-.58588.63323-1.1876.98193-1.77348a183.16661 183.16661 0 0 1 16.45243-24.95543 161.92508 161.92508 0 0 1 10.78349-12.33516 134.65269 134.65269 0 0 1 33.69581-25.24045c24.89242-13.14274 53.711-18.17815 80.31371-10.15.68038.2058 1.34607.4116 2.02648.63331z" fill="#e6e6e6"/><path d="m333.83838 663.02838a167.641 167.641 0 0 0 -90.07962 50.24046c-5.10818 5.558-9.8063 11.64079-12.95364 18.5426a41.40533 41.40533 0 0 0 -3.34012 21.534c.63565 6.86634 2.081 13.81623 1.0365 20.71752-1.101 7.27431-5.42022 13.22575-11.472 17.271-7.40453 4.9495-16.1459 6.94326-24.762 8.59592-9.56653 1.835-19.53223 3.58935-27.51645 9.56491-.9674.724-2.03427-.81939-1.06833-1.54232 13.89118-10.39644 32.50643-8.21477 47.70287-15.55421 7.09093-3.42471 13.19275-9.00712 14.94935-16.94193 1.53608-6.93865.05174-14.10672-.652-21.05347-.73891-7.2942-.23531-14.3062 2.48141-21.17726 2.77906-7.02871 7.24927-13.308 12.19295-18.97222a162.642 162.642 0 0 1 39.24178-32.31186 170.61381 170.61381 0 0 1 54.09521-20.78407c1.18134-.23426 1.31766 1.63823.144 1.87095z" fill="#fff"/><path d="m250.99789 704.50733a25.1515 25.1515 0 0 1 .57638-32.56347c.80083-.90326 2.24208.29876 1.44018 1.20322a23.28974 23.28974 0 0 0 -.47424 30.29192c.76967.93011-.77705 1.99312-1.54232 1.06833z" fill="#fff"/><path d="m226.68416 749.90635a48.47745 48.47745 0 0 0 34.09425-9.25849c.96993-.72057 2.03709.82262 1.06833 1.54232a50.42388 50.42388 0 0 1 -35.49774 9.56218c-1.20223-.13363-.86054-1.97892.33516-1.846z" fill="#fff"/><path d="m296.63347 674.44653a14.237 14.237 0 0 0 11.18482 7.57617c1.20333.11833.86034 1.96357-.33515 1.846a15.95369 15.95369 0 0 1 -12.392-8.35385.96963.96963 0 0 1 .237-1.30533.94284.94284 0 0 1 1.30533.237z" fill="#fff"/></g><path d="m369.216 700.309-17.889 5.175-28.476-66.538 26.403-7.639z" fill="#9e616a"/><path d="m528.28626 547.06525-18.456 19.68644s-97.2017 43.06406-97.2017 65.2113 23.37762 118.11847 33.22082 125.50091c5.92887 4.47111 3.24879 9.28647 6.1902 16.1048l34.413-12.41362s-2.4608-7.38244 0-11.07362 0-6.152 0-6.152-3.69118 1.23042-2.4608-2.46076 1.23038-4.9216 0-6.152-4.9216-12.304-4.9216-12.304 1.23038-44.29447-15.99522-60.28969c0 0 79.97606-23.37758 89.81933-39.37288s12.304-73.82411 12.304-73.82411z" fill="#2f2e41" transform="translate(-116.28734 -87.89509)"/><path d="m492.79616 798.40324-59.61066 12.30249-.15564-.754a23.69237 23.69237 0 0 1 18.4127-27.99091l.00148-.00031 9.18343-10.50827 22.02111 4.06837 5.20365-1.07391z" fill="#2f2e41" transform="translate(-116.28734 -87.89509)"/><path d="m434.294 625.577-22.829 15.305 47.362 54.728 15.468-10.371z" fill="#9e616a"/><path d="m584.68086 513.14945c-12.19367-25.71023 24.97551 50.314 20.05427 73.85839-3.8426 18.384-75.6154 76.91906-75.6154 76.91906 21.62575 9.214 35.47342 51.30626 35.47342 51.30626s7.22427 9.16842 8.79876 9.90926 1.99127 1.89853 2.08407 5.78826 3.14892 1.48163 3.14892 1.48163 3.14893 1.48171 2.08407 5.78827 3.75134 10.41885 3.75134 10.41885l-26.60331 24.80162c-5.07745-5.41884-5.75669-12.32155-12.84968-14.51979-11.76216-3.61138-66.269-85.98853-73.77167-106.82624s69.36321-94.28381 69.36321-94.28381l6.52756-36.35112z" fill="#2f2e41" transform="translate(-116.28734 -87.89509)"/><path d="m598.37964 791.48755-57.26873 20.61736-.2608-.72435a23.69238 23.69238 0 0 1 14.26474-30.31556l.00141-.00051 7.60335-11.7025 22.37527.91 4.99921-1.79975z" fill="#2f2e41" transform="translate(-116.28734 -87.89509)"/><path d="m541.03856 390.33533-16.57764 12.6233-44.03709 11.66237s15.77934 110.74217 8.332 118.18951-.73075 7.64749-2.22721 17.322-5.13364 29.50622-5.13364 29.50622c50.26971 26.61 93.60748 27.32377 128.41869-3.81442a8.67064 8.67064 0 0 0 -4.73076-9.78672c-6.479-3.43779 5.97259-19.48327.67773-22.16607s2.15247-25.95571 2.15247-25.95571l16.13955-76.19506-42.92836-33.58719-6.52873-15.73018z" transform="translate(-116.28734 -87.89509)"/><circle cx="445.43604" cy="395.66255" fill="#f2f2f2" r="5.73577"/><circle cx="441.72198" cy="262.62348" fill="#9e616a" r="32.79107"/><path d="m489.473 391.088 5.42 4.065 2.71-18.97z" opacity=".1"/><path d="m483.02145 414.5132s-6.77494-1.355-10.83991 10.83992-24.46987 76.41205-24.46987 84.542 98.32186 25.85388 98.32186 25.85388l-9.65806-33.88161-44.66281-13.97227z" transform="translate(-116.28734 -87.89509)"/><circle cx="434.05187" cy="427.0051" fill="#9e616a" r="15.82558"/><path d="m378.335 383.874 1.239 16.784 39.314 20.634-34.967-23.454z" opacity=".1"/><path d="m587.13181 465.16168h-.51v-13.97145a8.08627 8.08627 0 0 0 -8.08626-8.08631h-29.60039a8.0863 8.0863 0 0 0 -8.08632 8.08629v76.64846a8.08627 8.08627 0 0 0 8.08626 8.08631h29.6004a8.08629 8.08629 0 0 0 8.08631-8.08628v-52.73189h.51z" fill="#f0f0f0" transform="translate(-116.28734 -87.89509)"/><path d="m624.05267 441.72073s4.065 2.71 6.77494 14.90489 20.32481 58.26454 13.54987 69.10445-8.77494 22.40934-31.80977 6.14947l-31.87471-29.18428 23.03483-21.67982 9.48491 6.77493z" transform="translate(-116.28734 -87.89509)"/><circle cx="447.80964" cy="382.59617" r="6.77494"/><circle cx="467.42196" cy="397.43863" fill="#9e616a" r="15.82558"/><path d="m372.872 436.86 48.829 9.142-47.541 1.825z" opacity=".1"/><path d="m586.88075 328.85617s8.53764-16.3214-10.24544-17.80518c0 0-16.01275-14.52561-32.33415-2.6555 0 0-8.90258 0-13.77084 10.07432 0 0-7.00186-2.6555-8.54056 4.45129 0 0-5.12347 14.83768 0 28.19157s6.82526 14.83764 6.82526 14.83764-3.59474-16.57143 16.89764-18.05522 39.2922-14.32138 41 2 3.58518 8.94839 3.58518 8.94839 16.22044-23.31033-3.41709-29.98731z" fill="#2f2e41" transform="translate(-116.28734 -87.89509)"/><path d="m905.36765 293.64135h-265.45959a15.345 15.345 0 0 0 -15.345 15.345v63.84365a15.345 15.345 0 0 0 15.345 15.345h3.89635v11.53444a3.53885 3.53885 0 0 0 6.04122 2.50229l14.03672-14.03673h241.4853a15.345 15.345 0 0 0 15.345-15.345v-63.84364a15.345 15.345 0 0 0 -15.345-15.34501z" fill="#3f3d56" transform="translate(-116.28734 -87.89509)"/><path d="m905.3676 380.38807h-265.4596a7.56623 7.56623 0 0 1 -7.55784-7.55784v-63.84392a7.56622 7.56622 0 0 1 7.55784-7.55784h201.6168a71.482 71.482 0 0 1 71.40063 71.40176 7.56622 7.56622 0 0 1 -7.55783 7.55784z" fill="#fff" transform="translate(-116.28734 -87.89509)"/><rect height="10.03897" rx="4.33898" width="122.1408" x="595.55898" y="227.49736"/><rect fill="#e6e6e6" height="10.03897" rx="4.33898" width="169.8259" x="571.71643" y="247.5753"/><rect fill="#e6e6e6" height="10.03897" rx="4.33898" width="169.8259" x="571.71643" y="267.65324"/><path d="m1071.75181 87.89509h-206.91557a11.96084 11.96084 0 0 0 -11.96085 11.96085v49.76365a11.96082 11.96082 0 0 0 11.96085 11.96085h3.03705v8.99065a2.7584 2.7584 0 0 0 4.7089 1.95044l10.94109-10.94109h188.22853a11.96082 11.96082 0 0 0 11.96085-11.96085v-49.76365a11.96084 11.96084 0 0 0 -11.96085-11.96085z" fill="#f2f2f2" transform="translate(-116.28734 -87.89509)"/><path d="m1071.75177 155.51083h-206.91558a5.89757 5.89757 0 0 1 -5.891-5.891v-49.76393a5.89758 5.89758 0 0 1 5.891-5.89105h157.15257a55.71751 55.71751 0 0 1 55.65406 55.65494 5.89758 5.89758 0 0 1 -5.89105 5.89104z" fill="#fff" transform="translate(-116.28734 -87.89509)"/><rect fill="#f2f2f2" height="7.82499" rx="3.91249" width="95.20407" x="804.62201" y="16.95415"/><rect fill="#f2f2f2" height="7.82499" rx="3.91249" width="132.37278" x="786.03766" y="32.60413"/><rect fill="#f2f2f2" height="7.82499" rx="3.91249" width="132.37278" x="786.03766" y="48.25412"/><path d="m608.87036 169.89509h206.91557a11.96084 11.96084 0 0 1 11.96085 11.96085v49.76365a11.96082 11.96082 0 0 1 -11.96085 11.96085h-3.03705v8.99065a2.7584 2.7584 0 0 1 -4.7089 1.95044l-10.94109-10.94109h-188.22853a11.96082 11.96082 0 0 1 -11.96085-11.96085v-49.76365a11.96084 11.96084 0 0 1 11.96085-11.96085z" fill="#f2f2f2" transform="translate(-116.28734 -87.89509)"/><path d="m602.97936 231.61979a55.7175 55.7175 0 0 1 55.654-55.65494h157.15264a5.89759 5.89759 0 0 1 5.891 5.891v49.76389a5.89758 5.89758 0 0 1 -5.891 5.891h-206.9156a5.89757 5.89757 0 0 1 -5.89104-5.89095z" fill="#fff" transform="translate(-116.28734 -87.89509)"/><rect fill="#f2f2f2" height="7.82499" rx="3.91249" transform="matrix(-1 0 0 -1 1307.93423 293.62838)" width="95.20407" x="664.50875" y="186.84924"/><rect fill="#f2f2f2" height="7.82499" rx="3.91249" transform="matrix(-1 0 0 -1 1307.93423 324.92835)" width="132.37278" x="645.92439" y="202.49923"/><rect fill="#f2f2f2" height="7.82499" rx="3.91249" transform="matrix(-1 0 0 -1 1307.93423 356.22832)" width="132.37278" x="645.92439" y="218.14921"/><path d="m976.772 812.03177h-859.294a1.19068 1.19068 0 1 1 0-2.38136h859.294a1.19068 1.19068 0 0 1 0 2.38136z" fill="#ccc" transform="translate(-116.28734 -87.89509)"/></svg>