<svg width="337" height="336" viewBox="0 0 337 336" fill="none" xmlns="http://www.w3.org/2000/svg">
<ellipse cx="168.5" cy="168" rx="168.5" ry="168" fill="white"/>
<rect x="79" y="244.311" width="179.537" height="22.6895" fill="black"/>
<rect x="79" y="267" width="109.865" height="20.8985" transform="rotate(-90 79 267)" fill="black"/>
<rect x="237.639" y="267" width="109.865" height="20.8985" transform="rotate(-90 237.639 267)" fill="black"/>
<path d="M168.019 202.898L83.1174 123.35L102.325 104.606L189.091 182.928L168.019 202.898Z" fill="black"/>
<path d="M258.497 120.344L171.383 199.059L153.111 180.977L239.839 103.386L258.497 120.344Z" fill="black"/>
<path d="M192.517 58.0181L170.852 38.7419L114.331 94.2714L132.855 110.393L192.517 58.0181Z" fill="black"/>
<path d="M224.814 89.6639L205.341 71.1541L146.92 123.698L167.052 140.893L224.814 89.6639Z" fill="black"/>
</svg>
