<svg fill="none" height="336" viewBox="0 0 337 336" width="337" xmlns="http://www.w3.org/2000/svg"><ellipse cx="168.5" cy="168" fill="#fff" rx="168.5" ry="168"/><g fill="#000"><path d="m79 244.311h179.537v22.6895h-179.537z"/><path d="m79 267h109.865v20.8985h-109.865z" transform="matrix(0 -1 1 0 -188 346)"/><path d="m237.639 267h109.865v20.8985h-109.865z" transform="matrix(0 -1 1 0 -29.361 504.639)"/><path d="m168.019 202.898-84.9016-79.548 19.2076-18.744 86.766 78.322z"/><path d="m258.497 120.344-87.114 78.715-18.272-18.082 86.728-77.591z"/><path d="m192.517 58.0181-21.665-19.2762-56.521 55.5295 18.524 16.1216z"/><path d="m224.814 89.6639-19.473-18.5098-58.421 52.5439 20.132 17.195z"/></g></svg>