<svg fill="none" height="336" viewBox="0 0 337 336" width="337" xmlns="http://www.w3.org/2000/svg"><ellipse cx="168.5" cy="168" fill="#000" rx="168.5" ry="168"/><g fill="#fff"><path d="m73.452 245.47h183.428v23.2639h-183.428z"/><path d="m73.452 268.734h112.646v21.3514h-112.646z" transform="matrix(0 -1 1 0 -195.282 342.186)"/><path d="m235.529 268.734h112.646v21.3514h-112.646z" transform="matrix(0 -1 1 0 -33.205 504.263)"/><path d="m164.401 203.009-86.7423-81.561 19.6241-19.219 88.6462 80.305z"/><path d="m256.839 118.365-89.002 80.708-18.668-18.54 88.608-79.555z"/><path d="m189.429 54.4616-22.134-19.7642-57.746 56.9353 18.925 16.5293z"/><path d="m222.427 86.9086-19.896-18.9784-59.687 53.8738 20.569 17.631z"/></g></svg>