<svg width="337" height="336" viewBox="0 0 337 336" fill="none" xmlns="http://www.w3.org/2000/svg">
<ellipse cx="168.5" cy="168" rx="168.5" ry="168" fill="black"/>
<rect x="73.452" y="245.47" width="183.428" height="23.2639" fill="white"/>
<rect x="73.452" y="268.734" width="112.646" height="21.3514" transform="rotate(-90 73.452 268.734)" fill="white"/>
<rect x="235.529" y="268.734" width="112.646" height="21.3514" transform="rotate(-90 235.529 268.734)" fill="white"/>
<path d="M164.401 203.009L77.6587 121.448L97.2828 102.229L185.929 182.534L164.401 203.009Z" fill="white"/>
<path d="M256.839 118.365L167.837 199.073L149.169 180.533L237.777 100.978L256.839 118.365Z" fill="white"/>
<path d="M189.429 54.4616L167.295 34.6974L109.549 91.6327L128.474 108.162L189.429 54.4616Z" fill="white"/>
<path d="M222.427 86.9086L202.531 67.9302L142.844 121.804L163.413 139.435L222.427 86.9086Z" fill="white"/>
</svg>
