<svg fill="none" height="295" viewBox="0 0 1086 295" width="1086" xmlns="http://www.w3.org/2000/svg"><path d="m0 0h1060.74v295h-1060.74z" fill="#000"/><g fill="#fff"><path d="m297.21 200v-109.0909h65.838v11.7189h-52.628v36.861h49.219v11.718h-49.219v37.074h53.481v11.719zm87.944 0v-81.818h12.571v81.818zm6.392-95.455c-2.45 0-4.563-.834-6.339-2.503-1.74-1.669-2.61-3.6755-2.61-6.0193 0-2.3437.87-4.3501 2.61-6.0192 1.776-1.669 3.889-2.5035 6.339-2.5035s4.546.8345 6.286 2.5035c1.775 1.6691 2.663 3.6755 2.663 6.0192 0 2.3438-.888 4.3503-2.663 6.0193-1.74 1.669-3.836 2.503-6.286 2.503zm41.775 46.236v49.219h-12.571v-81.818h12.145v12.784h1.065c1.918-4.155 4.83-7.493 8.736-10.014 3.906-2.557 8.949-3.836 15.128-3.836 5.539 0 10.387 1.137 14.542 3.41 4.154 2.237 7.386 5.646 9.694 10.227 2.308 4.545 3.463 10.298 3.463 17.258v51.989h-12.571v-51.136c0-6.428-1.67-11.435-5.008-15.022-3.338-3.622-7.919-5.433-13.742-5.433-4.013 0-7.6.87-10.76 2.61-3.125 1.74-5.593 4.279-7.405 7.617-1.811 3.338-2.716 7.387-2.716 12.145zm139.147-32.599-30.256 81.818h-12.784l-30.256-81.818h13.637l22.585 65.199h.852l22.585-65.199zm16.592 81.818v-81.818h12.571v81.818zm6.392-95.455c-2.45 0-4.563-.834-6.338-2.503-1.74-1.669-2.61-3.6755-2.61-6.0193 0-2.3437.87-4.3501 2.61-6.0192 1.775-1.669 3.888-2.5035 6.338-2.5035 2.451 0 4.546.8345 6.286 2.5035 1.775 1.6691 2.663 3.6755 2.663 6.0192 0 2.3438-.888 4.3503-2.663 6.0193-1.74 1.669-3.835 2.503-6.286 2.503zm64.786 13.637v10.653h-42.4v-10.653zm-30.042-19.6025h12.571v77.9825c0 3.552.515 6.215 1.545 7.991 1.065 1.74 2.414 2.911 4.048 3.515 1.669.568 3.427.852 5.273.852 1.385 0 2.522-.071 3.409-.213.888-.177 1.598-.319 2.131-.426l2.557 11.293c-.852.319-2.042.639-3.569.959-1.527.355-3.462.532-5.806.532-3.551 0-7.031-.763-10.44-2.29-3.374-1.527-6.179-3.853-8.417-6.978-2.201-3.125-3.302-7.067-3.302-11.825zm73.029 103.3385c-5.185 0-9.89-.977-14.116-2.93-4.226-1.989-7.581-4.847-10.067-8.576-2.486-3.764-3.729-8.31-3.729-13.636 0-4.688.923-8.488 2.77-11.4 1.847-2.947 4.315-5.255 7.404-6.924 3.09-1.669 6.499-2.912 10.227-3.729 3.765-.852 7.546-1.527 11.346-2.024 4.972-.639 9.002-1.119 12.092-1.438 3.125-.355 5.398-.941 6.818-1.758 1.456-.817 2.184-2.237 2.184-4.262v-.426c0-5.255-1.438-9.339-4.315-12.251-2.841-2.912-7.155-4.368-12.944-4.368-6.001 0-10.706 1.314-14.115 3.942s-5.806 5.433-7.191 8.416l-11.932-4.261c2.13-4.972 4.971-8.843 8.523-11.613 3.586-2.805 7.492-4.758 11.718-5.859 4.262-1.136 8.452-1.705 12.571-1.705 2.628 0 5.647.32 9.056.959 3.444.604 6.765 1.865 9.961 3.782 3.231 1.918 5.912 4.812 8.043 8.683s3.196 9.055 3.196 15.554v53.906h-12.571v-11.08h-.639c-.853 1.776-2.273 3.676-4.262 5.7-1.988 2.024-4.634 3.746-7.936 5.167-3.303 1.42-7.334 2.131-12.092 2.131zm1.918-11.293c4.971 0 9.162-.977 12.571-2.93 3.444-1.953 6.037-4.474 7.777-7.564 1.775-3.089 2.663-6.338 2.663-9.747v-11.506c-.533.639-1.705 1.225-3.516 1.758-1.775.497-3.835.941-6.179 1.331-2.308.355-4.563.675-6.765.959-2.166.249-3.924.462-5.273.639-3.267.426-6.321 1.119-9.162 2.078-2.805.923-5.078 2.326-6.818 4.208-1.705 1.846-2.557 4.368-2.557 7.564 0 4.368 1.616 7.67 4.847 9.907 3.267 2.202 7.404 3.303 12.412 3.303zm94.109-72.443v10.653h-42.4v-10.653zm-30.042-19.6025h12.571v77.9825c0 3.552.514 6.215 1.544 7.991 1.066 1.74 2.415 2.911 4.049 3.515 1.669.568 3.426.852 5.273.852 1.385 0 2.521-.071 3.409-.213.888-.177 1.598-.319 2.131-.426l2.557 11.293c-.853.319-2.042.639-3.569.959-1.527.355-3.463.532-5.806.532-3.552 0-7.032-.763-10.441-2.29-3.373-1.527-6.179-3.853-8.416-6.978-2.202-3.125-3.302-7.067-3.302-11.825zm48.952 101.4205v-81.818h12.571v81.818zm6.392-95.455c-2.45 0-4.563-.834-6.339-2.503-1.74-1.669-2.61-3.6755-2.61-6.0193 0-2.3437.87-4.3501 2.61-6.0192 1.776-1.669 3.889-2.5035 6.339-2.5035s4.545.8345 6.285 2.5035c1.776 1.6691 2.664 3.6755 2.664 6.0192 0 2.3438-.888 4.3503-2.664 6.0193-1.74 1.669-3.835 2.503-6.285 2.503zm62.442 97.16c-7.386 0-13.867-1.758-19.442-5.274-5.54-3.516-9.872-8.434-12.997-14.755-3.09-6.321-4.635-13.707-4.635-22.159 0-8.523 1.545-15.962 4.635-22.319 3.125-6.356 7.457-11.292 12.997-14.808 5.575-3.516 12.056-5.274 19.442-5.274 7.387 0 13.85 1.758 19.389 5.274 5.576 3.516 9.908 8.452 12.998 14.808 3.125 6.357 4.687 13.796 4.687 22.319 0 8.452-1.562 15.838-4.687 22.159-3.09 6.321-7.422 11.239-12.998 14.755-5.539 3.516-12.002 5.274-19.389 5.274zm0-11.293c5.611 0 10.228-1.438 13.85-4.315 3.622-2.876 6.303-6.658 8.043-11.346 1.74-4.687 2.61-9.765 2.61-15.234s-.87-10.565-2.61-15.288-4.421-8.54-8.043-11.452-8.239-4.368-13.85-4.368-10.227 1.456-13.849 4.368-6.303 6.729-8.043 11.452c-1.741 4.723-2.611 9.819-2.611 15.288s.87 10.547 2.611 15.234c1.74 4.688 4.421 8.47 8.043 11.346 3.622 2.877 8.238 4.315 13.849 4.315zm68.835-39.631v49.219h-12.571v-81.818h12.144v12.784h1.066c1.917-4.155 4.829-7.493 8.736-10.014 3.906-2.557 8.948-3.836 15.127-3.836 5.54 0 10.388 1.137 14.542 3.41 4.155 2.237 7.385 5.646 9.695 10.227 2.31 4.545 3.46 10.298 3.46 17.258v51.989h-12.569v-51.136c0-6.428-1.669-11.435-5.007-15.022-3.338-3.622-7.919-5.433-13.743-5.433-4.012 0-7.599.87-10.76 2.61-3.125 1.74-5.593 4.279-7.404 7.617s-2.716 7.387-2.716 12.145z"/><path d="m61.1543 240.573h180.856v23.0014h-180.856z"/><path d="m61.1543 263.574h111.375v21.052h-111.375z" transform="matrix(0 -1 1 0 -202.4197 324.7283)"/><path d="m220.958 263.574h111.375v21.052h-111.375z" transform="matrix(0 -1 1 0 -42.616 484.532)"/><path d="m150.827 198.591-85.5251-80.642 19.3489-19.0011 87.4032 79.3991z"/><path d="m241.97 114.902-87.754 79.797-18.406-18.331 87.365-78.6571z"/><path d="m175.505 51.7194-21.824-19.5412-56.936 56.2928 18.66 16.343z"/><path d="m208.04 83.8002-19.617-18.7642-58.85 53.266 20.281 17.431z"/></g></svg>