<svg height="673.49605" viewBox="0 0 700.84998 673.49605" width="700.84998" xmlns="http://www.w3.org/2000/svg"><g transform="translate(-249.57501 -113.25198)"><path d="m544.25922 253.69377h-3.24722v-88.95627a51.48546 51.48546 0 0 0 -51.48541-51.4855h-188.466a51.48546 51.48546 0 0 0 -51.48559 51.48534v488.02121a51.48548 51.48548 0 0 0 51.48542 51.48552h188.46592a51.48548 51.48548 0 0 0 51.48566-51.48532v-335.74437h3.24726z" fill="#3f3d56"/><path d="m491.60385 126.64672h-24.601a18.267 18.267 0 0 1 -16.91268 25.16586h-107.96977a18.26691 18.26691 0 0 1 -16.91268-25.16589h-22.97744a38.44878 38.44878 0 0 0 -38.44881 38.44873v487.30513a38.44878 38.44878 0 0 0 38.44876 38.44881h189.37362a38.44878 38.44878 0 0 0 38.44881-38.44876v-487.30514a38.44875 38.44875 0 0 0 -38.44881-38.44874z" fill="#fff"/><path d="m484.34365 331.21579h-174.85317a4.41288 4.41288 0 0 1 -4.40806-4.40806v-102.85481a4.41288 4.41288 0 0 1 4.40806-4.40806h174.85317a4.41288 4.41288 0 0 1 4.40806 4.40806v102.85481a4.41288 4.41288 0 0 1 -4.40806 4.40806z" fill="#fff"/><path d="m425.95152 274.45658a9.726 9.726 0 0 0 -13.97393-.24976l-49.2083 49.20866a6.94842 6.94842 0 0 1 -9.80048.01471l-7.28794-7.27332a9.7025 9.7025 0 0 0 -13.72426 0l-14.10523 14.12047h158.13137v-2.013z" fill="#f9a826"/><path d="m484.34352 332.71584h-174.853a5.91484 5.91484 0 0 1 -5.90808-5.9082v-102.85449a5.91484 5.91484 0 0 1 5.90808-5.9082h174.853a5.91487 5.91487 0 0 1 5.9082 5.9082v102.85449a5.91487 5.91487 0 0 1 -5.9082 5.9082zm-174.85303-111.67084a2.91148 2.91148 0 0 0 -2.90808 2.9082v102.85444a2.91148 2.91148 0 0 0 2.90808 2.9082h174.853a2.91159 2.91159 0 0 0 2.9082-2.9082v-102.85449a2.91159 2.91159 0 0 0 -2.9082-2.9082z" fill="#cbcbcb"/><path d="m473.5796 646.10237a21.752 21.752 0 1 1 21.752-21.752 21.77663 21.77663 0 0 1 -21.752 21.752zm0-41.83071a20.07874 20.07874 0 1 0 20.07874 20.07874 20.10162 20.10162 0 0 0 -20.07874-20.07874z" fill="#cbcbcb"/><path d="m464.18439 631.6739a.69581.69581 0 0 1 -.34855-1.29838l10.436-6.02515-10.436-6.02515a.69584.69584 0 0 1 .69573-1.2053l11.47959 6.6278a.696.696 0 0 1 0 1.2053l-11.47959 6.6278a.69273.69273 0 0 1 -.34718.09308z" fill="#cbcbcb"/><path d="m479.57678 634.09065a.69576.69576 0 0 1 -.69573-.69573v-18.089a.69574.69574 0 0 1 1.39147 0v18.089a.69577.69577 0 0 1 -.69574.69573z" fill="#cbcbcb"/><path d="m352.27057 375.02334a3.268 3.268 0 1 0 0 6.536h89.293a3.268 3.268 0 0 0 0-6.536z" fill="#ccc"/><path d="m301.77057 420.02334a3.268 3.268 0 1 0 0 6.536h190.293a3.268 3.268 0 0 0 0-6.536z" fill="#ccc"/><path d="m301.77057 446.02334a3.268 3.268 0 1 0 0 6.536h190.293a3.268 3.268 0 0 0 0-6.536z" fill="#ccc"/><path d="m301.77057 472.02334a3.268 3.268 0 1 0 0 6.536h190.293a3.268 3.268 0 0 0 0-6.536z" fill="#ccc"/><path d="m301.77057 498.02334a3.268 3.268 0 1 0 0 6.536h190.293a3.268 3.268 0 0 0 0-6.536z" fill="#ccc"/><path d="m301.77057 524.02334a3.268 3.268 0 1 0 0 6.536h190.293a3.268 3.268 0 0 0 0-6.536z" fill="#ccc"/><path d="m301.77057 550.02334a3.268 3.268 0 1 0 0 6.536h190.293a3.268 3.268 0 0 0 0-6.536z" fill="#ccc"/><path d="m763.8541 579.29283a9.07356 9.07356 0 0 0 -.00205-13.91321l-6.74578-118.7179-19.24648 4.35128 12.724 115.944a9.12273 9.12273 0 0 0 13.27027 12.33583z" fill="#9f616a"/><path d="m842.00577 594.7518a9.07352 9.07352 0 0 1 -.50167-13.90416l2.44325-118.8843 19.3914 3.65166-8.518 116.32861a9.12273 9.12273 0 0 1 -12.815 12.80819z" fill="#9f616a"/></g><path d="m602.692 658.185 15.1-.001 4.307-35.227-19.41.001z" fill="#9f616a"/><path d="m848.41488 766.50672 29.73829-.00121h.0012a18.95259 18.95259 0 0 1 18.95157 18.95127v.61586l-48.69016.0018z" fill="#2f2e41" transform="translate(-249.57501 -113.25198)"/><path d="m508.465 658.185 15.1-.001 4.307-58.245-19.41.002z" fill="#9f616a"/><path d="m754.188 766.50672 29.7383-.00121h.0012a18.95259 18.95259 0 0 1 18.95157 18.95127v.61586l-48.69016.0018z" fill="#2f2e41" transform="translate(-249.57501 -113.25198)"/><circle cx="570.49735" cy="263.50708" fill="#9f616a" r="24.70454"/><path d="m850.26682 427.74722s10.97978.915 11.89478 6.40488 0 21.95961 0 21.95961 7.31986 21.9596 0 27.44949-26.53454 6.4049-26.53454 6.4049z" fill="#f9a826" transform="translate(-249.57501 -113.25198)"/><path d="m756.93849 552.185-10.06482 16.4697s3.65993 72.28369 4.57489 74.11366a5.50126 5.50126 0 0 1 .915 3.65992v10.06482l2.745 87.83844s-7.31985 3.65992 1.83 6.40489 21.04461 3.65993 22.87457-5.48989 1.91685-85.3761 1.83-87.83839l.915-3.65992 14.63975-53.984 33.85435 75.02855 20.12965 84.1785s30.46517 3.51807 24.97528-8.37672-18.57039-100.50631-18.57039-100.50631-2.745-9.14986-2.745-10.97983-.915-2.745-.915-4.57493-.915-7.31985-.915-7.31985l-6.4049-57.644z" fill="#2f2e41" transform="translate(-249.57501 -113.25198)"/><path d="m795.36777 405.38271s.54935 1.36531 41.2182 6.43232c0 0 22.83066 15.01719 23.74562 18.67712s-17.38467 50.32409-17.38467 50.32409l-1.83 35.68435s9.14571 15.43 4.57493 63.13386c-14.29758.79432-72.18915-18.02806-86.46592-26.077-2.16893-1.2228-7.22441 4.16783-6.8624 3.20245 2.745-7.31988 0-6.40489 2.745-8.23486s7.31985-65.8788 7.31985-65.8788-5.48989-69.53874.915-71.36871 32.02439-5.89482 32.02439-5.89482z" fill="#f9a826" transform="translate(-249.57501 -113.25198)"/><path d="m766.08831 412.19253s-10.97978-.915-13.72475 8.23485-25.61949 43.91918-21.0446 47.57911 39.34428 16.4697 40.25929 15.55471-5.48994-71.36867-5.48994-71.36867z" fill="#f9a826" transform="translate(-249.57501 -113.25198)"/><path d="m848.84094 361.00515c-1.03662-3.85941-2.49785-7.71716-5.47475-10.3832a17.04456 17.04456 0 0 0 -10.92192-4.30111 33.90945 33.90945 0 0 0 -30.5826-1.73448 5.59583 5.59583 0 0 0 -2.436-2.4834q-.44069 3.81117-.88155 7.6223-1.70217-1.281-3.40451-2.562-.084 2.25554-.16788 4.5111-1.56018-1.34136-3.12037-2.68271c-.22162 5.32508 4.20984 9.93553 9.22081 11.75083s10.50573 1.48037 15.82945 1.22872c2.629-.12428 5.62331-.07933 7.39782 1.86456 1.85881 2.03644 1.5083 5.15808 1.55395 7.915.06428 3.87729 4.0446 1.97822 6.04091 5.30274.716 1.19207 1.57485 2.41785 1.54868 3.80814a8.89859 8.89859 0 0 1 -1.33936 3.53248c-1.46966 3.03533-4.392 12.47908-2.99692 15.54944q3.87294-2.16741 7.74606-4.33487s17.00634-15.92169 11.98818-34.60354z" fill="#2f2e41" transform="translate(-249.57501 -113.25198)"/><path d="m949.425 786.748h-307a1 1 0 0 1 0-2h307a1 1 0 0 1 0 2z" fill="#cbcbcb" transform="translate(-249.57501 -113.25198)"/><path d="m690.82694 785.1472s-14.93658-27.57-51.05858-15.64855z" fill="#f1f1f1" transform="translate(-249.57501 -113.25198)"/><path d="m691.72758 784.47349s-18.472-23.47977 8.18954-52.7711z" fill="#f1f1f1" transform="translate(-249.57501 -113.25198)"/></svg>