<svg height="455.59899" viewBox="0 0 524.67004 455.59899" width="524.67004" xmlns="http://www.w3.org/2000/svg"><path d="m238.83843 47.86831c-4.27191-4.43026-5.44876-10.22554-2.62887-12.94375s8.56783-1.32987 12.84067 3.10254c1.73111 1.74715 3.01865 3.88347 3.75486 6.23022l17.86322 18.99977-7.53142 7.04481-18.20768-18.45237c-2.31908-.8216-4.40762-2.18676-6.09078-3.98121z" fill="#ffb6b6"/><path d="m258.15678 50.42647-3.39174-4.90713-10.33685 7.86385 5.62157 2.81031z" fill="#f9a826"/><path d="m357.30765 113.55097-5.23899-27.61014-51.73162-4.89355-43.07939-33.19779-10.34739 7.30143 35.67994 50.31767z" fill="#2f2e41"/><path d="m323.26312 68.6633c-3.35637-1.48363-7.96682 1.58918-10.29724 6.86354-.96063 2.09543-1.40534 4.3905-1.29689 6.69313l-2.73322 6.38385-.04711.00586-12.54929 21.74983-17.95985-26.24009c-2.74717-4.01376-7.77808-5.78516-12.43396-4.3781h-.00004c-7.62508 2.30439-10.44811 11.62719-5.38227 17.7745l29.66184 35.99401c3.11135 3.77551 9.09331 3.03 11.1828-1.39369l17.49426-41.06699 2.14139-4.68548c1.775-1.46955 3.17225-3.34286 4.07488-5.46316 2.33199-5.27592 1.50107-10.75355-1.85531-12.23722z" fill="#ffb6b6"/><path d="m524.67004 434.48305c0 .66003-.53003 1.19-1.19006 1.19h-522.28998c-.65997 0-1.19-.52997-1.19-1.19s.53003-1.19 1.19-1.19h522.28998c.66003 0 1.19006.53003 1.19006 1.19z" fill="#3f3d56"/><path d="m324.48688 70.70287.52289-21.48449 12.50052-6.87949 10.28607 15.99412z" fill="#ffb6b6"/><path d="m348.77293 56.05435-27.97701 12.69539-1.32004 16.60166 33.85436-18.22927z" fill="#f9a826"/><path d="m363.28521 130.21796-.01001.04004c-2.02997 12.12994-4.73999 20.84998-4.73999 20.84998l.84003 19.38 1.76996 40.52002-11.00995.96997-17.35004 1.52002-1.67999.14996-11.5 1.01001-17.71002 1.54999-5.20996-75.51996s6.45001-16.56 12.60999-32.33002c4.16003-10.64001 8.19-20.92999 10-25.52002.17999-.45001.34003-.83997.47003-1.16998 2.10999-5.29999 12.62-11.88 20.75995-16.32001 5.53003-3.02997 9.98004-5.08002 9.98004-5.08002l4.44 8.17999.33997.63c6.66003 8.12 9.39001 19.42004 10.02002 31.04004.04999.83997.08002 1.67999.10999 2.51996.29004 9.66003-.77002 19.40002-2.13 27.58002z" fill="#2f2e41"/><path d="m333.35129 427.63709-11.63976-.10956-5.11886-44.94837 17.1792.16124z" fill="#ffb6b6"/><path d="m293.47442 427.00155c-.36811.60701-.57769 2.57528-.58431 3.28511-.02033 2.18182 1.73189 3.96706 3.91378 3.98739l36.04702.3358c1.48843.01387 2.70635-1.1815 2.72021-2.67l.01398-1.50075s1.82523-4.49393-1.7943-10.08762c0 0-4.60351 4.31066-11.35822-2.57108l-1.9767-3.66115-14.65339 10.50865-8.07644.91784c-1.76696.20078-3.3294-.06473-4.25151 1.45582h-.00014z" fill="#2f2e41"/><path d="m392.93432 413.30336-10.5699 4.87577-23.83866-38.44837 15.6-7.1966z" fill="#ffb6b6"/><g fill="#2f2e41"><path d="m356.61148 429.77211c-.07336.7061.5784 2.57512.8758 3.21968.91413 1.98119 3.26125 2.84627 5.24251 1.9321l32.73231-15.10287c1.35156-.62362 1.94174-2.22484 1.31809-3.57647l-.62878-1.36275s-.27058-4.8429-5.9336-8.35297c0 0-2.31949 5.86464-11.36743 2.53007l-3.35184-2.46507-8.75621 15.76332-6.90933 4.28165c-1.51163.93672-3.03766 1.36446-3.22141 3.13324l-.00013.00006z"/><path d="m304.94927 207.59899 1.19493 101.04069 9.91819 105.49351h18.3896l14.97159-137.95305s21.63969-33.36119 9.01654-63.11577v-14.7566l-53.49086 9.29122z"/><path d="m335.89878 303.22976 51.39427 91.06704-14.42646 14.42646-40.57442-58.6075z"/></g><path d="m281.38973 75.91124-20.83345-7.1615s-17.57823 20.83345-8.46359 46.22422l2.60418 30.59913s-35.8075 29.94809-38.41168 68.35977-87.24008 139.97476-87.24008 139.97476-31.25018 1.95314-33.20332 13.67195c-1.95314 11.71882 11.06777 26.69286 8.46359 39.71377s18.6445 50.78154 63.68454 48.17736 184.36376-27.99495 186.31689-57.292c1.95314-29.29704-69.66186-247.39725-69.66186-247.39725l10.41673-29.29704s7.1615-11.71882-3.25523-24.08868-10.41673-21.4845-10.41673-21.4845z" fill="#e6e6e6"/><path d="m259.55251 70.05584.52701-1.3061 3.73198-12.36986 18.88032 6.51045-1.30209 13.02091z" fill="#ffb6b6"/><circle cx="330.33285" cy="33.81" fill="#ffb6b6" r="22.89883"/><path d="m326.98955 43.62736-9.63259-9.35726 2.66553-7.2774s-19.03721 7.06752-14.31377-7.81878 28.82418-13.38351 33.81612-9.75143c4.99193 3.63208 21.1665 12.04129 17.01559 23.83225s-12.02339 22.40105-12.02339 22.40105l-6.22649-3.61418s-.1969-13.58015-3.27434-12.91812-8.02665 4.50387-8.02665 4.50387z" fill="#2f2e41"/><circle cx="281.93356" cy="44.51744" fill="#ffb6b6" r="21.13153"/><path d="m280.24707 16.10757c.61146.35694 1.4305-.1831 1.62657-.86343s-.03233-1.40266-.25881-2.07347l-1.14015-3.37699c-.80862-2.39503-1.66685-4.87376-3.41813-6.69669-2.64328-2.75142-6.84406-3.45137-10.6256-2.94428-4.85625.6512-9.6477 3.28081-11.90571 7.62921s-1.29669 10.41598 2.78339 13.12894c-5.81501 6.66497-7.84203 14.09285-7.52197 22.93218s9.95276 16.97439 16.23457 23.20136c1.40284-.85038 2.67818-4.83564 1.90675-6.2834s.33386-3.12503-.62154-4.45857-1.75471.78985-.78882-.53611c.60949-.83671-1.76933-2.76161-.86336-3.2624 4.382-2.42222 5.83942-7.8842 8.59161-12.06685 3.31964-5.04506 9.00121-8.46162 15.01381-9.02843 3.31213-.31224 6.81047.25328 9.5253 2.17615s4.47239 5.359 3.84285 8.62571c1.63041-1.65546 2.442-4.08154 2.13588-6.38482-.30611-2.30328-1.72319-4.43316-3.7294-5.60531 1.21986-4.034.17484-8.67429-2.65651-11.79594s-14.31685-2.58997-18.4504-1.76841" fill="#2f2e41"/><path d="m279.60515 31.53106c-5.47477.591-9.4277 5.33337-12.76563 9.71294-1.9239 2.52428-3.93917 5.31193-3.89087 8.48543.04883 3.20849 2.19404 5.96047 3.21926 9.00114 1.67576 4.97008.04254 10.88332-3.94653 14.28878 3.94165.74798 8.20268-2.20747 8.88313-6.16134.79213-4.60278-2.697-9.04517-2.28377-13.6973.36406-4.09858 3.59392-7.25293 6.33978-10.31743s5.3247-7.13102 4.06147-11.04703" fill="#2f2e41"/><path d="m486.50391 326.7971c-3.16093.3401-6.60921.85055-10.27718 1.59744-15.55246 3.16687-15.87526 13.72736-15.73896 16.14847l-.10566-.06586c-1.56382 2.50859-2.54325 5.0473-3.13519 7.44337l-.71221-32.36652c.46052-.9602.87954-2.04896 1.22889-3.16494 1.16419 3.58504 3.07256 6.97195 4.7176 6.74748 2.13909-.2919 3.07167-6.58596 2.67265-11.05881 2.72016 3.50314 7.2981 7.24972 9.02511 6.09446 1.38001-.92313.56173-4.72359-.94492-8.17871 3.13929 1.89132 6.61613 3.13439 7.69503 1.93342 1.47227-1.63885-2.05557-7.23082-5.30905-10.35235 4.35496.40613 9.89372-.28771 10.25684-2.26977.2992-1.6331-2.99722-3.69384-6.5255-5.02014 3.5439-.93441 6.85789-2.56256 6.74798-4.17324-.13057-1.91338-5.05068-3.19543-9.29526-3.39051 3.20154-2.50471 6.14321-5.96711 5.24362-7.53303-.82704-1.43962-4.67439-.88198-8.22406.38596 2.10064-3.00326 3.5775-6.38742 2.45277-7.54556-1.40106-1.44266-6.37359 1.04738-9.76711 3.79978.66062-4.28797.32665-9.70052-1.59659-10.19022-1.60895-.40967-3.88929 2.73886-5.4527 6.16866-.69097-3.59931-2.08979-7.01645-3.7042-7.01645-2.29982 0-4.16418 6.93399-4.16418 11.45149 0 .25536.00677.49574.01843.72541-.23083-.26761-.49538-.54719-.79707-.84018-3.24076-3.14728-9.51391-6.64064-11.11616-4.99082-1.12474 1.15814.35212 4.5423 2.45277 7.54556-3.54967-1.26794-7.39702-1.82559-8.22406-.38596-1.11127 1.93439 3.63883 6.76323 7.4999 9.10499-.2321-.02796-.47595-.0515-.73547-.0692-4.50701-.30752-11.55183 1.08049-11.7084 3.37497-.10991 1.61067 3.20409 3.23883 6.74798 4.17324-3.52829 1.3263-6.8247 3.38704-6.5255 5.02014.36312 1.98206 5.90188 2.6759 10.25684 2.26977-3.25348 3.12154-6.78132 8.7135-5.30905 10.35235 1.0789 1.20097 4.55573-.0421 7.69503-1.93342-1.50665 3.45512-2.32492 7.25558-.94492 8.17871 1.82373 1.21996 6.82541-3.02601 9.4625-6.67949-.2687 4.46965.80077 10.61004 2.9228 10.85236.88742.10134 1.82777-.84507 2.67643-2.3023l-2.40356 34.79012c-.56184 4.05159 3.03199 6.69542 3.35318 8.36434l.51842 23.5593c-.58508-1.67794-1.37316-3.3952-2.43548-5.09933l-.10566.0659c.13628-2.42136-.18675-12.98155-15.73896-16.14836-3.66797-.74689-7.11625-1.25734-10.27718-1.59744-3.73116-.40145-5.1866 4.70611-1.81595 6.35581 4.88144 2.38917 9.4733 5.39935 11.86668 8.96403 6.11901 9.11359 14.5737 3.84542 15.77578 3.0275 1.34266 2.23509 2.22306 4.48687 2.77913 6.62945l.27531 12.51144c-.06744.2959-.11414.46159-.11777.47403l.12902.03782.66628 30.27884 6.18057-.04965-2.21068-30.94947c.37149-1.66957 1.51435-7.35722 0-13.26406l-2.21068-24.31744c-.0055-.01877.12548.63842 0 0l-2.8837-9.55504c.41933-2.95604 1.3925-6.28098 3.36894-9.57097 1.20206.81791 9.65677 6.08611 15.77579-3.0275 2.39338-3.56469 6.98524-6.57486 11.86668-8.96403 3.37065-1.64971 1.91521-6.75726-1.81595-6.35581zm-28.23342 71.6385-.11651-5.2952c.23499 2.00214.2231 3.80933.11651 5.2952z" fill="#f2f2f2"/><path d="m77.50391 326.7971c-3.16093.3401-6.60921.85055-10.27718 1.59744-15.55246 3.16687-15.87526 13.72736-15.73896 16.14847l-.10566-.06586c-1.56382 2.50859-2.54325 5.0473-3.13519 7.44337l-.71221-32.36652c.46052-.9602.87954-2.04896 1.22889-3.16494 1.16419 3.58504 3.07256 6.97195 4.7176 6.74748 2.13909-.2919 3.07167-6.58596 2.67265-11.05881 2.72016 3.50314 7.2981 7.24972 9.02511 6.09446 1.38001-.92313.56173-4.72359-.94492-8.17871 3.13929 1.89132 6.61613 3.13439 7.69503 1.93342 1.47227-1.63885-2.05557-7.23082-5.30905-10.35235 4.35496.40613 9.89372-.28771 10.25684-2.26977.2992-1.6331-2.99722-3.69384-6.5255-5.02014 3.5439-.93441 6.85789-2.56256 6.74798-4.17324-.13057-1.91338-5.05068-3.19543-9.29526-3.39051 3.20154-2.50471 6.14321-5.96711 5.24362-7.53303-.82704-1.43962-4.67439-.88198-8.22406.38596 2.10064-3.00326 3.5775-6.38742 2.45277-7.54556-1.40106-1.44266-6.37359 1.04738-9.76711 3.79978.66062-4.28797.32665-9.70052-1.59659-10.19022-1.60895-.40967-3.88929 2.73886-5.4527 6.16866-.69097-3.59931-2.08979-7.01645-3.7042-7.01645-2.29982 0-4.16418 6.93399-4.16418 11.45149 0 .25536.00677.49574.01843.72541-.23083-.26761-.49538-.54719-.79707-.84018-3.24076-3.14728-9.51391-6.64064-11.11616-4.99082-1.12474 1.15814.35212 4.5423 2.45277 7.54556-3.54967-1.26794-7.39702-1.82559-8.22406-.38596-1.11127 1.93439 3.63883 6.76323 7.4999 9.10499-.2321-.02796-.47595-.0515-.73547-.0692-4.50701-.30752-11.55183 1.08049-11.7084 3.37497-.10991 1.61067 3.20409 3.23883 6.74798 4.17324-3.52829 1.3263-6.8247 3.38704-6.5255 5.02014.36312 1.98206 5.90188 2.6759 10.25684 2.26977-3.25348 3.12154-6.78132 8.7135-5.30905 10.35235 1.0789 1.20097 4.55573-.0421 7.69503-1.93342-1.50665 3.45512-2.32492 7.25558-.94492 8.17871 1.82373 1.21996 6.82541-3.02601 9.4625-6.67949-.2687 4.46965.80077 10.61004 2.9228 10.85236.88742.10134 1.82777-.84507 2.67643-2.3023l-2.40356 34.79012c-.56184 4.05159 3.03199 6.69542 3.35318 8.36434l.51842 23.5593c-.58508-1.67794-1.37316-3.3952-2.43548-5.09933l-.10566.0659c.13628-2.42136-.18675-12.98155-15.73896-16.14836-3.66797-.74689-7.11625-1.25734-10.27718-1.59744-3.73116-.40145-5.1866 4.70611-1.81595 6.35581 4.88144 2.38917 9.4733 5.39935 11.86668 8.96403 6.11901 9.11359 14.5737 3.84542 15.77578 3.0275 1.34266 2.23509 2.22306 4.48687 2.77913 6.62945l.27531 12.51144c-.06744.2959-.11414.46159-.11777.47403l.12902.03782.66628 30.27884 6.18057-.04965-2.21068-30.94947c.37149-1.66957 1.51435-7.35722 0-13.26406l-2.21068-24.31744c-.0055-.01877.12548.63842 0 0l-2.8837-9.55504c.41933-2.95604 1.3925-6.28098 3.36894-9.57097 1.20206.81791 9.65677 6.08611 15.77579-3.0275 2.39338-3.56469 6.98524-6.57486 11.86668-8.96403 3.37065-1.64971 1.91521-6.75726-1.81595-6.35581zm-28.23342 71.6385-.11651-5.2952c.23499 2.00214.2231 3.80933.11651 5.2952z" fill="#f2f2f2"/><path d="m254.59464 146.95021 30.61385-.09889c1.93007-.00623 1.9338-3.00625 0-3l-30.61385.09889c-1.93007.00623-1.9338 3.00625 0 3z" fill="#f9a826"/><path d="m338.13119 207.58411c-1.72567-2.14449-3.94-3.84449-6.45757-4.95758l-1.66933-1.97024.08341-.08105-32.45896-53.56467-17.59219-52.31125c-2.03548-6.05261-8.67939-9.21617-14.66116-6.98109-5.98395 2.23593-8.92497 8.98491-6.48877 14.89012l20.55643 49.82679 41.79034 56.74113 1.01054 1.25282c.62246 2.68045 1.87782 5.1728 3.66095 7.26863 4.39125 5.30689 10.68603 7.34281 14.06224 4.54932 3.37627-2.7935 2.55441-9.35846-1.83594-14.66292z" fill="#ffb6b6"/><path d="m350.04519 218.93979c-1.38748 7.70964-6.49012 13.24303-11.39644 12.35922s-7.7576-7.84937-6.3686-15.56157c.5126-3.08832 1.75733-6.00898 3.63007-8.51761l6.29135-32.59181 12.88201 2.52076-5.46981 32.53928c.88061 3.00521 1.02855 6.17764.43141 9.25172z" fill="#ffb6b6"/><path d="m338.2872 197.10011-2.5355 7.15685 15.81794 4.80506-1.28989-7.89493z" fill="#f9a826"/><path d="m365.41522 102.63794-.75 13.30005-1.38 14.27997-.01001.04004-3.89996 40.22998-2.95001 30.5-.56 5.70996-4.85999-1.08997-.67999-.15002-4.95001-1.10999-8.54004-1.92999-.39996-.08002-1.71002-.39001 4.35004-71.42999.67999-30.70996.59998-26.94.16998-7.52002c5.53003-3.02997 9.98004-5.08002 9.98004-5.08002l4.44 8.17999.33997.63c6.66003 8.12 9.39001 19.42004 10.02002 31.04004.04999.83997.08002 1.67999.10999 2.51996z" fill="#2f2e41"/></svg>