<svg fill="none" height="24" viewBox="0 0 155 24" width="155" xmlns="http://www.w3.org/2000/svg"><path clip-rule="evenodd" d="m74.4488 11.0629c-1.1233-.1055-1.5174.1696-2.4035.3719v.7537c1.1174.0422 2.3459-.0513 2.7413.3768.1522.8967.0318 1.8236-.3426 2.6377-.6737.6224-.8845.8289-2.0561.7536-2.2078-2.3246-2.9795-2.9071-4.7974-4.1449 2.5217-1.3019 2.4882-3.63477 6.1681-3.76816.5175.1251.9139.8791 1.028 1.13043.0905.78641.0446 1.46163-.3378 1.88893zm3.0792-1.1353h1.028c.9715.5584 1.1175.997 1.028 2.6377-.5678 1.1199-.8114 1.1632-2.3987 1.1304-.8224-.2427-.894-.751-1.028-1.5072.0795-.4594-.137-.7537.3427-1.5073.3224-.85195.698-.73514 1.028-.7536zm-22.6164.3768h8.2242v.3768c-.3532.088-.6975.2142-1.0281.3768-.3294.2724-.6726.524-1.028.7537v.3768c.4921.237.8697.4985 1.3707.7536.3187.315.6854.6281.6854.7536h-6.8535c-3.2608-.211-8.8958-.3768-11.9935-.3768l-17.1336-.3768c-4.1121-.0234-9.294.1711-12.6789 0-3.2348-.1635-11.26673.2423-14.049577-.7536 5.745927-.0524 14.273677-.436 19.874977-.7537 3.3945-.1925 10.1164-.119 13.3642-.3768 3.5015-.2781 6.9793-.1507 10.2802-.3768 3.1738-.2185 9.1333-.3214 10.9655-.3768zm45.2324 3.3913h-8.2238v-.3768c.3532-.088.6975-.2142 1.0281-.3768.3294-.2724.6726-.524 1.028-.7536v-.3768c-.4921-.2371-.8697-.4986-1.3707-.7537-.3187-.315-.6854-.6281-.6854-.7536h6.8535c3.2613.211 8.8953.3768 11.9933.3768l17.134.3768c4.112.0234 9.294-.171 12.679 0 3.234.1636 7.657-.0927 14.049.7537-8.633.4261-13.252.4615-18.847.7536-5.764.3014-7.13.1884-14.392.3768-3.51.0912-6.979.1507-10.28.3768-3.174.2186-9.133.3214-10.966.3768zm-18.8514-.7585c1.1233.1055 1.5174-.1696 2.4035-.3719v-.7536c-1.1174-.0422-2.3459.0512-2.7414-.3769-.1521-.8967-.0317-1.82361.3427-2.63764.6737-.62249.8844-.82898 2.056-.75362 2.2079 2.32456 2.9796 2.90706 4.7975 4.14496-2.5218 1.3018-2.4882 3.6347-6.1682 3.7681-.5174-.1251-.9139-.8791-1.028-1.1305-.0904-.786-.0445-1.4616.3379-1.8889zm-4.0709 3.0612c-.0956 1.2352.1542 1.6685.3385 2.643h.6854c.0383-1.2288-.047-2.5797.3426-3.0145.8155-.1672 1.6584-.0348 2.3987.3768.5661.7412.7539.9725.6854 2.2609-2.114 2.4277-2.6441 3.2763-3.7694 5.2753-1.1839-2.7729-3.3054-2.736-3.4267-6.7826.1134-.569.7994-1.005 1.028-1.1304.7148-.0995 1.3292-.049 1.7175.3715zm1.6407-7.99669c.0956-1.23519-.1542-1.66852-.3386-2.64295h-.6853c-.0384 1.22878.0469 2.57965-.3427 3.01449-.8155.16717-1.6584.03477-2.3987-.37681-.5661-.74082-.7539-.97255-.6854-2.26087 2.114-2.4278 2.6441-3.27638 3.7694-5.275365 1.184 2.772955 3.3055 2.736025 3.4268 6.782605-.1135.56899-.7995 1.00496-1.028 1.13044-.7149.09948-1.3293.04898-1.7175-.37154z" fill="#000" fill-rule="evenodd"/></svg>