<svg fill="none" height="63" viewBox="0 0 119 63" width="119" xmlns="http://www.w3.org/2000/svg"><path clip-rule="evenodd" d="m118.568 49.743c-3.657-.0596-7.846-.3058-10.497.8478-2.32 1.0097-3.641 3.0324-5.482 4.4811-2.503 1.9685-4.9527 4.4007-7.9317 5.8135-1.6066.7619-3.4004 1.1968-5.2486 1.6955-1.9227.5189-4.797.0651-6.2984-.3633l-1.6329-.2422c-4.1532-1.5785-7.2074-3.9874-10.1474-6.7824-1.0929-1.039-3.5497-3.1895-3.9656-4.7234h.1166c1.0892.8932 2.5453 1.149 3.849 1.8167 3.6749 1.8821 6.4957 1.6014 10.264-.1211 5.4217-2.4782 8.4129-6.4208 10.264-12.5957 1.388-4.6304.3321-10.9193-1.1663-14.4125-.4715-1.0991-.8374-1.355-1.3997-2.3011-.2682-.4505-.6035-.7228-.933-1.09-.3709-.4134-.3446-.4885-.8165-.8478-.2148-.1636-.7331-.5587-.9331-.7267-.4607-.2202-.8727-.4781-1.3996-.7267-.1555-.1614-.8943-.323-1.0498-.4844-.3448-.1028-.6954-.1837-1.0497-.2422-.151-.0261-1.0651-.0991-1.1664-.1212-.6588-.143-2.1201.2113-2.6826.3634-3.9126 1.058-4.4205 1.8113-6.2984 4.9656-.7762 1.3043-1.9806 3.912-1.3996 6.419 1.0302 4.4468 2.8034 6.8477 6.5316 8.4779 1.0712.4683 3.2091 1.1848 5.0154.7267.9715-.2464 1.7989-.7002 2.7993-.8478v.2422c-.617.4387-1.0964 1.1545-1.7496 1.5745-1.6353 1.0523-4.05 1.6229-6.415 1.8167l-.1166-.1211c.0213-1.1178-.4347-1.4884-1.5163-1.4534-.1191.0969-.0319.043-.2333.1211l-.4665.4845c-.4199.9065.3545 1.0015-1.0497.9689l-2.7993-.8478c-2.4771-1.482-4.6421-3.623-5.8318-6.419-.5728-1.3458-.9161-2.9239-1.283-4.4812-.1767-.7498.0963-1.5186-.2333-2.0589-.1866 1.2787-1.0715 2.3336-1.6329 3.2701-1.9595 3.2692-5.1575 6.6472-10.1474 6.6612-.3469-1.2327-.2916-1.9682-1.8662-1.9378-.5832.5571-.9498.5685-.9331 1.8166-4.4182.0951-7.5748-1.7561-9.7974-3.9967v-.2422h.3499c.4845.4239 1.0237.3842 1.7495.6056 3.0153.9196 6.3414.1367 8.5145-1.0901 2.933-1.6558 5.0342-4.0348 6.0651-7.6301 2.1314-7.434-2.9426-13.2042-7.5814-15.018-1.2796-.5003-3.7537-1.2191-5.8318-.7267-5.6658 1.3427-8.4108 5.515-10.264 10.7791-.3643 1.0347-.2082 2.0318-.4666 3.1489-1.5872 6.8623 1.0304 14.7974 3.6158 18.6514 2.6093 3.8898 6.0164 6.2245 10.7305 7.9935 1.2563.4715 4.2593 1.5598 6.1818 1.09 1.9957-.4877 3.8191-1.2512 5.5985-2.0589 1.1064-.5023 2.1192-1.5475 3.4991-1.6956v.1211c-1.5163 1.4776-2.6158 3.433-4.0823 4.9656-2.2906 2.394-5.0919 4.4968-7.9313 6.2979-1.6903 1.0722-3.9469 1.9319-5.9484 2.5434-1.6563.506-5.0068.9551-6.9982.4844h-1.283c-1.5681-.4443-3.3344-.6941-4.7821-1.3322-4.5213-1.9929-7.7853-5.1333-11.4304-7.9935-2.0233-1.5876-3.3884-3.6917-5.9485-4.8445-3.3051-1.4882-8.29853-1.2111-12.946615-1.2111v-.2422c1.143035-1.1059 2.164425-2.3586 3.382455-3.3912 3.2958-2.7939 10.74106-5.4567 16.91226-3.6334 1.8346.5421 3.675 1.1652 5.3653 1.9378 1.156.5283 2.2422 1.5604 3.4991 1.9378v-.1211c-4.9022-4.8089-8.6023-16.4462-5.5985-26.0393 2.2161-7.0757 6.3851-12.66741 12.7133-15.50242 3.4623-1.551091 9.2919-2.590482 13.7632-1.09001 6.5106 2.18487 11.032 6.60949 13.5298 12.95903.6043 1.5364.7948 3.3482 1.1664 5.0868.193.9029-.1605 1.8993.2332 2.5434.2474-1.9343 1.7475-3.4205 2.6827-4.7234 2.3888-3.3281 5.4501-4.9229 9.9141-6.1768 1.4533-.4082 4.3015-.6989 6.0651-.2422 1.4395.3728 2.8989.747 4.1989 1.3322 4.4905 2.0216 7.8979 6.3036 9.7975 11.0213.4115 1.0219.4729 1.9006.8164 3.0278.7749 2.5434 1.1685 7.4299.3499 10.4157-.7958 2.902-1.7552 5.5795-3.1492 7.8724-.6016.9896-1.506 1.772-2.0994 2.7856h.1166c.5994-.7732 1.9839-1.1533 2.9159-1.5745 1.3236-.5982 2.9507-1.3307 4.4327-1.8167l2.332-.2422c4.577-1.0254 8.558 1.2424 11.081 2.9067.963.6356 3.364 2.2092 3.499 3.5123zm-98.3248-6.0557c.3713 1.4499 1.5725 2.5446 2.3328 3.6334 3.2598 4.6685 7.2152 7.653 13.4132 9.3257 2.853.77 9.3584.0969 10.9638-1.2111-7.5982.2043-10.9888-3.5224-15.2794-6.6612-2.0107-1.4711-4.2423-2.4566-6.6483-3.5123-1.3966-.6128-2.9802-1.4233-4.7821-1.5745zm81.2958 3.149c-.739.5079-1.8329.4822-2.6828.8477-1.5922.6848-3.3618 1.4622-4.7821 2.4223-4.0015 2.7051-7.5043 6.9882-14.2296 6.419v.1211h.2333c1.2148 1.152 6.9425 1.5538 9.2142.9689 4.7903-1.2332 8.1921-3.8194 10.731-7.3879.725-1.0195 1.856-2.0312 2.216-3.3911z" fill="#000" fill-rule="evenodd"/></svg>