<svg fill="none" height="10" viewBox="0 0 114 10" width="114" xmlns="http://www.w3.org/2000/svg"><path clip-rule="evenodd" d="m114 3.71845v.07127c-.096.08026-.151.21471-.235.30881-.261.29134-.561.60954-.857.85516-.932.77456-1.921 1.43952-3.082 1.97162-.597.27344-1.26.40243-1.926.59386-.381.10951-.795.04592-1.199.14253-.344.08229-1.177.08594-1.52 0-.359-.0901-.682-.01663-1.006-.11877-.874-.27555-1.678-.59707-2.376-1.06895-.15-.10215-.319-.13562-.47-.23755-.455-.30631-.952-.54353-1.4131-.85516-1.4054-.94928-2.9973-1.86473-4.5806-2.58924-.4118-.18845-.8711-.23334-1.3484-.35632-.1974-.05086-.4371-.00107-.6208-.04751-.2033-.0514-.8752.0273-1.0488.07127-.2374.06009-.4401.0085-.6635.07126-.5737.16113-1.1683.25994-1.691.45133-.2671.09783-.5175.12198-.7705.23755-1.3147.60066-2.6296 1.16373-3.7886 1.94787-.3517.23788-.7404.35698-1.0917.59386-.4912.33119-1.0406.56548-1.5411.90267-.2408.16232-.5989.43687-.8776.5226.0071.00791.0144.01585.0215.02376.089.08931.2003.10725.321.16628.2956.14459.5846.32173.899.47509.4942.24101.997.471 1.5839.64137.8021.23279 2.0707-.13961 2.6542-.35632 2.1304-.79129 3.8626-1.93599 5.7364-3.01682.7142-.41202 1.3878-.739 2.2688-.99769.3907-.11466.9996-.14224 1.3913 0 .2494.09053.5174.20904.7278.35632.3812.26669.7573.65683.9418 1.14021.2632.69007.1355 2.18171-.1499 2.70802-.492.90742-1.3114 1.36113-2.3758 1.63906-.2999.07831-.6998.00793-.9418-.07127-.777-.25417-1.4157-.65384-1.6482-1.49653-.1948-.70639.2372-1.5597.6421-1.68657.1225-.03839.2408.02627.3211.04751.1135.18654.2552.24365.2569.57011-.1854.1583-.3256.38933-.4923.57011.0066.6713.899 1.04203 1.5411.80765.7821-.28551 1.5756-2.00875.6849-2.75552-.1828-.15336-.3989-.29841-.6421-.38008-.2609-.08767-.6158.00347-.8134.07127-.5467.18547-1.0828.40759-1.6053.66512-.9298.45566-1.8177 1.06851-2.7398 1.52029-.7082.34701-1.4142.69-2.1404 1.02145-.6368.29056-1.326.40339-2.0548.59386-.2704.07062-.5343.0295-.8348.04751-1.1257.06746-1.7674-.34128-2.5257-.71264-.3147-.15409-.6116-.28127-.899-.47509-.2432-.1639-.8239-.6394-1.0916-.68888-.0942.07956-.2239.08713-.3425.14253-.3005.14036-.6143.24562-.9418.38007-1.0642.43689-2.2785.71228-3.7244.71264-.6772.00016-1.3408.02598-1.8836-.14253-.5985-.18509-1.1849-.41525-1.7551-.68888-.3042-.14574-.6069-.29016-.9418-.42758-.0743-.03043-.2235-.13343-.3425-.09502-.0747.02409-.0959.09806-.1926.11877v-.02375c.0616-.04963.0978-.10186.107-.21379-.6306-.43196-2.0142-1.0167-3.0609-.71264-.7827.22743-1.4711.55253-2.1618.87892-.5362.25329-1.0927.44471-1.6267.68888-.5865.26814-1.234.38653-1.8836.57011l-.8134.09501c-.2541.06488-.9217-.06088-1.113-.11877-.1713-.05181-.3093-.03584-.4709-.09502-.7329-.26842-1.4196-.61391-1.9906-1.06895-.2267-.18053-.5758-.68826-.8134-.7839-.0927.15153-.2536.26969-.3853.38008-.1355.11361-.2451.29218-.3853.40382-.2123.16923-.434.27294-.6635.42758-.3872.26078-.8592.473-1.3271.64137-1.0792.38839-2.5233.15555-3.4675-.19003-.6293-.23042-1.2089-.39535-1.798-.66513-.7941-.36358-1.601-.76682-2.4401-1.06895-.2491-.08972-.5319-.10214-.7919-.16628-.2145-.0529-.5236.00475-.685.04751l-.3424.04751c-.3716.11731-.7361.26011-1.0917.42758-.9285.43525-1.8027.85818-2.7397 1.28274-.4292.19443-.92.27555-1.3913.40383-.4264.11613-1.4502.15742-1.905.04751-.3902-.09431-.7462-.0178-1.1131-.11878-.8752-.24084-1.7453-.38195-2.5257-.73639-.2969-.13483-.6113-.23894-.9204-.38007-.1402-.06402-.2778-.16084-.4495-.19003-.0732.07995-.1656.10254-.2568.16628-.3168.22117-.6514.41656-.9846.64137-.627.42283-1.3562.84982-2.0977 1.11646-.1847.06651-.3501.04387-.5565.09502-.3493.08658-.8709.11333-1.2414.02375-.2931-.07083-.5416-.01786-.8134-.09502-1.8393-.52188-3.3635-1.26305-4.8802-2.1379-.8657-.4993-1.7276-.94826-2.6756-1.37776-.3373-.15281-.8825-.44269-1.3912-.28506-.4597.14253-.8506.49593-1.0061.97394-.2183.67144.3763 1.76767.7064 1.99538.6338.43727 1.7944.23293 1.8836-.61762-.0721-.07789-.4979-.57386-.5137-.64137-.0659-.2803.3006-.57389.5565-.57011l.1712.07126c.1674.11479.3685.38794.4495.59387.229.58217-.0174 1.30588-.2568 1.66281-.5864.87417-2.0161 1.19724-3.1251.66513-.6765-.32463-1.3175-.76397-1.6053-1.52029-.0904-.23755-.1156-.51666-.1712-.7839-.0072-.24546-.0143-.49093-.0215-.73639 0-1.39603.6676-2.04051 1.5412-2.44671 1.1868-.55201 2.6502.19241 3.4675.66512.6666.38554 1.3536.68687 1.9906 1.11647.4825.32543 1.0032.58094 1.5197.87891 1.0122.58396 2.0655 1.09295 3.2749 1.47278.2374.07457.4944.08233.7277.14253l.6208.02375c.2637.06013.692-.02088.9204-.09502.7102-.23041 1.2671-.52554 1.8621-.85516.2402-.13302.4763-.26759.7064-.38007.1239-.06053.3048-.0849.3639-.21379-.1822-.04772-.3658-.20837-.5137-.30881-.2383-.16181-.4992-.27253-.7278-.42758-.4983-.3381-1.0629-.5416-1.5625-.87892-.4965-.33574-1.0112-.6372-1.5411-.90267-.7207-.35349-1.4243-.7289-2.1619-1.06895-.4632-.21355-.9737-.34784-1.4555-.5226-.582-.2111-1.2153-.2398-1.8408-.40382-.2626-.06889-.5593-.00613-.8133-.07127-.2856-.07319-1.0401.03473-1.2629.09502-.2645.07157-.4867.05395-.7277.14253-.6776.25034-1.336.56013-1.9693.92642-.9647.55674-1.9554 1.09171-2.8681 1.71033-.2594.17578-.5317.27567-.792.45133-.9852.66477-2.0535 1.27878-3.2321 1.71033-1.32705.48597-3.85609.30714-5.09423-.14253-.94131-.34185-1.82475-.70751-2.58994-1.23524-.43915-.30286-.85656-.5716-1.26286-.90267-.21227-.17295-.391123-.41905-.599324-.59386-.186218-.1564-.6608402-.5602-.706346-.83141.281211.04176.472075.34074.663537.49885.460193.38007.922163.77259 1.412693 1.11646.75254.52754 1.62659.90267 2.54713 1.23523.45559.16457.9035.15821 1.41269.28506.39142.09751 1.24657.18236 1.69095.07126h.36387c.38922-.0982.82245-.04824 1.19865-.16628 1.75618-.5511 3.06858-1.5721 4.45208-2.54173.7186-.5036 1.4616-.95983 2.1833-1.44903.2997-.20305.6179-.31871.9204-.52259.6332-.42687 1.3758-.74547 2.1404-1.02145.1967-.07098.3668-.0615.578-.11877.2102-.05701.9334-.185286 1.1986-.118773l1.1344.095013c.7218.18612 1.4551.21023 2.1191.45134.4991.18122 1.0182.3251 1.4983.54635 1.5244.70264 2.945 1.48416 4.3665 2.30419.7693.44378 1.5529.85671 2.3331 1.3065.1314.0758.7194.46426.8133.42758.1327-.03563.231-.13516.3425-.19004.4536-.22329.8829-.47316 1.3271-.68888.3333-.16181.6883-.25132 1.0702-.35632l.4067-.02375c.2055-.04988.6081-.05202.8134 0l.7705.02375c.381.09683.7836.08566 1.1344.21379.5232.19147 1.0314.4298 1.5198.71264.1438.08297.7964.53849.899.49884.251-.07202.4972-.33018.7063-.47509.61-.42294 1.2641-.85041 1.9906-1.11646.1909-.06988.3613-.04159.5779-.09502.1925-.0475.8765-.10763 1.1131-.0475.3277.08328.6504.05938.9418.16628 1.5389.56502 2.8619 1.33766 4.4949 1.82909 1.3241.39849 2.9536-.40211 3.4033-1.21148.1879-.33816.2209-1.03876.107-1.49653-.2498-1.00339-.6802-1.7284-1.5411-2.04289-.9701-.35437-1.7301.18942-2.0548.87892-.0454.09616-.1103.15467-.1285.28505.2102.14918.658.61734.7278.90268.1145.46763-.4215.90357-.8134.76014-.7198-.26344-1.213-1.5301-.8348-2.51798.4361-1.139121 1.3166-1.716355 2.4616-2.0666387.3388-.1036409.8767-.05888744 1.1986.0237545.3054.0783902.5595.0665122.8348.1662812.6995.253437 1.2855.695294 1.8194 1.140213.1498.16628.2996.33257.4494.49885.0803.12003.1336.31132.2569.38007.1064-.35684.5542-.76119.8134-.97393.5959-.489348 1.2115-.91004 2.0334-1.163975 1.4491-.44763 3.1651.346364 3.7244 1.211475.2652.41015.7164 1.29838.4923 2.06665-.0934.31959-.2479.54794-.4067.78389-.1237.18384-.4576.57648-.8134.47509-.1122-.03556-.2151-.10076-.2996-.19003-.0581-.05993-.134-.13417-.1713-.21379-.3061-.65544.6066-.96657.685-1.35401-.1169-.13129-.1599-.34584-.2569-.49884-.2209-.34848-.5739-.54861-1.006-.66513-.3795-.10231-.8331.04404-1.0916.16628-.7629.36083-1.14.99144-1.3699 1.94787-.0779.32446-.1092.9054 0 1.23523.0618.18705.1757.37129.2782.5226.1084.15975.2965.26722.4495.38008.5857.43214 1.7516.88065 2.7826.5701 1.6332-.49186 2.9549-1.26746 4.4949-1.82909.2916-.1063.6139-.08367.9418-.16628.2036-.05131.7477-.0196.9204.02375.2402.06029.4422-.00171.6422.07126.6245.22805 1.2245.56553 1.7551.92643.1954.13302.5266.46611.7706.49884.1995-.19982.7312-.41218 1.006-.54635.1871-.09138.4018-.2184.5993-.30881.3031-.13863.6509-.19322.9846-.28505l.8348-.09502h.4923c.3373-.08105 1.0223-.04062 1.3271.04751.7386.21355 1.3433.52887 1.9478.87892.2583.14965.7973.34681.9846.54635 2.4236-1.14872 4.576-2.67557 6.9778-3.84823.7154-.34919 1.4371-.56818 2.2261-.85516.6094-.22163 1.302-.31525 1.9692-.49885.2939-.08088.5698-.02024.8776-.09501.3818-.092813 1.2444-.107945 1.6267 0 .4842.13668.975.22668 1.4127.42758 1.4572.66885 2.7616 1.51439 4.024 2.3992.8466.59351 1.7086 1.10366 2.5686 1.68657.667.45238 1.365.84578 2.183 1.14022.382.13744.797.08615 1.22.19003.343.084.755.07127 1.156.07127h.385c.485-.12282.998-.05701 1.456-.19004 1.048-.30475 2.042-.60598 2.868-1.16397.555-.3748 1.093-.76644 1.605-1.18773.254-.20837.519-.62557.878-.68888zm-38.7634 1.63906c-.0666.043-.1841-.00128-.2783.02376-.1804.04805-.3868.07813-.5779.14253-.607.20457-1.2222.38855-1.691.73639v.0475c.2543.16061.5159.36388.792.49885.3769.18433.7988.30116 1.2201.42758 1.058.31745 2.808.14284 3.7243-.16628.3213-.10839.633-.17897.9204-.28506.1096-.04038.2171-.02869.2997-.09501-.2288-.11403-.4354-.28712-.6421-.42758-.4087-.27758-1.02-.56021-1.4984-.73639-.6162-.22695-1.4818-.16512-2.2688-.16629zm-38.6778.02376c-.1188.07601-.5859.05901-.7492.11877-.4341.15892-.8587.39613-1.2414.61762-.1696.09815-.5339.20353-.578.42758.1811.04276.3489.15203.5137.21379.3265.12212.6631.2064.9846.30881 1.2169.38772 3.0664.46186 4.2595.02375.3795-.13936.7032-.24588 1.006-.45133.1011-.06849.1852-.03563.2141-.19004-.1847-.10096-.3624-.26201-.5565-.35632-.4516-.21834-.9165-.40091-1.3913-.54635-.6732-.20719-1.63-.15583-2.4615-.16628z" fill="#000" fill-rule="evenodd"/></svg>