<svg fill="none" height="32" viewBox="0 0 183 32" width="183" xmlns="http://www.w3.org/2000/svg"><path clip-rule="evenodd" d="m90.859 5.39331c.8659-.02538 1.7303.09583 2.5639.35955.1784.32927.3939.63138.641.89888.1109 3.54156-1.6075 2.65744-1.7627 5.39326 2.5362 3.0213 2.6252-.7987 3.0447-3.23596.7012-.50175 1.1196-.98157 2.2434-1.07865.3091.27434.7812.26625 1.1217.53933l.8013 1.25842c.021.62456.0535 1.44396-.1603 1.79776-.254.9124-.7692 1.0414-1.2819 1.618h-2.4037c-.4167.6939-.7532.773-.8012 1.9775.5382.3391.8493.5239 1.7627.5393.7898-.9767 1.6091-2.0884 3.2049-2.1573.2382.188.5132.3111.8012.3596l.961 1.2584c.072 1.7303-.014 2.9985-1.121 3.4157-.381.3432-.8795.3697-1.6027.3596-.7461-.8367-1.7218-2.0291-3.0447-2.1573-.599.538-.9172.3775-.9614 1.618 1.237 1.3069 1.8819.8269 3.6856 1.2584.5804.9719.9735 1.2661.9615 3.0562-.5404.6232-1.0471 1.1913-1.6025 1.7977h-1.2819c-.5314-.5997-1.3371-.8999-1.6025-1.7977-.4301-1.4551.3872-2.6666-.8012-3.236-1.0618-.8706-1.9428.4405-1.923 1.618 1.14 1.4499 1.9457 2.6729 1.4422 5.0337-.7429.5222-2.1775 1.3938-3.2049.5393-.5626-.2139-.5977-.5102-.9614-.8989-.0354-.8391-.2386-1.5219.1602-2.1573.2436-.8124 1.0756-1.6179 1.6025-2.1573-.0535-.5992-.1069-1.1985-.1603-1.7977-.47-.24-.8022-.4414-1.4422-.5393l-.9615 1.0786c-.5978 1.5056.2657 3.1461-1.1217 3.7753-.3939.5377-1.0155.5668-1.9229.5393-.5556-.6062-1.062-1.1746-1.6025-1.7977v-1.618c1.3621-1.6383 1.5685-1.7661 4.0062-1.7978.4025-.6734.6369-.7308.6409-1.9775l-.4807-.1798c-.3037-.2734-.5753-.3216-1.1217-.3595-.7461.8367-1.7218 2.0291-3.0447 2.1573-.1615-.1246-.6409-.2314-.8012-.3596-.7531-.2898-.8079-.8764-1.282-1.4382-.0929-2.6509.6822-3.5194 3.0447-3.4157.5194.7569 1.3398 1.2814 1.9229 1.9775 1.266.0556 1.7876-.1618 1.7627-1.6179-.843-.863-2.3357-.9289-3.6856-1.2585-.7232-1.1133-1.8287-3.54155.1602-4.31458.3545-.37555.7753-.49456 1.4423-.53933.7467.64971 1.5907.68225 1.9229 1.79775.6233 2.09346-.5315 4.56506 2.4037 3.23596.2169-.5375.3173-.908.3205-1.7978l-1.7627-2.15726c-.0231-.84288.0306-1.6862.1602-2.51685zm-61.6944 4.31461c4.8433-.23227 9.0539.27452 12.8196 1.25838h2.564l4.3266.5394c1.098.3236 6.3518 2.4365 6.8905 2.3371.5288-.0975 1.2711-.6942 1.7627-.8989 1.7712-.738 3.7017-1.2525 5.4484-1.7978 3.2166-1.0042 8.8016-1.9687 12.9798-1.43818 1.4244.18085 4.8136.88828 6.0893 1.25838v.5394c.071.4864-.1224 1.4741-.9614 1.618-1.3594-1.2078-4.5409-.9065-6.8906-.8989-5.3568.018-10.1451 1.8876-14.1015 3.7753v.1797c2.2274.3188 6.6423 2.495 8.9737 3.236 4.3204 1.3731 8.3866.4956 12.4991-.5393l.1603.3595c.2704.3804.4373 1.1632.3204 1.4382l-.1602.5393c-1.2647.1978-2.229.7427-3.5254.8989-2.9475.3553-7.9629.4903-10.4159-.1798-2.5103-.659-4.8611-1.3184-7.3713-1.9775-1.2613-.4631-3.5589-1.516-4.8074-1.7977-1.7612.6552-3.4544 1.1146-5.224 1.793-1.7199.484-3.5364.6041-5.1919.9036-1.1217 0-2.0832.1798-3.2049.1798-2.2957.5914-4.8768 1.2773-7.5315 1.2584-1.9983-.0142-4.4452.0372-5.7689 0-1.1217-.0599-2.4036-.1199-3.5254-.1798-3.9929-.6414-7.5488-1.7524-11.2171-3.0562-1.6424-.5837-2.9299-1.3303-4.80738-2.337-1.12588.622-1.39205.8409-2.56392 1.7977-.44131.5778.31793 1.1272-.64098 2.1573-.39068.7159-2.24616.745-2.72417.3596-.8384-.6762-.8525-3.0999 0-3.7753 1.27812-1.0127 2.68731.5379 4.48687-1.2584-.65524-.3616-1.29799-.8682-1.92294-1.2585-.74595.0703-1.36465.4018-2.40368.1798l-.80123-1.0786c-.01553-.7235.03819-1.4468.16025-2.1574l1.12171-1.0786c3.07415-.048 1.9332 1.2404 2.88442 3.0562.6171.6632 1.66206 1.1831 2.72416 1.618.86839-.5018 1.69139-.8437 2.56389-1.2585 3.1447-1.4948 6.7552-2.5497 10.416-3.5955 2.1897-.2995 4.2282-.54218 6.57-.71908zm78.1994-.17978c5.735-.04602 10.623.56016 15.063 2.15726.873.3139 5.258 2.3163 5.929 2.1574.577-.1367 1.32-.6508 1.923-.8989 1.603-.6589 2.361-.811 4.006-1.2585 1.929-.5244 4.373-.4082 6.891-.7191 3.503-.4325 10.133-1.6564 15.384-1.0786 4.801.5284 8.448 1.4991 10.896 2.3371 1.313.4494 3.7 1.5318 7.051 2.8764 1.085-1.0607 2.45-.6113 2.404-3.0562.128-.1836.056-.0493.16-.3596.373-.3595.747-.7191 1.122-1.0786 1.998-.0775 2.791.8153 2.724 3.0562-.423.4528-.878.9643-1.282 1.4382-.708.0248-1.415-.0971-2.083-.3596-.475.6309-1.415.6717-1.763 1.4382.666.1676 1.277.5413 1.763 1.0787.54-.1744 1.447-.6551 2.083-.1798 2.368.8126.968 3.236 0 4.3146-1.247.0658-2.082-.1107-2.404-1.0786-.352-.4306-.343-1.1015-.32-1.9776-1.157-.3272-1.221-.657-3.045-1.4382-2.003 1.0008-3.934 1.6899-5.929 2.5169-7.445 3.0835-17.871 3.9011-26.601 1.618h-2.724l-4.006-.5394c-1.709-.5393-3.098-1.0786-4.807-1.6179-.337-.1408-1.255-.6652-1.603-.7191-.732-.114-1.945.8257-2.564 1.0786-2.038.8329-4.187 1.417-6.249 1.9775-3.626.9856-9.639 1.2764-13.781.8989-1.666-.1519-3.797-.5846-4.007-1.618.087-.291.141-.5929.161-.8988.074-.2562.182-.4986.32-.7191 5.844 2.0773 11.593 1.0445 16.826-.8989 1.254-.4658 3.445-1.3124 4.807-1.9775-1.737-.6713-3.514-1.4341-4.967-1.9776-2.477-.9258-5.132-1.4229-7.852-1.7977-5.925-.8166-8.317.9575-8.814.7191-.404-.2629-.239-.2979-.4-.8748-.079-.3346-.013-.0865-.241-.923 1.037-.5143 2.109-.9351 3.205-1.2584.867-.23965 1.522-.26176 2.724-.35956zm-76.5969 1.43816c-1.2265.0033-2.0363.0112-3.0447.1798-1.6648.2783-4.1093.2943-5.6086 1.0787.5686.4266.6612.8677.641 1.9775.9503.2767 1.3084.8933 2.4037 1.0787 1.8316-1.5623 5.7017-2.4809 8.1725-3.236 1.1192-.3416 2.8032-.5368 3.8459-.7191-1.9762-.1199-4.4337-.2396-6.4098-.3596zm118.1009.1798c-.521.057-2.167.1866-2.564.3596 3.112-.025 7.804 1.5563 10.256 2.6966.781.3633 1.387.8956 2.403 1.0787.508-.5173 1.616-.7999 1.763-1.2585-.131-.764.324-1.3679.641-1.9775-.268 0-1.816-.3596-2.083-.3596-1.508-.4981-7.379-.5454-10.416-.5393zm-80.4433.1798c-1.4967.3775-2.3396.601-3.3651.8989-1.8879.5479-2.742.7967-4.4869 1.4382-.9935.3653-2.4838.6247-3.3652 1.0786.1069 0 .5341.1798.641.1798.7567.6684 1.8749.0113 2.7242-.3595 1.8162-.793 3.4302-1.3543 5.4712-2.064 1.2085-.4204 7.1423-1.3147 8.3099-1.7113-.3205 0-5.6086.5393-5.9291.5393zm44.7083 0c1.162.805 3.704.7371 5.128 1.2584 2.247.8227 4.899 2.0903 6.825 2.8259.117-.1109.815-.4048 1.027-.8483-1.103-.146-2.102-.7344-3.045-1.0787-2.98-1.0894-6.408-2.0207-9.935-2.1573zm-74.1934.8989-4.3266.7191c-2.8901.905-5.8243 1.7325-8.3328 3.0562v.1797c1.2703.6073 5.0852 1.943 7.5315 2.6967 5.3735 1.6555 9.6854.5042 13.7811-1.4382 1.0559-.5007 2.2132-.6884 3.0447-1.4382-3.501-1.7825-6.6962-3.6964-11.6979-3.7753zm103.1974 0c-1.133.1904-2.377.6427-3.525 1.0786-1.888.717-3.867 1.7458-5.608 2.6967v.1797c1.034.1922 1.723.863 2.563 1.2585 2.08.9639 4.223 1.7453 6.41 2.337 3.147.8563 10.152-1.6055 12.179-2.5168 1.069-.4804 2.225-.5214 3.045-1.2584-4.267-2.0959-9.046-3.6766-15.064-3.7753zm-95.5056.1797c.1636.1439.0439.0639.3204.1798-.1636-.1438-.0439-.0638-.3204-.1798zm.4807.1798c.7461.6407 4.609 2.4421 5.7688 2.5169.2875-.3002.6602-.4227 1.1217-.5393v-.1798c-2.3235-.3112-4.2189-1.618-6.8905-1.7978zm85.7309.5394c-1.842.7324-1.377.3701-3.205 1.4382.107 0 .617.4373 1.443.5393 1.53-.4595 3.748-1.8736 5.288-2.3371v-.1798c-.267 0-3.259.5394-3.526.5394zm-113.4533-.3596c-2.0424.5904-6.7579 2.0911-8.3328 3.236 2.6181 1.4622 5.5592 2.7297 8.6533 3.2359-.4873-3.4182 2.2274-1.6956 3.8458-3.4157-.5211-.1293-.8956-.6206-1.2819-.7191-1.0618-.2708-1.6428.7565-2.5639-.8989-.2527-.4052-.1359-1.0247 0-1.4382zm144.5413 0c.187.5843.117 1.1887 0 1.7978-.374.2995-.749.5993-1.122.8988-1.112.3803-1.95-.9913-2.724.7191.489.1419.812.6127 1.122.7191.429.1483.735-.3178.961-.3595.503-.093.851.2517 1.282.3595.402.7074.819 1.2464.481 2.3371h.32c2.859-1.0155 6.035-1.8684 8.013-3.4157-1.576-.7946-1.968-.8705-2.885-1.2584zm-72.5912 1.618c-.3492.4081-.6042.4507-.8013 1.0786-.7345 1.1031.5436 2.457 1.4422 2.3371.9514-.1271 1.3724-1.1387 1.282-2.5168l-.9615-.8989zm-35.5745.8989-1.4422.7191v.1797c.6761.1167 1.2059.5394 1.6025.3596.5559-.1156.8962-.2023 1.1217-.7191-.6133-.0869-.8368-.2958-1.282-.5393zm71.9497 0c-.287.3002-.66.4226-1.121.5393v.3595c.107 0 .374.3596.48.3596.401.2765 1.68.1618 2.084-.7191-.636-.077-.984-.2943-1.443-.5393zm-103.0372 1.4382c-.4072.387-2.2492.9005-2.0832 1.6179.1463 1.1078-.4623 1.3023-.641 1.618 3.5289.7777 7.6437 1.3778 11.5376 1.0787 1.3193-.1014 2.7614-.1798 3.8459-.3596-2.6789-.0077-6.9033-1.7526-9.9352-2.8764-.8973-.3329-1.633-.866-2.7241-1.0786zm33.6515 0c-.2484.2567-.6208.3807-.9615.5393v.1798c1.8428.2419 3.6236 1.2001 5.2881 1.7977 1.5223.5462 2.6945.807 4.3266 1.2584.758.2097 4.6792.8615 5.4483.3596-5.3264-.6281-10.5874-3.1473-14.1015-4.1348zm66.3417 0c-1.514 1.4612-6 2.5057-8.173 3.2359-.997.3351-2.407.1167-3.205.7191 3.338.048 6.642-1.1818 9.295-2.1573 1.198-.4406 2.642-.4536 3.525-1.2584-.504-.2677-.707-.4674-1.442-.5393zm33.811 0c-1.981 1.1455-5.645 2.3164-8.012 3.0561-.881.2753-2.002.5645-4.166.8989 4.966.3718 1.487.1798 6.73.1798 1.659 0 6.864-.4293 8.333-1.0787-.172-.4785-.415-1.3948-.641-1.7977-.619-.6621-1.4-1.1006-2.244-1.2584zm-106.4023.1797c-.8073.8284-3.5945 2.0092-4.8074 2.3371v.1798h.8013c1.6893-1.1905 4.432-.6292 5.929-1.9775-.7914-.1259-1.0432-.4473-1.9229-.5394zm79.0013-.1797c-.288.3002-.981.6024-1.443.7191.164.1438.044.0638.321.1797.62.5428 6.935 2.5951 7.692 2.1573-1.499-.5513-4.964-2.4629-6.57-3.0561zm-84.2894 2.6966c.1636.1438.0439.0638.3205.1798-.1636-.1439-.0439-.0639-.3205-.1798z" fill="#000" fill-rule="evenodd"/></svg>