<svg fill="none" height="77" viewBox="0 0 63 77" width="63" xmlns="http://www.w3.org/2000/svg" xmlns:xlink="http://www.w3.org/1999/xlink"><clipPath id="a"><path d="m0 0h63v77h-63z"/></clipPath><g clip-path="url(#a)"><path clip-rule="evenodd" d="m15.0792.00002477c1.4059-.03628617 2.8562-.09532127 4.006.30535323 1.1473.39981 2.2462.734022 3.2501 1.323202 3.4072 1.99961 6.0393 5.37549 7.9364 9.41502.5336 1.1362 1.0658 2.4135 1.474 3.6643.1715.5256.2689 1.2461.529 1.6794v-.0509c.3357-.4865.5269-1.2122.7937-1.7812.4734-1.0095 1.0242-1.988 1.5495-2.9517.3462-.6352.7771-1.1967 1.1337-1.83216l.4158-.50892c.4097-.72949.9316-1.3828 1.4739-1.93391.5389-.54765 1.0264-1.24951 1.5873-1.78123 1.3782-1.30696 2.9485-2.27809 4.724-3.05353 2.3231-1.01454 5.8363-.67641 7.8986.35624 4.8957 2.45143 8.3336 6.8272 10.204 13.33381.7275 2.5303 1.3843 6.8854.6803 10.2293-.8311 3.9464-2.2049 6.5832-3.7793 9.466-3.3571 6.1467-8.3555 10.2915-13.114 14.5552-1.4202 1.2723-2.8227 2.6138-4.1949 3.9696-.7551.746-1.4422 1.6295-2.192 2.3919-.6062.6163-1.127 1.4662-1.6629 2.1884-2.2222 2.9934-3.8764 6.42-5.1775 10.6873-.498 1.6332-.7126 3.476-1.0582 5.2928-.1283.6744-.0651 1.4052-.2268 2.0357h-.0378v-1.7303c-.1273-.2601-.0233-.7715-.0755-1.1196-.0934-.6219.2418-2.4836.3779-3.1045.2387-1.0906.3378-2.1089.6425-3.1044.7892-2.5792 1.7114-4.8205 2.8344-6.9213.379-.709.8532-1.3339 1.2471-2.0357l.378-.4581c.4564-.804.9902-1.5228 1.5872-2.1374.3946-.4016.7-1.022 1.096-1.425 1.0185-1.0367 1.9494-2.1818 2.9856-3.2062 1.3243-1.3094 2.565-2.7987 3.8926-4.1223.2657-.2647.4929-.6504.7559-.9161.7592-.7672 1.4029-1.6781 2.1542-2.4428l.6802-.967c.4815-.4901.9218-1.1335 1.285-1.7812.4312-.7688 1.0415-1.4478 1.4739-2.2392 1.4009-2.565 2.5922-5.0421 3.2501-8.6517.0975-.5349-.0166-1.0452.0756-1.6286.0665-.42.0344-1.1016-.0378-1.5267-.0253-.3902-.0505-.7804-.0756-1.1706-.1957-1.0178-.3843-2.0167-.6424-2.9008-1.4592-4.9994-4.1107-8.3495-7.8987-10.2294-1.3378-.664-3.7002-1.1552-5.4043-.5089-3.4863 1.3228-5.8952 3.7355-7.7852 7.1758-.6717 1.2226-1.4533 2.4384-1.9652 3.8678h-.0756c-.074-.4798-.2851-.8753-.4157-1.2723-.422-1.282-.8954-2.3736-1.4361-3.4607-1.5134-3.0423-3.4748-5.4091-6.1224-6.9213-.55-.3142-1.0909-.4157-1.7007-.6616-1.4385-.5802-3.8699-.6894-5.4043-.1018-1.4804.567-2.8071 1.2026-3.9682 2.1884-.5858.4974-1.1149 1.1221-1.6629 1.6794l-.3401.5089c-.3939.5307-.7581 1.0135-1.09598 1.6286-.2218.4038-.51511.7899-.71806 1.2214-.6995 1.4874-1.21691 3.1491-1.66286 4.9875-.24377 1.005-.26327 2.1308-.45351 3.2062-.0126.3053-.0252.6107-.0378.916-.14826.9039-.19561 3.0422-.03779 3.9696.0126.3563.0252.7125.03779 1.0688.19891 1.1407.23114 2.2974.49131 3.3589.46004 1.877.95089 3.7241 1.66286 5.2927.27868.6141.55714 1.2831.86924 1.8831.1961.377.5279.7592.6425 1.2214h-.0756c-.3109-.5334-.8759-.9188-1.28497-1.3232-.8326-.8233-1.55451-1.8563-2.38092-2.6973l-.9826-1.3232c-.53065-.7148-1.09289-1.3725-1.54949-2.1884l-.45351-.6107c-.42611-.7642-.88019-1.5096-1.28495-2.2901-.88842-1.7133-1.58312-3.738-2.116373-5.9035-.155214-.6304-.170747-1.21-.30234-1.8831-.2160215-1.1048-.26428245-2.3638-.264547-3.766v-1.5268c.182122-1.0861.13148-2.2224.340132-3.2571.420554-2.0852.850748-3.994 1.511698-5.6999.49445-1.2959 1.06305-2.53804 1.70066-3.71513.25944-.47584.64557-.85769.90702-1.3232.22297-.39696.50147-.87275.79364-1.17052.55502-.56567 1.05566-1.24131 1.62507-1.78123 1.20067-1.13846 2.5522-1.9963 4.00598-2.79907.8816-.486788 1.8873-.636411 2.8722-.966956z" fill="#000" fill-rule="evenodd"/></g></svg>