<svg width="137" height="299" viewBox="0 0 137 299" fill="none" xmlns="http://www.w3.org/2000/svg">
<path fill-rule="evenodd" clip-rule="evenodd" d="M62.5363 45.5893C62.5579 47.9213 63.1487 50.2118 63.6089 52.2415C64.3137 55.3507 63.9869 58.1967 64.6814 61.3645C65.611 65.6066 66.1666 70.7683 66.2903 75.4292H66.469V75.0491C67.3628 74.0283 67.6751 72.4046 68.4354 71.2478C70.3605 68.3186 74.979 63.8464 79.5186 63.8354C79.8843 64.4513 80.0527 64.6017 80.0549 65.736C79.6335 66.2182 79.5325 66.8923 79.1611 67.4466C78.446 68.5126 73.8991 73.5332 72.9044 73.9087V74.0988H73.2619C74.4704 72.8677 77.3854 71.944 79.5186 72.3882C79.9011 73.0331 80.0645 73.2787 80.0549 74.4789C77.1191 77.3546 72.0403 79.2816 66.6478 79.4206C67.0053 83.9187 67.3628 88.4169 67.7204 92.9151C68.186 95.2002 67.6551 97.6809 68.0779 99.7574C68.4838 101.752 67.5952 105.757 68.4354 107.17C68.8705 103.896 74.2775 97.4336 77.5522 97.2865C77.5942 103.266 75.3454 107.708 72.9044 111.161C71.5637 113.057 68.4973 113.246 68.4354 116.293C68.9011 117.103 68.6142 119.296 68.6142 120.474V131.308C68.6142 132.483 68.326 134.683 68.7929 135.489C69.2756 131.68 72.896 127.865 75.0496 125.606C75.9192 124.694 76.9303 123.296 78.446 123.135C78.5823 123.628 78.6427 124.142 78.6248 124.656C78.0125 125.685 78.1779 127.283 77.731 128.457C76.8665 130.728 75.6815 132.801 74.5133 134.729H74.8708C75.554 133.621 77.3104 133.338 77.9097 132.258C78.0289 131.688 78.1481 131.118 78.2673 130.548C78.9537 128.595 79.4435 126.504 80.2336 124.466C82.4324 118.795 84.6322 112.979 87.2053 107.74C87.8902 106.346 88.2262 104.9 88.9929 103.559C90.768 100.453 92.3366 97.1565 94.177 94.0555C94.8995 92.8379 96.2043 91.6726 96.5009 90.0641C90.8009 85.9635 86.3818 73.8604 84.3451 65.5459C82.6532 58.6381 85.1694 51.0758 91.3168 51.1011C91.6102 49.9406 92.3558 49.2712 92.9257 48.4402C95.6191 44.5135 98.6818 44.9064 104.545 45.0191C106.461 41.921 112.895 42.14 116.343 43.6886C119.13 44.9402 121.796 47.3378 123.315 49.9607C124.34 51.73 124.488 54.4012 125.639 56.0427C128.425 60.0139 134.255 61.5322 135.828 66.6863C137.099 70.8487 135.039 75.8333 133.504 78.4702C132.881 79.5422 131.846 80.0858 131.717 81.7013C131.954 82.0978 131.896 82.9246 131.896 83.602C131.893 87.3964 130.22 89.6059 128.142 91.2045C123.175 95.0248 116.034 97.4519 107.763 94.8157C105.127 93.9758 102.402 93.119 100.076 91.9648C99.5348 91.6962 97.7522 90.8434 97.5734 91.0144C96.8293 91.6076 96.6657 92.4559 96.1434 93.2952C94.5826 95.804 93.2104 98.4134 91.6743 101.088C87.9182 107.628 84.9172 115.127 82.0212 122.565L79.1611 131.498H79.3398C79.6829 131.161 79.9004 131.137 80.5912 131.118C80.7101 131.485 80.7705 131.87 80.7699 132.258C79.8607 133.712 79.8121 135.755 78.9823 137.2C78.3745 138.257 77.1895 139.231 76.6584 140.241C75.6613 142.136 75.6563 145.379 75.0496 147.653C73.1876 154.633 71.6921 162.692 71.1168 170.651C70.7593 174.009 70.4018 177.367 70.0443 180.724C69.9778 181.941 69.5373 183.826 70.0443 184.716C70.1964 182.927 70.9983 181.266 71.4743 179.774C72.6474 176.095 73.5667 172.647 74.8708 169.321C75.9714 166.512 76.5994 163.882 77.731 161.148C81.487 152.074 85.9727 143.362 91.1381 135.109C93.4205 131.465 96.1768 128.142 98.646 124.656C99.6219 123.278 101.678 122.218 102.042 120.284C101.318 119.094 101.956 112.188 102.221 110.971C103.396 105.583 104.077 100.622 108.657 98.9971C110.651 98.2899 113.001 99.6342 114.198 99.3772C115.601 99.0762 117.694 98.4208 119.204 99.3772C119.969 99.8623 120.912 101.042 121.17 102.038C121.572 103.588 120.7 105.834 120.991 106.6C121.585 107.262 122.427 107.781 122.779 108.69C123.651 110.943 122.443 113.388 121.706 114.582C119.236 118.585 115.166 119.592 110.087 120.854L103.473 121.235C102.306 121.675 99.6063 125.074 98.8248 126.176C95.2317 131.249 91.5104 136.311 88.2779 141.761C80.1705 155.432 73.6617 172.801 69.508 190.418C69.4484 192.381 69.3888 194.345 69.3292 196.31C69.2696 199.033 69.21 201.758 69.1504 204.482H69.3292V204.102C70.1828 203.091 70.5003 201.561 71.1168 200.301C72.1858 198.117 73.7645 195.861 74.692 193.649C75.7428 191.142 75.9396 188.77 77.1947 186.616C77.81 185.562 78.6155 184.41 79.3398 183.385C80.2336 182.498 81.1274 181.611 82.0212 180.724C83.1117 179.134 83.8502 177.421 84.8814 175.783C85.3551 175.031 86.3887 174.199 86.669 173.312C86.8737 172.664 86.4534 169.036 86.3115 168.37C85.5888 164.989 86.6919 159.491 87.5628 157.537C88.1349 157.488 88.1333 157.348 88.4566 157.537C89.8596 158.05 89.7223 159.907 89.708 161.908C89.6854 165.054 88.8388 167.657 88.4566 170.461H88.6354V170.271C90.1059 168.767 91.1645 166.709 92.3894 164.949C93.2474 163.715 94.7351 162.705 95.2496 161.148C94.1268 159.313 94.626 151.508 95.0708 149.364C95.6225 148.994 95.6839 148.815 96.6796 148.794C97.0193 149.18 97.193 149.149 97.3947 149.744C98.36 151.034 97.1623 158.066 96.6796 159.437H96.8584C98.2776 157.16 100.416 154.912 102.221 152.975C103.133 151.997 104.599 151.34 104.724 149.554C103.796 148.116 103.505 139.969 105.081 139.291C105.842 138.707 106.661 139.363 106.869 140.051C107.94 141.478 106.802 147.328 106.333 148.604H106.512C107.261 147.497 108.519 146.581 109.55 145.753C111.186 144.439 112.544 142.506 114.198 141.191C115.255 140.351 117.115 139.548 117.595 138.15C117.19 137.516 117.416 135.712 117.416 134.729C117.416 131.785 117.027 128.426 119.919 128.457L120.276 129.027C121.436 130.555 119.717 135.929 119.204 137.2H119.382C121.017 134.977 125.484 133.076 127.784 131.308L130.644 128.267C131.553 127.665 133.485 126.897 134.577 127.697C135.334 127.964 135.329 128.327 135.292 129.407C135.149 129.601 135.229 129.459 135.113 129.787C134.055 130.122 132.997 130.926 131.896 131.308L128.32 132.068C127.518 132.412 126.93 133.253 125.996 133.589V133.779H126.89C127.892 133.027 132.146 133.093 132.611 134.159V135.679C131.198 136.688 129.639 137.872 127.069 137.2C126.166 136.964 123.401 135.55 122.958 135.869C119.926 137.479 117.239 140.202 114.556 142.332C113.742 142.978 113.196 143.881 112.232 144.422V144.612H113.126C114.418 143.633 119.883 143.821 120.455 145.183V147.083C120.312 147.277 120.391 147.135 120.276 147.463C117.078 149.504 113.254 147.086 110.087 146.513C109.309 147.682 107.951 148.684 106.869 149.554C105.367 150.76 103.902 152.697 102.758 154.306C101.781 155.68 100.283 156.62 99.3611 158.107H100.255C101.083 157.511 102.313 157.818 103.473 157.537C105.046 157.155 109.924 155.982 111.338 156.966C112.174 157.236 112.422 157.668 112.411 158.867C112.268 159.061 112.347 158.919 112.232 159.247C111.207 159.945 109.962 160.754 108.657 161.148C104.721 162.336 100.943 160.125 97.7522 159.817C96.0624 162.871 93.2398 165.118 91.4956 168.18H91.8531C92.8524 167.213 99.1466 165.065 100.791 164.569C102.492 164.056 104.235 164.322 104.545 165.899C104.402 166.094 104.482 165.952 104.366 166.28C101.499 168.14 97.0849 169.528 92.7469 169.701C92.8879 175.884 91.1272 180.356 88.9929 184.146H89.1717C90.6018 182.262 93.2696 181.272 95.2496 179.964C99.4537 177.186 103.443 175.216 109.014 173.692C110.58 173.264 114.093 172.787 116.165 173.312C117.564 173.666 119.103 174.123 120.455 174.452C120.549 174.695 120.609 174.951 120.634 175.213C118.2 176.666 115.519 177.78 112.411 178.634C111.338 178.697 110.265 178.76 109.193 178.824C108.777 178.923 107.741 179.174 107.048 179.014C106.202 178.818 104.962 178.896 104.009 178.634C103.249 178.425 101.928 177.694 101.149 177.683C100.193 177.671 98.7134 179.145 97.931 179.584C94.8486 181.31 92.2106 183.235 89.5292 185.286C88.8401 185.812 88.0718 186.099 87.5628 186.806H87.7416C88.481 186.174 89.3739 186.213 90.423 185.856C95.1616 184.241 99.8015 184.904 104.366 186.046V186.997C102.992 187.373 101.859 188.352 100.612 188.897C98.8173 189.682 96.702 189.939 94.7133 190.418C92.8517 190.866 88.6583 190.465 87.2053 190.038C86.5662 189.849 85.1104 189.015 84.7027 189.277C81.6249 191.44 78.8572 195.099 76.8372 198.4H77.0159C79.0349 196.675 86.1658 196.015 89.5292 196.88C91.0614 197.273 93.1264 196.944 93.4619 198.59C91.8547 199.379 90.1842 200.444 88.4566 201.061C86.7763 201.662 84.8698 201.778 83.0938 202.202C81.1171 202.673 78.0737 202.285 76.4797 201.821C75.921 201.658 74.6711 201.035 74.3345 201.251C73.4986 201.875 69.479 208.272 69.1504 209.424C69.3292 214.238 69.508 219.053 69.6867 223.869C69.7582 227.486 69.8868 231.901 70.5805 235.273C71.2105 238.335 70.8844 241.44 71.4743 244.206C72.2457 247.817 71.9191 251.187 72.7257 254.659C73.2578 256.949 73.3513 259.483 73.977 261.882C74.4176 263.567 74.9748 265.348 75.0496 267.393H74.1558V267.013C73.4252 265.854 73.6454 263.967 73.2619 262.452C72.3873 258.995 72.3324 255.207 71.4743 251.428C70.6898 247.977 70.6324 243.77 69.8655 240.214C69.8059 239.011 69.7463 237.807 69.6867 236.603C69.1217 233.914 69.5859 230.829 68.9717 227.86C68.0085 223.204 68.277 217.009 68.2566 211.705H68.0779V211.895C66.4746 213.788 64.3691 221.1 63.6089 224.059C63.0415 226.267 63.5107 228.947 63.0726 231.091C62.9534 235.083 62.8342 239.074 62.715 243.065C62.3983 244.595 62.7192 246.456 62.3575 248.197C61.7617 254.279 61.1658 260.361 60.5699 266.443C59.8549 271.257 59.1398 276.072 58.4248 280.888C57.0108 286.77 55.7046 292.835 54.492 298.564C54.2637 298.664 54.0228 298.728 53.777 298.754C53.6052 298.417 53.5523 298.435 53.4195 297.994C54.422 296.405 54.3045 293.945 54.8496 291.912C55.9963 287.635 56.4109 283.039 57.531 278.417C58.7335 273.453 58.884 267.652 60.0336 262.452C60.5274 260.219 60.3055 257.848 60.7487 255.8C60.9274 252.886 61.1062 249.972 61.285 247.057C61.9085 244.054 61.7233 240.161 62 236.983V232.042C62.2944 230.609 62.591 223.01 62.1788 221.398C61.6425 219.625 61.1062 217.851 60.5699 216.076H60.3912V217.407C59.7094 218.583 60.0233 220.467 59.6761 221.968C58.7535 225.96 58.8345 230.285 57.8885 234.512C56.9126 238.872 56.8892 243.974 55.9221 248.387C55.803 249.97 55.6838 251.554 55.5646 253.139C54.9127 256.183 54.9665 259.935 54.3133 263.022V264.923C53.4195 269.167 53.1011 274.297 53.0619 278.987C52.6882 279.2 52.7345 279.259 52.1681 279.367C52.003 278.86 51.9803 278.05 51.9894 277.277C52.6448 270.244 53.3003 263.212 53.9558 256.18C54.9416 251.58 54.747 246.27 55.7434 241.735L56.1009 237.363C57.2973 231.876 57.3022 226.017 58.6035 220.448C58.9017 219.172 60.115 214.911 59.6761 213.415C58.9709 211.013 57.4543 208.426 56.2796 206.383C55.1774 204.467 52.9011 198.923 51.0956 198.21C50.3269 198.866 49.2234 198.695 48.0566 198.971C43.62 200.02 38.7285 198.704 35.5434 197.26C34.3635 196.726 32.5082 196.564 32.3257 194.979C32.3852 194.916 32.4449 194.852 32.5044 194.789C35.1354 194.392 38.516 192.795 42.1575 193.649C44.429 194.181 46.6964 195.012 48.7717 195.359V195.169C47.6882 194.373 47.3999 193.075 46.6265 191.938C46.0037 191.022 41.6293 186.58 40.7274 186.236C37.4972 189.013 27.8711 187.048 24.8177 185.666C23.6486 185.138 21.5421 184.798 21.2425 183.385C25.7147 180.717 34.0954 181.922 38.2248 183.956C36.376 181.498 31.8062 179.242 29.108 177.493C27.9256 176.727 26.2022 175.177 24.8177 174.832L20.3487 175.973C16.4376 176.912 10.8354 175.104 8.55044 174.072C7.38295 173.545 5.38279 173.29 5.15398 171.791C7.97036 170.103 13.8965 169.763 17.6673 170.841C22.8245 172.316 27.4971 174.742 31.6106 177.493C33.2835 178.613 34.8326 180.122 36.6159 181.105C35.9059 179.516 34.9434 177.854 34.292 176.163C33.9941 174.959 33.6962 173.755 33.3982 172.552C32.5836 172.184 31.3875 171.772 31.0743 170.841C31.39 170.658 31.3747 170.602 31.7894 170.461C32.1281 170.172 32.4311 170.121 33.0407 170.081V166.66C33.269 166.56 33.5099 166.495 33.7558 166.47C35.4477 169.29 36.8748 169.404 41.2637 169.321C41.8821 169.724 42.7591 169.466 43.5876 169.701L47.5204 171.031V170.841C46.66 169.963 46.2735 168.852 45.554 167.8C44.8389 166.755 40.5472 162.299 39.4761 161.908C36.2774 164.664 26.7821 162.711 23.7451 161.338C22.4393 160.748 20.3694 160.619 20.1699 158.867L20.3487 158.677C21.8905 158.442 23.5891 157.906 25.1752 157.537C29.4392 156.543 33.9595 158.642 36.7947 159.437V159.247C35.6819 158.567 34.7718 157.537 33.7558 156.776C31.2097 154.873 28.5642 153.411 25.7115 151.835C25.1395 151.519 24.1854 150.633 23.5664 150.504C23.0451 150.396 19.9018 151.448 19.0973 151.645C15.2719 152.579 9.2696 150.659 7.12035 149.554C5.98432 148.97 4.37422 148.941 4.08141 147.463C6.90351 145.77 12.9805 145.384 16.7734 146.513C24.127 148.702 29.5699 153.011 35.3646 156.776V156.396C33.0586 153.929 31.8346 147.447 31.7894 142.522C32.1632 142.309 32.1169 142.249 32.6832 142.142C33.434 143.371 34.7445 144.19 35.5434 145.373C38.2586 149.39 40.1284 154.148 40.1912 160.958C41.6355 161.866 42.5655 163.4 43.9451 164.379C42.7396 161.488 42.1881 158.105 42.1575 153.925C42.4711 153.806 42.3311 153.889 42.515 153.735C42.8286 153.855 42.6886 153.772 42.8726 153.925C46.0021 155.188 49.2316 163.34 50.2018 167.42C50.4974 168.663 50.1594 171.519 50.5593 172.552C50.7917 173.152 51.6408 173.736 51.9894 174.262C53.4456 176.461 54.7991 178.839 56.1009 181.105C57.3392 183.26 58.3958 185.864 59.3186 188.137C59.6777 189.023 59.6915 189.927 60.2124 190.608C60.0233 185.668 58.6929 178.828 57.531 174.452C56.2557 169.651 55.9221 165.13 54.492 160.578L50.2018 146.893C48.8221 143.358 47.1441 139.652 45.7327 136.25C44.0447 132.18 42.2796 128.427 40.1912 124.846C39.5415 123.732 39.1722 121.605 37.8673 121.235C36.4872 122.603 33.7736 122.835 31.7894 123.515C22.48 126.705 10.6341 125.462 5.86902 118.384C4.95216 117.022 4.46986 115.372 4.08141 113.442C4.20059 112.111 4.31976 110.781 4.43893 109.451L3.54513 108.5C2.44557 106.605 -0.201167 100.623 0.506191 97.2865C1.81687 91.1041 5.83452 90.9707 9.26548 87.4032L12.4832 83.9821C13.1088 82.6879 12.9076 81.325 13.5557 80.1808C15.5194 76.7146 17.9409 74.707 21.9575 73.3385C23.3383 72.8677 25.8416 71.9197 27.8566 72.3882C29.3237 72.7303 30.8841 72.9407 31.9681 73.7187L33.0407 75.0491H38.2248C38.5406 75.2625 38.9731 75.0972 39.4761 75.2392C40.5925 75.5541 42 76.091 42.8726 76.7597C43.9237 77.5652 45.0595 79.1714 45.7327 80.3709C45.8519 80.8144 45.9711 81.2578 46.0903 81.7013H46.8053C47.3516 82.075 48.1306 81.9674 48.7717 82.2715C50.0799 82.8938 51.582 84.6853 52.1681 86.0728C53.3338 88.8333 53.0911 92.9103 52.3469 95.9561C50.6176 103.033 48.7856 108.661 45.3752 113.822C44.6591 114.905 42.5379 117.824 41.6212 118.574C40.7971 119.248 39.57 119.811 39.2973 121.044C40.1912 121.856 40.4486 123.169 41.085 124.276C42.7832 127.229 44.1659 130.352 45.7327 133.589C50.1394 142.691 53.2355 152.88 56.4584 163.429L59.3186 176.543C60.0932 181.675 60.8678 186.806 61.6425 191.938C62.0872 193.995 61.381 197.148 62.3575 198.78C63.1322 193.713 63.9068 188.645 64.6814 183.575C65.4054 180.295 65.0876 176.841 65.754 173.692V171.601C66.2009 169.461 65.7913 166.978 66.2903 164.569C66.6528 162.819 66.2331 160.684 66.6478 158.677C67.3761 155.152 67.1653 150.823 67.1841 146.893C59.0125 146.986 51.0893 139.492 49.4867 132.828C50.3582 132.339 52.0269 132.425 53.4195 132.448C53.8664 132.752 54.4245 132.618 55.0283 132.828C56.1232 133.209 57.2526 133.838 58.246 134.349V133.969C57.0617 132.33 56.649 127.352 56.6372 124.466C56.9234 124.351 57.2253 124.287 57.531 124.276C58.1414 125.11 59.2321 125.537 60.0336 126.176C63.0238 128.561 66.4249 134.006 67.3628 138.53H67.5416V127.317C68.2354 126.163 67.5988 120.804 67.5416 119.334C60.5485 118.492 52.0225 111.849 51.9894 103.749C52.3344 103.622 52.697 103.558 53.0619 103.559C53.6072 103.932 54.3807 103.838 55.0283 104.129C55.7157 104.438 56.524 105.051 57.1735 105.459V104.889C55.4767 102.547 55.5698 96.9214 55.5646 92.725C55.8508 92.6103 56.1527 92.5461 56.4584 92.535C57.5406 94.0632 59.4822 94.9775 60.5699 96.5263C61.5828 97.9685 62.5563 99.5616 63.4301 101.088C64.735 103.369 65.579 106.308 66.469 108.88C66.8319 109.929 66.7908 111.274 67.3628 112.111C67.8385 101.557 66.143 90.6012 65.9327 80.3709H65.754C64.5434 81.5732 60.8436 82.1343 58.6035 81.5113C55.2393 80.5758 49.4688 76.5825 48.9504 72.9584C49.6884 72.5418 50.9386 72.5547 52.1681 72.5783C52.9597 72.0231 54.5635 72.5308 55.5646 72.5783V72.3882C54.2101 70.859 52.1363 65.7529 51.9894 63.0751C52.2756 62.9604 52.5775 62.8962 52.8832 62.885C53.7834 63.6289 55.1097 63.7635 56.1009 64.4055C59.271 66.4582 64.1896 70.5332 65.2177 74.669H65.3965V73.9087C64.4707 72.2645 64.9721 67.9172 64.5027 65.736C63.6089 59.7179 62.715 53.6993 61.8212 47.68C55.5825 48.5504 52.772 44.6346 50.2018 41.0277C49.3258 39.799 47.1117 39.3563 46.9841 37.4165C51.5546 37.3574 55.6638 39.4911 58.4248 41.5979C59.4006 42.3426 60.1037 43.5305 61.1062 44.2588V43.4986L58.0673 29.2438C49.2406 29.1069 49.0557 19.6503 44.4814 14.989C44.5942 14.6556 44.5159 14.8045 44.6602 14.6089C44.9222 14.129 44.7388 14.3154 45.3752 14.2288C47.5795 16.0114 52.4472 17.3357 53.4195 20.3108H53.5982V19.3605C53.1722 18.6329 53.1958 15.5176 53.4195 14.4188C54.2296 10.4391 53.5578 5.0677 53.4195 1.11438C53.7057 0.999665 54.0076 0.935464 54.3133 0.924316C55.2132 3.0076 56.504 5.0487 57.3522 7.19641C58.5034 10.1108 58.7945 13.3049 59.4973 16.6996C60.2399 20.2857 58.9952 24.2436 58.6035 26.773C59.4973 30.8276 60.3912 34.8823 61.285 38.937C61.7152 34.6462 64.5502 31.133 67.1841 29.0537C68.0421 28.376 68.4291 27.4686 69.8655 27.3431C69.9783 27.6765 69.9 27.5277 70.0443 27.7233C69.8231 28.6846 69.2302 29.4778 68.9717 30.3842L68.4354 35.1358C68.1367 36.3465 67.5212 37.4878 67.1841 38.5569H67.3628C68.3489 37.5556 71.5353 35.8126 73.2619 35.7059C73.3562 35.9487 73.4164 36.2048 73.4407 36.4662C72.7287 37.2629 72.4457 38.4062 71.8319 39.3172C70.0224 42.002 66.6442 45.4843 62.5363 45.5893ZM54.8496 4.53552C54.7664 11.3622 53.1642 23.0051 57.1735 25.8226V25.2525C57.0304 25.0584 57.11 25.2004 56.9947 24.8723L57.3522 24.4922L58.0673 24.6823C58.8493 18.5478 58.159 13.3735 56.4584 8.52686C55.9618 7.11165 55.7453 5.51796 54.8496 4.53552ZM57.7097 28.1034V27.5332C55.5902 26.1916 55.1644 24.3111 53.777 22.2114C52.4572 20.2139 49.062 16.8283 46.6265 16.1294V16.3195C50.3871 20.3659 50.3355 27.8398 57.7097 28.1034ZM68.0779 29.4338C67.488 30.3631 66.3782 30.8316 65.754 31.7146C63.591 34.7746 62.0252 37.7016 62 43.1184H62.1788C64.1167 40.9289 66.1996 39.1337 67.1841 35.896C67.3032 34.819 67.4224 33.742 67.5416 32.6649C67.705 31.9309 68.3062 29.8415 68.0779 29.4338ZM71.2956 37.4165C70.6086 38.0863 69.6265 38.2064 68.7929 38.747C66.6759 40.1198 64.0415 42.0554 62.8938 44.4489H63.4301C64.6244 43.5634 66.2188 43.4151 67.3628 42.5482C69.0968 41.2343 70.0201 38.9678 71.6531 37.6066C71.4706 37.4545 71.6041 37.5391 71.2956 37.4165ZM49.6655 38.937L52.7044 41.978C54.752 44.8575 56.4227 46.7513 61.285 46.7296V46.5396L59.1398 43.6886C56.6987 41.6876 53.5267 39.2691 49.6655 38.937ZM109.014 43.6886C107.961 44.3918 106.679 44.1448 105.975 45.2091L105.796 45.3992C107.519 45.6392 109.169 46.2889 110.623 47.2998C111.608 47.9977 111.647 48.9047 113.304 49.0104C113.966 48.5478 116.02 48.826 116.701 49.0104C120.507 50.0407 120.741 51.1176 123.315 53.0017V52.4315C122.458 51.4601 122.096 49.89 121.349 48.8203C119.024 45.4942 114.455 43.6818 109.014 43.6886ZM100.97 45.5893L97.3947 46.1594C95.4104 46.8627 93.5871 48.5923 92.5681 50.3408C87.9611 58.2475 91.2214 71.7741 93.8195 79.2305C94.6001 81.471 95.2149 85.1605 96.5009 86.833V86.2628C95.5874 84.8539 95.854 82.4426 95.4283 80.5609C94.32 75.6626 94.5572 69.4791 94.5345 63.4552H94.892V71.0578C95.3139 71.8157 94.8563 73.2509 95.0708 74.2888C95.6346 77.0092 95.4013 82.6543 96.6796 84.5523C96.4367 71.8602 99.7997 61.0414 104.903 53.762C105.712 52.6075 107.314 51.2891 108.478 50.5309C109.293 49.9999 110.517 50.1033 110.981 49.2005C109.732 48.3212 108.856 47.0366 106.869 46.9197L103.83 47.87C101.54 48.9224 99.2956 51.1155 97.931 53.1918C96.9896 54.6241 96.1457 56.5761 95.6071 58.3235C95.2985 59.3246 95.4845 60.6746 94.7133 61.1745V59.844C95.1793 59.1332 95.0965 58.0496 95.4283 57.1831C96.34 54.803 97.9027 51.6184 99.7186 50.1508C100.956 49.151 102.356 47.9742 103.83 47.2998C104.595 46.9499 105.726 47.0546 106.154 46.3495H105.439C104.493 45.6767 102.29 45.743 100.97 45.5893ZM113.126 49.7706C112.596 50.1677 111.83 50.0466 111.159 50.3408C109.863 50.9097 108.501 51.9374 107.405 52.8117C106.278 53.7114 105.545 55.1738 104.724 56.4229C102.134 60.3627 100.571 65.1607 99.1823 70.4876L98.646 74.2888C98.0002 76.9752 97.7522 80.0702 97.7522 83.4119C97.7522 84.4656 97.5245 86.3151 97.931 87.0231C98.1255 84.9617 98.991 82.8942 99.5398 81.1311C100.898 76.769 101.887 72.6134 103.651 68.777H104.009V69.3472C102.778 71.061 102.442 73.6375 101.685 75.8094C100.274 79.8558 98.5545 84.4852 97.931 89.1138L98.1097 89.3039C108.782 84.1721 119.099 79.5648 124.924 69.3472C126.065 67.3456 127.996 61.5947 126.533 58.7036C126.074 57.797 124.965 57.0588 124.388 56.2328C123.719 55.2757 123.487 54.126 122.064 53.952C120.249 52.7026 116.574 54.2029 115.271 54.9024C109.976 57.7434 107.048 62.2217 104.545 68.0167L104.366 67.8267C104.223 67.6326 104.303 67.7746 104.188 67.4466C105.078 66.2364 105.383 64.5846 106.154 63.2652C108.351 59.5053 111.095 56.6101 114.913 54.5222C116.453 53.6801 119.552 52.4886 122.064 53.3819V53.0017C119.068 50.9871 118.332 49.7838 113.126 49.7706ZM89.8867 52.2415C88.6088 53.1739 87.3304 53.3353 86.4903 54.7123C85.348 56.5844 84.5541 60.8358 85.2389 63.8354C86.6994 70.2312 88.2993 76.2655 91.1381 81.1311C92.0467 82.6887 92.6575 84.6165 93.9982 85.6927C92.6252 82.4371 90.8545 79.2153 89.5292 75.8094C88.7223 73.7356 88.5639 71.8051 87.9204 69.5373C87.3784 67.625 86.3473 63.6263 87.0266 61.3645L87.2053 61.5546C87.7774 62.5935 87.2745 64.4312 87.5628 65.736L88.8142 71.818C89.8879 75.2476 91.1411 78.6106 92.5681 81.8914C93.207 83.3648 94.4255 84.7804 94.892 86.4529H95.0708C94.2614 82.8459 92.4402 79.1891 91.3168 75.6193C90.5435 73.162 90.514 70.9013 89.8867 68.2068C89.4361 66.2708 88.787 61.3246 89.3504 58.7036C89.8281 56.4826 90.349 54.2371 90.7805 52.2415H89.8867ZM127.248 59.4639C127.498 72.7919 118.813 78.4174 110.802 83.602C107.946 85.45 104.463 87.767 100.97 88.7337V88.9237H101.506C102.728 88.1065 104.68 88.2642 106.154 87.7834L114.556 84.9324C117.32 83.6856 120.282 82.2345 122.779 80.5609C124.105 79.6724 125.373 77.8811 127.069 77.5199V77.9001C125.672 78.7405 124.477 80.0387 123.136 80.9411C120.108 82.9801 116.564 84.5713 113.126 86.0728L104.724 88.7337C103.361 89.1421 101.5 88.9047 100.434 89.684C114.069 89.9427 126.658 86.9212 132.074 78.2802C133.878 75.403 137.681 67.8368 133.326 64.5956L133.147 64.4055V64.9757C133.434 65.4298 133.504 67.4276 133.326 68.2068C132.777 70.5908 130.757 75.9781 128.678 76.3795V75.9994C130.666 74.6104 134.518 67.2097 132.432 63.4552L127.248 59.4639ZM117.595 61.7447C118.015 62.3194 115.779 65.2652 115.092 66.1161C112.399 69.4413 109.892 72.9318 107.584 76.5696C106.902 77.653 105.55 80.8527 104.366 81.1311V80.751C106.027 79.3343 107.539 75.6763 108.835 73.7187C111.554 69.6133 114.999 65.926 117.595 61.7447ZM53.4195 64.4055C54.0534 70.0426 59.4739 78.468 65.3965 78.4702V78.0901C64.4406 76.6357 64.2942 74.6338 63.4301 73.1485C61.2015 69.3177 57.5601 66.2018 53.4195 64.4055ZM78.8035 64.9757C72.6899 65.2289 68.7318 72.5023 66.8266 77.5199H67.0053C67.7579 76.7144 68.8108 76.3016 69.6867 75.6193C71.9538 73.8517 74.4239 71.3604 76.1221 68.9671C77.0159 67.7066 78.5111 66.8895 78.8035 64.9757ZM26.069 73.3385C25.0084 74.0188 22.4622 73.9467 21.2425 74.4789C17.8331 75.9665 15.4426 78.7639 13.9133 82.2715H14.092C15.3378 80.3388 18.2856 78.9218 20.7062 78.2802C22.1243 77.9042 24.778 78.843 25.354 78.4702C26.5914 77.6828 27.6335 76.5926 29.108 75.9994C29.9124 75.6763 31.3587 75.7713 31.7894 75.0491C30.2191 74.0669 28.6468 73.3667 26.069 73.3385ZM77.1947 73.3385C76.0506 74.1697 74.4554 74.3603 73.2619 75.0491C71.871 75.8519 70.5723 77.1446 68.9717 77.71V77.9001H69.3292C71.7107 76.3241 77.9775 76.4706 78.9823 73.5286L78.8035 73.3385H77.1947ZM51.4531 73.5286C51.1996 73.7112 50.868 73.7141 50.3805 73.7187V73.9087C51.03 74.4054 51.2704 75.2048 51.8106 75.8094C53.6964 77.9191 55.5406 79.2406 58.6035 80.1808C59.3919 80.4228 60.941 80.8689 62.1788 80.5609L64.6814 79.8007V79.6106C62.3976 79.3293 60.2631 78.2613 58.6035 76.5696C57.8956 75.8331 57.1958 74.3459 56.2796 73.9087C55.056 73.3237 53.1324 73.5451 51.4531 73.5286ZM34.292 75.9994C33.7786 76.3531 32.3217 76.3628 31.6106 76.3795V76.5696H31.7894L35.5434 78.4702C38.9177 80.9709 42.2968 85.873 42.3363 91.7747H42.1575V91.5846C41.2382 90.3903 41.3123 87.6984 40.7274 86.2628C39.2882 82.7311 34.6202 76.8 30.1805 76.7597C29.0543 76.7494 27.411 78.2935 26.6053 78.8504V79.2305C27.8761 79.6051 28.5572 80.4298 29.4655 81.1311C35.5255 85.8116 36.979 94.4409 38.9398 103.559C39.1186 105.966 39.2973 108.374 39.4761 110.781C39.4843 111.914 39.201 114.002 39.6549 114.772C40.1316 112.302 40.6083 109.831 41.085 107.36C41.9587 103.447 41.9262 98.2713 41.9788 93.8654H42.3363V99.3772C41.6484 100.606 42.1543 104.002 41.8 105.649C41.3477 107.751 41.2995 110.121 40.7274 112.302C40.3242 113.839 39.7067 115.562 39.4761 117.243H39.6549V116.863C41.0935 115.108 41.6177 112.085 42.515 109.831C45.7903 101.603 49.6397 87.3008 43.5876 78.8504C41.9326 76.5396 38.1397 75.9631 34.292 75.9994ZM20.885 79.2305C20.4381 79.5318 19.866 79.3786 19.2761 79.6106C17.9788 80.1202 16.2415 81.2933 15.5221 82.4616C23.3463 82.3888 26.8456 86.8901 29.823 91.9648C30.8201 93.6641 32.3257 95.5634 32.5044 98.0468H32.1469V97.6667C31.2451 96.5753 31.0858 94.7528 30.3593 93.4853C28.1369 89.608 25.6817 86.4961 21.7788 84.3622C20.8313 83.8443 16.7456 82.0415 14.9858 83.2218C14.0792 83.5573 13.9565 84.2849 13.377 84.9324C10.85 87.7562 9.87917 88.0268 10.1593 93.4853H9.80177V92.535C9.19237 91.5734 9.78586 89.2594 9.98053 88.3535H9.80177C7.22493 91.0334 3.56461 91.635 2.11504 95.1958C0.830463 98.3509 2.02727 102.361 3.00885 104.699C5.99934 111.822 11.3826 114.533 18.7398 117.053C22.6788 118.413 26.7625 119.243 30.8956 119.524C32.0498 119.597 34.577 120.376 35.5434 119.714C33.008 119.606 30.4465 118.445 28.3929 117.623C23.1343 115.519 18.6567 113.767 14.4496 110.781C12.8863 109.672 9.90902 108.389 9.26548 106.41H9.80177C10.965 108.199 13.0865 109.186 14.8071 110.401C20.4332 114.375 27.3797 117.321 35.0071 119.144C33.1144 117.28 29.9144 116.602 27.6779 115.153C21.7251 111.296 16.3398 107.199 12.6619 100.898C11.5602 99.01 10.1691 96.8811 9.98053 94.0555H10.338V94.4356C10.8582 95.2183 10.8554 96.3602 11.2319 97.2865C11.8495 98.807 12.8377 100.491 13.7345 101.848C17.5259 107.586 23.3715 111.246 29.108 114.962C31.1047 116.256 33.1596 117.39 35.3646 118.574C36.0005 118.916 37.1143 119.755 37.6885 119.524C38.1295 119.278 37.8102 119.606 38.046 119.144C37.0594 117.569 37.0147 113.948 36.4372 111.921C35.6722 109.238 35.1431 106.475 34.292 103.749C33.7949 102.156 32.8729 100.659 32.6832 98.807H33.0407V98.9971C33.5083 99.5806 33.4422 100.277 33.7558 101.088C35.2082 104.846 36.1592 109.313 37.331 113.442C37.7064 114.762 37.543 116.582 38.2248 117.623C38.3519 115.2 38.9427 110.723 38.4035 108.12C38.1056 105.713 37.8077 103.305 37.5097 100.898C35.1102 90.9004 32.7041 79.0952 20.885 79.2305ZM120.991 90.6343C125.187 90.1726 130.785 86.8961 130.823 82.0815H130.644C127.476 86.6688 118.326 88.4716 112.053 90.0641C110.124 90.5539 104.354 90.1643 103.115 91.0144C108.209 91.0553 114.633 91.9017 119.382 90.8244V91.3946H119.025C117.842 92.2447 115.162 91.9648 113.304 91.9648C108.706 91.9636 104.183 91.2425 100.076 91.0144V91.2045H100.434C101.995 92.535 104.53 92.6165 106.69 93.2952C114.898 95.8734 123.379 94.7661 128.142 89.684C129.25 88.5007 130.385 87.1942 130.644 85.1225H130.465V85.5026L128.857 87.5933C126.685 89.3442 124.166 90.5024 120.991 91.2045V90.6343ZM46.6265 82.8417C46.9083 84.1651 47.2359 85.6619 47.5204 87.0231C48.0295 89.4597 47.7996 92.8508 47.3416 95.0058C46.4376 99.2596 46.3995 102.811 45.0177 106.41C44.1158 108.758 43.3195 111.23 42.3363 113.632C41.9133 114.666 41.2163 115.685 40.9062 116.863H41.085V116.673C42.0537 115.547 42.455 114.031 43.2301 112.682C45.3034 109.03 46.9825 105.14 48.2354 101.088L49.4867 95.0058C49.7404 93.8409 49.2125 92.8812 50.023 92.3449V94.6256C49.6505 95.2876 49.88 96.211 49.6655 97.0965L48.0566 103.369C46.3323 107.839 44.1339 111.848 42.1575 115.913H42.3363C43.5504 113.681 45.3348 111.691 46.6265 109.451C49.0513 105.246 50.3101 100.147 51.6319 94.8157C52.5934 90.9373 51.464 85.5089 49.4867 83.9821C48.7322 83.3994 47.6784 83.0698 46.6265 82.8417ZM19.0973 91.2045C20.6579 91.8562 21.5655 94.5477 22.4938 95.9561C24.8713 99.5625 27.2093 103.121 29.4655 106.98C30.2393 108.303 31.355 109.48 31.7894 111.161H31.2531C30.7633 109.206 29.1918 107.402 28.2142 105.839C26.2896 102.764 24.6502 99.7095 22.6726 96.7163C21.6159 95.117 19.5037 93.3015 19.0973 91.2045ZM56.4584 94.0555C56.5669 96.2982 56.4598 99.4571 56.9947 101.468C58.6638 107.744 62.761 114.502 67.3628 117.623V117.243L65.5752 109.451C63.7456 103.617 60.9925 97.0522 56.4584 94.0555ZM76.3009 98.807C75.6804 99.4464 74.8615 99.7693 74.1558 100.328C70.9559 102.859 68.4449 107.364 68.4354 113.252H68.7929C69.6235 112.157 71.2062 111.726 72.0106 110.591C73.533 108.443 74.4373 106.4 75.4071 103.559C75.7419 102.578 76.8343 99.8524 76.3009 98.807ZM109.729 99.9474C109.068 100.439 108.075 100.416 107.405 100.898C104.292 103.134 104.077 107.262 103.115 111.921C102.883 113.051 102.295 116.148 102.936 117.243C102.847 112.4 104.679 108.236 106.512 105.269C107.164 104.213 107.636 102.671 108.835 102.228L109.014 102.418C106.573 106.502 103.603 110.212 103.473 116.863H103.651V116.483C104.387 115.579 104.542 114.178 105.081 113.062C106.837 109.429 109.655 102.278 112.768 100.328V100.137H112.053C111.61 99.825 110.462 99.924 109.729 99.9474ZM115.45 99.9474C114.834 100.469 113.917 100.581 113.304 101.088C112.429 101.811 111.818 103.152 111.159 104.129C108.247 108.443 106.103 113.25 104.009 118.574H104.188V118.384C106.576 115.898 109.249 111.355 111.159 108.31C111.921 107.097 112.776 104.346 114.198 103.939V104.319C112.642 105.98 111.685 108.42 110.444 110.401C109.115 112.524 107.412 114.464 106.154 116.673H106.333V116.483L110.981 111.541C112.566 110.268 114.003 108.99 115.628 107.74C116.545 107.035 117.251 106.026 118.488 105.649V106.22C116.755 106.809 115.538 108.58 114.198 109.641C111.431 111.831 108.587 114.321 106.512 117.243L104.366 119.524H104.545C105.674 118.42 107.327 117.943 108.657 117.053C111.661 115.042 117.25 111.415 119.204 108.5C120.756 106.183 120.965 101.563 118.131 100.518C117.517 99.9891 116.592 99.9284 115.45 99.9474ZM53.0619 104.699C55.8529 112.827 58.3275 114.68 65.754 117.813L61.285 113.062C58.593 109.166 58.1109 106.316 53.0619 104.699ZM120.276 107.74C119.354 111.305 113.26 115.359 110.444 117.243C109.54 117.848 108.413 118.094 107.763 118.954H107.942C108.655 118.3 109.671 118.242 110.623 117.813C113.851 116.361 118.996 114.836 119.919 110.971H120.276V111.921C119.557 112.643 119.114 113.769 118.31 114.392C117.114 115.32 115.364 116.238 114.019 116.863C112.421 117.607 110.867 118.298 109.372 118.954C108.348 119.403 107.135 119.415 106.333 120.094C112.137 120.162 118.284 117.946 120.634 114.202C121.271 113.186 122.799 110.863 121.706 109.261C121.51 108.571 121.137 108.271 120.812 107.74H120.276ZM5.33274 110.781C5.37672 116.289 10.4489 118.954 14.8071 119.904V120.284H13.7345C12.9499 119.663 11.8218 119.587 10.8743 119.144C8.89402 118.217 6.11553 116.196 5.5115 113.822H5.33274V114.202L6.04778 116.293C6.87098 117.996 8.34558 119.828 9.80177 120.854C15.2182 124.675 23.5544 124.869 30.7168 122.755C32.4562 122.242 34.4742 122.281 35.7221 121.235C31.7965 121.339 26.968 121.666 22.8513 121.425C20.7098 121.299 17.9027 121.731 16.5947 120.664C16.4517 120.47 16.5312 120.612 16.4159 120.284H17.131C18.4627 121.296 27.5277 121.531 29.6442 121.044C30.7027 120.801 32.2685 121.372 33.0407 120.854C24.7462 121.049 14.3915 117.596 9.26548 114.202C7.82592 113.249 6.70491 111.769 5.33274 110.781ZM77.0159 125.036C76.2573 126.261 74.7993 126.917 73.977 128.077C71.659 131.341 69.7429 134.495 68.7929 139.291H69.1504C69.9102 138.066 71.3671 137.409 72.1894 136.25C74.3824 133.161 76.7805 129.749 77.3735 125.036H77.0159ZM57.7097 125.986C57.674 133.123 60.8917 137.71 63.7876 141.761C64.6444 142.96 65.897 144.504 67.3628 144.992V144.612C66.8607 143.71 66.858 139.987 66.469 138.72C65.0096 133.969 61.5889 128.058 57.7097 125.986ZM132.789 128.457L131.359 129.217C131.444 129.464 131.576 129.97 131.717 130.168C132.583 129.564 133.805 129.748 134.219 128.647H133.862C133.608 128.464 133.277 128.462 132.789 128.457ZM119.025 129.597C118.357 131.384 118.306 133.622 118.31 136.25H118.488V135.869C119.429 134.613 119.847 131.286 119.204 129.597H119.025ZM79.3398 132.638C78.3845 133.765 77.9097 135.424 77.5522 137.2H77.731V136.82C78.293 136.252 79.7243 133.361 79.3398 132.638ZM50.7381 133.209C52.9279 138.273 56.13 141.71 60.7487 144.232C61.5719 144.682 65.0747 146.362 66.2903 145.563C63.7855 144.696 61.0034 140.279 59.6761 137.96C59.359 137.406 59.371 136.523 58.9611 136.059C57.2419 134.114 53.178 134.368 50.7381 133.209ZM77.0159 134.159C76.4637 134.916 75.5982 135.289 74.8708 135.869C72.9137 137.432 69.2398 141.998 68.7929 144.992H69.1504C69.7495 144.414 70.5707 144.33 71.2956 143.852C73.9545 142.101 75.2337 140.931 76.3009 137.39C76.5454 136.579 77.3983 134.955 77.0159 134.159ZM129.035 134.349C127.865 135.09 125.8 134.494 124.745 135.299H125.103C126.384 136.381 129.178 136.288 130.823 135.869C131.101 135.415 131.346 135.314 131.538 134.729C131.074 134.584 130.591 134.52 130.108 134.539C129.854 134.356 129.523 134.353 129.035 134.349ZM69.8655 139.861C69.1099 140.835 68.4175 140.576 68.4354 142.522H68.6142V142.142C69.1281 141.715 69.6529 140.767 69.8655 140.051H70.0443L69.8655 139.861ZM105.439 140.241C105.189 141.955 104.554 145.819 105.618 147.273C105.738 145.246 106.932 141.614 105.439 140.241ZM75.0496 142.142C73.9412 143.392 72.2343 144.557 70.7593 145.373L68.2566 146.513C68.0183 152.278 67.7799 158.044 67.5416 163.809C66.7969 167.481 67.4327 171.593 66.6478 175.403C66.2045 177.554 66.4263 179.915 65.9327 182.245C64.7928 187.626 64.4531 193.483 63.2513 198.59C62.3291 202.51 62.9317 206.366 63.0726 210.754C63.1278 212.476 62.8025 216.128 63.4301 217.217C63.4079 214.326 64.0858 211.309 64.6814 208.854L65.754 202.012C66.7983 198.068 67.7431 193.831 68.6142 189.847C68.7333 187.059 68.8525 184.272 68.9717 181.485C69.3669 179.603 69.0698 177.463 69.508 175.403C70.1634 170.334 70.8189 165.266 71.4743 160.198C72.4951 155.826 73.0185 151.056 74.1558 146.893C74.3864 146.049 75.1647 142.345 75.0496 142.142ZM32.8619 144.042C32.8619 149.723 35.9786 157.53 39.1186 159.817V157.727C38.5644 156.762 38.7575 155.263 38.4035 154.116C37.3951 150.847 35.2657 145.741 32.8619 144.042ZM115.807 145.183C114.941 145.756 113.202 145.587 112.232 145.943V146.133C114.05 146.437 118.945 148.699 119.561 145.753H119.204C118.526 145.094 117.131 145.151 115.807 145.183ZM9.44424 147.083C8.70292 147.58 6.89815 147.653 6.04778 147.843C6.2303 147.995 6.09676 147.911 6.40531 148.034C8.00325 149.409 14.2393 151.056 16.9522 150.504C18.7892 150.131 20.5489 150.671 21.7788 149.744C18.2248 148.02 14.8428 147.135 9.44424 147.083ZM96.1434 149.934C95.7376 151.683 94.7465 156.404 95.9646 158.297C96.0361 156.417 97.5944 151.29 96.1434 149.934ZM43.2301 155.826C43.1808 161.645 46.2333 168.554 49.4867 170.841V169.701L48.4142 164.569C47.3614 161.545 45.6191 157.472 43.2301 155.826ZM107.405 157.917L100.076 159.057V159.247H100.434C102.684 161.008 109.842 160.458 111.159 158.297L110.623 158.107C110.029 157.694 108.324 157.892 107.405 157.917ZM24.9965 158.677C24.2269 159.173 22.839 158.9 22.1363 159.437H22.315C24.7326 161.877 33.754 162.959 37.8673 161.338C37.6847 161.186 37.8183 161.27 37.5097 161.148C35.2355 158.917 29.4689 158.694 24.9965 158.677ZM87.9204 159.057C87.5689 162.084 87.3898 165.131 87.3841 168.18H87.7416V167.04C88.4223 165.98 88.7309 160.028 87.9204 159.057ZM102.758 165.519C101.783 166.142 100.126 165.916 99.0035 166.28L93.6407 168.37V168.56H94.5345C96.7651 167.161 102.119 168.147 103.115 165.519H102.758ZM34.1133 169.701L35.0071 169.511V169.321L34.1133 168.56V169.701ZM91.1381 169.891C90.8846 170.073 90.553 170.076 90.0655 170.081C89.422 171.262 88.4566 172.231 87.7416 173.312C86.3793 175.373 85.3063 177.477 83.9876 179.584C83.5634 180.263 82.6319 181.08 82.3788 181.865C82.3192 183.195 82.2596 184.526 82.2 185.856C81.7681 187.802 81.1855 189.718 80.7699 191.558H80.9487C82.3831 189.323 84.3879 189.494 84.3451 185.476C84.7007 184.845 84.498 183.819 84.7027 183.005C85.1198 181.485 85.5369 179.964 85.954 178.444C87.316 175.014 89.5249 172.719 91.3168 169.891H91.1381ZM37.6885 170.271C37.5507 170.401 37.2895 170.52 37.1522 170.651C37.8651 171.452 38.0371 173.114 39.2973 173.312C41.2221 174.683 46.9644 173.581 48.9504 173.122V172.932C47.779 172.617 46.6623 171.805 45.554 171.411C43.2505 170.593 40.5528 170.322 37.6885 170.271ZM34.6496 170.651C34.392 171.042 34.3719 170.898 34.292 171.601C35.1104 172.096 36.006 172.575 37.1522 172.742V172.552C36.6683 172.049 36.2496 171.278 35.9009 170.651H34.6496ZM10.6956 171.411L7.12035 172.172C7.30287 172.324 7.16933 172.239 7.47787 172.362C8.92262 173.828 15.7127 175.493 18.5611 174.832C20.0573 174.485 22.1862 175.061 22.8513 173.882C21.4899 173.674 20.3245 172.785 19.0973 172.362C16.6183 171.506 13.8954 171.457 10.6956 171.411ZM91.4956 171.411C90.9126 172.37 89.9627 173.146 89.3504 174.072C86.8594 177.868 85.4901 182.368 85.4177 186.997H85.5965C86.4113 185.676 87.6662 184.554 88.4566 183.195C89.73 181.008 90.1851 178.736 90.9593 175.973C91.2292 175.009 92.0832 172.468 91.4956 171.411ZM34.6496 173.122C35.3533 176.839 37.851 182.42 40.3699 184.146V183.005C39.9847 182.302 40.2448 181.255 40.0124 180.344C39.6432 178.896 38.7253 174.816 37.6885 174.262L34.6496 173.122ZM49.8442 173.882C47.5497 175.766 42.4671 174.751 39.2973 174.642V174.832C40.748 176.562 41.4192 181.994 41.4425 185.286L45.0177 188.707V188.327C43.6185 186.434 43.413 181.679 43.4089 178.254C43.4684 178.191 43.5281 178.126 43.5876 178.064C43.9012 178.183 43.7612 178.1 43.9451 178.254C46.996 179.476 50.3051 187.285 51.2743 191.178C51.4531 193.141 51.6319 195.105 51.8106 197.07C52.3244 198.29 54.0895 200.031 54.8496 201.251C56.875 204.56 58.6103 208.059 60.0336 211.705H60.2124C60.4766 206.873 62.3414 202.055 60.9274 196.69C59.428 191.001 57.3388 185.354 54.6708 180.724C53.5596 178.795 51.048 175.857 50.3805 173.882H49.8442ZM112.053 174.262C111.281 174.751 109.999 174.371 109.014 174.642C106.796 175.252 104.785 176.327 102.758 176.923V177.113C105.936 177.582 109.912 178.316 113.304 177.303C115.136 176.756 116.922 175.727 118.667 175.213V175.023C116.563 174.769 114.585 174.284 112.053 174.262ZM44.3027 180.154C44.9819 182.536 44.7907 184.999 45.554 187.187C45.9995 188.464 46.616 190.216 47.3416 191.368C47.9971 192.066 48.6525 192.762 49.308 193.459C49.7706 194.107 50.0089 194.812 50.7381 195.169V194.979C50.4997 193.521 50.2614 192.064 50.023 190.608C49.1948 187.73 46.6459 181.032 44.3027 180.154ZM26.4265 183.005C25.786 183.45 24.2814 183.545 23.3876 183.575V183.956H23.7451C26.1001 186.314 35.1882 187.217 39.1186 185.666V185.476C37.6388 185.248 36.2062 184.237 34.8283 183.765C32.39 182.929 29.5715 183.047 26.4265 183.005ZM81.1274 183.956C80.8414 184.948 80.1561 185.643 79.6973 186.426C77.6736 189.885 75.3238 193.046 75.0496 198.21H75.2283V198.02C77.8143 195.43 79.2211 192.698 80.4124 188.517C80.6938 187.529 81.6569 184.991 81.1274 183.956ZM95.0708 185.856L91.8531 186.426C90.0762 186.978 88.3429 187.677 86.669 188.517V188.707C89.1871 188.943 91.9836 189.99 94.892 189.277C97.6233 188.606 100.01 187.506 102.4 186.806V186.616C99.9879 186.097 97.5319 185.842 95.0708 185.856ZM36.9734 194.789C36.4003 195.194 35.0913 195.308 34.292 195.359V195.549H34.4708C37.2897 198.359 45.6389 198.486 50.2018 197.45V197.26C48.5929 196.627 46.9841 195.994 45.3752 195.359C42.9784 194.601 39.9974 194.823 36.9734 194.789ZM68.0779 196.5C67.9429 198.767 67.1741 201.126 66.6478 203.152L65.5752 209.994C65.291 211.163 64.3554 214.295 64.8602 215.316C65.2763 212.336 67.3012 209.935 68.0779 207.333V201.251C68.2209 200.248 68.6222 197.454 68.0779 196.5ZM73.977 197.07C73.5903 198.668 72.4077 200.314 71.6531 201.631C71.0572 203.025 70.4614 204.418 69.8655 205.813H70.0443V205.623C71.0496 204.581 71.5458 203.066 72.3681 201.821C72.7516 201.24 73.7192 200.559 73.977 199.921V197.64C74.1345 197.313 74.1359 197.397 73.977 197.07ZM83.6301 197.64C82.8507 198.146 81.5406 197.906 80.5912 198.21C78.9227 198.843 77.2543 199.477 75.5858 200.111C75.6454 200.174 75.7051 200.238 75.7646 200.301C78.2422 202.243 86.0768 200.618 88.2779 199.731C89.2932 199.322 90.8508 199.193 91.3168 198.21H90.423C89.0657 197.235 85.7631 197.619 83.6301 197.64ZM61.6425 208.284L60.9274 214.176C61.1627 215.12 61.7562 216.116 62 217.217H62.1788V216.076C61.2728 214.484 62.5828 209.888 61.6425 208.284Z" fill="black"/>
</svg>
