<svg fill="none" height="299" viewBox="0 0 137 299" width="137" xmlns="http://www.w3.org/2000/svg"><path clip-rule="evenodd" d="m62.5363 45.5893c.0216 2.332.6124 4.6225 1.0726 6.6522.7048 3.1092.378 5.9552 1.0725 9.123.9296 4.2421 1.4852 9.4038 1.6089 14.0647h.1787v-.3801c.8938-1.0208 1.2061-2.6445 1.9664-3.8013 1.9251-2.9292 6.5436-7.4014 11.0832-7.4124.3657.6159.5341.7663.5363 1.9006-.4214.4822-.5224 1.1563-.8938 1.7106-.7151 1.066-5.262 6.0866-6.2567 6.4621v.1901h.3575c1.2085-1.2311 4.1235-2.1548 6.2567-1.7106.3825.6449.5459.8905.5363 2.0907-2.9358 2.8757-8.0146 4.8027-13.4071 4.9417.3575 4.4981.715 8.9963 1.0726 13.4945.4656 2.2851-.0653 4.7658.3575 6.8423.4059 1.9946-.4827 5.9996.3575 7.4126.4351-3.274 5.8421-9.7364 9.1168-9.8835.042 5.9795-2.2068 10.4215-4.6478 13.8745-1.3407 1.896-4.4071 2.085-4.469 5.132.4657.81.1788 3.003.1788 4.181v10.834c0 1.175-.2882 3.375.1787 4.181.4827-3.809 4.1031-7.624 6.2567-9.883.8696-.912 1.8807-2.31 3.3964-2.471.1363.493.1967 1.007.1788 1.521-.6123 1.029-.4469 2.627-.8938 3.801-.8645 2.271-2.0495 4.344-3.2177 6.272h.3575c.6832-1.108 2.4396-1.391 3.0389-2.471.1192-.57.2384-1.14.3576-1.71.6864-1.953 1.1762-4.044 1.9663-6.082 2.1988-5.671 4.3986-11.487 6.9717-16.726.6849-1.394 1.0209-2.84 1.7876-4.181 1.7751-3.106 3.3437-6.4025 5.1841-9.5035.7225-1.2176 2.0273-2.3829 2.3239-3.9914-5.7-4.1006-10.1191-16.2037-12.1558-24.5182-1.6919-6.9078.8243-14.4701 6.9717-14.4448.2934-1.1605 1.039-1.8299 1.6089-2.6609 2.6934-3.9267 5.7561-3.5338 11.6193-3.4211 1.916-3.0981 8.35-2.8791 11.798-1.3305 2.787 1.2516 5.453 3.6492 6.972 6.2721 1.025 1.7693 1.173 4.4405 2.324 6.082 2.786 3.9712 8.616 5.4895 10.189 10.6436 1.271 4.1624-.789 9.147-2.324 11.7839-.623 1.072-1.658 1.6156-1.787 3.2311.237.3965.179 1.2233.179 1.9007-.003 3.7944-1.676 6.0039-3.754 7.6025-4.967 3.8203-12.108 6.2474-20.379 3.6112-2.636-.8399-5.361-1.6967-7.687-2.8509-.5412-.2686-2.3238-1.1214-2.5026-.9504-.7441.5932-.9077 1.4415-1.43 2.2808-1.5608 2.5088-2.933 5.1182-4.4691 7.7928-3.7561 6.54-6.7571 14.039-9.6531 21.477l-2.8601 8.933h.1787c.3431-.337.5606-.361 1.2514-.38.1189.367.1793.752.1787 1.14-.9092 1.454-.9578 3.497-1.7876 4.942-.6078 1.057-1.7928 2.031-2.3239 3.041-.9971 1.895-1.0021 5.138-1.6088 7.412-1.862 6.98-3.3575 15.039-3.9328 22.998-.3575 3.358-.715 6.716-1.0725 10.073-.0665 1.217-.507 3.102 0 3.992.1521-1.789.954-3.45 1.43-4.942 1.1731-3.679 2.0924-7.127 3.3965-10.453 1.1006-2.809 1.7286-5.439 2.8602-8.173 3.756-9.074 8.2417-17.786 13.4071-26.039 2.2824-3.644 5.0387-6.967 7.5079-10.453.9759-1.378 3.032-2.438 3.396-4.372-.724-1.19-.086-8.096.179-9.313 1.175-5.388 1.856-10.349 6.436-11.9739 1.994-.7072 4.344.6371 5.541.3801 1.403-.301 3.496-.9564 5.006 0 .765.4851 1.708 1.6648 1.966 2.6608.402 1.55-.47 3.796-.179 4.562.594.662 1.436 1.181 1.788 2.09.872 2.253-.336 4.698-1.073 5.892-2.47 4.003-6.54 5.01-11.619 6.272l-6.614.381c-1.167.44-3.8667 3.839-4.6482 4.941-3.5931 5.073-7.3144 10.135-10.5469 15.585-8.1074 13.671-14.6162 31.04-18.7699 48.657-.0596 1.963-.1192 3.927-.1788 5.892-.0596 2.723-.1192 5.448-.1788 8.172h.1788v-.38c.8536-1.011 1.1711-2.541 1.7876-3.801 1.069-2.184 2.6477-4.44 3.5752-6.652 1.0508-2.507 1.2476-4.879 2.5027-7.033.6153-1.054 1.4208-2.206 2.1451-3.231l2.6814-2.661c1.0905-1.59 1.829-3.303 2.8602-4.941.4737-.752 1.5073-1.584 1.7876-2.471.2047-.648-.2156-4.276-.3575-4.942-.7227-3.381.3804-8.879 1.2513-10.833.5721-.049.5705-.189.8938 0 1.403.513 1.2657 2.37 1.2514 4.371-.0226 3.146-.8692 5.749-1.2514 8.553h.1788v-.19c1.4705-1.504 2.5291-3.562 3.754-5.322.858-1.234 2.3457-2.244 2.8602-3.801-1.1228-1.835-.6236-9.64-.1788-11.784.5517-.37.6131-.549 1.6088-.57.3397.386.5134.355.7151.95.9653 1.29-.2324 8.322-.7151 9.693h.1788c1.4192-2.277 3.5576-4.525 5.3626-6.462.912-.978 2.378-1.635 2.503-3.421-.928-1.438-1.219-9.585.357-10.263.761-.584 1.58.072 1.788.76 1.071 1.427-.067 7.277-.536 8.553h.179c.749-1.107 2.007-2.023 3.038-2.851 1.636-1.314 2.994-3.247 4.648-4.562 1.057-.84 2.917-1.643 3.397-3.041-.405-.634-.179-2.438-.179-3.421 0-2.944-.389-6.303 2.503-6.272l.357.57c1.16 1.528-.559 6.902-1.072 8.173h.178c1.635-2.223 6.102-4.124 8.402-5.892l2.86-3.041c.909-.602 2.841-1.37 3.933-.57.757.267.752.63.715 1.71-.143.194-.063.052-.179.38-1.058.335-2.116 1.139-3.217 1.521l-3.576.76c-.802.344-1.39 1.185-2.324 1.521v.19h.894c1.002-.752 5.256-.686 5.721.38v1.52c-1.413 1.009-2.972 2.193-5.542 1.521-.903-.236-3.668-1.65-4.111-1.331-3.032 1.61-5.719 4.333-8.402 6.463-.814.646-1.36 1.549-2.324 2.09v.19h.894c1.292-.979 6.757-.791 7.329.571v1.9c-.143.194-.064.052-.179.38-3.198 2.041-7.022-.377-10.189-.95-.778 1.169-2.136 2.171-3.218 3.041-1.502 1.206-2.967 3.143-4.111 4.752-.977 1.374-2.475 2.314-3.3969 3.801h.8939c.828-.596 2.058-.289 3.218-.57 1.573-.382 6.451-1.555 7.865-.571.836.27 1.084.702 1.073 1.901-.143.194-.064.052-.179.38-1.025.698-2.27 1.507-3.575 1.901-3.936 1.188-7.714-1.023-10.9048-1.331-1.6898 3.054-4.5124 5.301-6.2566 8.363h.3575c.9993-.967 7.2935-3.115 8.9379-3.611 1.701-.513 3.444-.247 3.754 1.33-.143.195-.063.053-.179.381-2.867 1.86-7.2811 3.248-11.6191 3.421.141 6.183-1.6197 10.655-3.754 14.445h.1788c1.4301-1.884 4.0979-2.874 6.0779-4.182 4.2041-2.778 8.1934-4.748 13.7644-6.272 1.566-.428 5.079-.905 7.151-.38 1.399.354 2.938.811 4.29 1.14.094.243.154.499.179.761-2.434 1.453-5.115 2.567-8.223 3.421-1.073.063-2.146.126-3.218.19-.416.099-1.452.35-2.145.19-.846-.196-2.086-.118-3.039-.38-.76-.209-2.081-.94-2.86-.951-.956-.012-2.4356 1.462-3.218 1.901-3.0824 1.726-5.7204 3.651-8.4018 5.702-.6891.526-1.4574.813-1.9664 1.52h.1788c.7394-.632 1.6323-.593 2.6814-.95 4.7386-1.615 9.3785-.952 13.943.19v.951c-1.374.376-2.507 1.355-3.754 1.9-1.7947.785-3.91 1.042-5.8987 1.521-1.8616.448-6.055.047-7.508-.38-.6391-.189-2.0949-1.023-2.5026-.761-3.0778 2.163-5.8455 5.822-7.8655 9.123h.1787c2.019-1.725 9.1499-2.385 12.5133-1.52 1.5322.393 3.5972.064 3.9327 1.71-1.6072.789-3.2777 1.854-5.0053 2.471-1.6803.601-3.5868.717-5.3628 1.141-1.9767.471-5.0201.083-6.6141-.381-.5587-.163-1.8086-.786-2.1452-.57-.8359.624-4.8555 7.021-5.1841 8.173.1788 4.814.3576 9.629.5363 14.445.0715 3.617.2001 8.032.8938 11.404.63 3.062.3039 6.167.8938 8.933.7714 3.611.4448 6.981 1.2514 10.453.5321 2.29.6256 4.824 1.2513 7.223.4406 1.685.9978 3.466 1.0726 5.511h-.8938v-.38c-.7306-1.159-.5104-3.046-.8939-4.561-.8746-3.457-.9295-7.245-1.7876-11.024-.7845-3.451-.8419-7.658-1.6088-11.214-.0596-1.203-.1192-2.407-.1788-3.611-.565-2.689-.1008-5.774-.715-8.743-.9632-4.656-.6947-10.851-.7151-16.155h-.1787v.19c-1.6033 1.893-3.7088 9.205-4.469 12.164-.5674 2.208-.0982 4.888-.5363 7.032-.1192 3.992-.2384 7.983-.3576 11.974-.3167 1.53.0042 3.391-.3575 5.132-.5958 6.082-1.1917 12.164-1.7876 18.246-.715 4.814-1.4301 9.629-2.1451 14.445-1.414 5.882-2.7202 11.947-3.9328 17.676-.2283.1-.4692.164-.715.19-.1718-.337-.2247-.319-.3575-.76 1.0025-1.589.885-4.049 1.4301-6.082 1.1467-4.277 1.5613-8.873 2.6814-13.495 1.2025-4.964 1.353-10.765 2.5026-15.965.4938-2.233.2719-4.604.7151-6.652.1787-2.914.3575-5.828.5363-8.743.6235-3.003.4383-6.896.715-10.074v-4.941c.2944-1.433.591-9.032.1788-10.644-.5363-1.773-1.0726-3.547-1.6089-5.322h-.1787v1.331c-.6818 1.176-.3679 3.06-.7151 4.561-.9226 3.992-.8416 8.317-1.7876 12.544-.9759 4.36-.9993 9.462-1.9664 13.875-.1191 1.583-.2383 3.167-.3575 4.752-.6519 3.044-.5981 6.796-1.2513 9.883v1.901c-.8938 4.244-1.2122 9.374-1.2514 14.064-.3737.213-.3274.272-.8938.38-.1651-.507-.1878-1.317-.1787-2.09.6554-7.033 1.3109-14.065 1.9664-21.097.9858-4.6.7912-9.91 1.7876-14.445l.3575-4.372c1.1964-5.487 1.2013-11.346 2.5026-16.915.2982-1.276 1.5115-5.537 1.0726-7.033-.7052-2.402-2.2218-4.989-3.3965-7.032-1.1022-1.916-3.3785-7.46-5.184-8.173-.7687.656-1.8722.485-3.039.761-4.4366 1.049-9.3281-.267-12.5132-1.711-1.1799-.534-3.0352-.696-3.2177-2.281.0595-.063.1192-.127.1787-.19 2.631-.397 6.0116-1.994 9.6531-1.14 2.2715.532 4.5389 1.363 6.6142 1.71v-.19c-1.0835-.796-1.3718-2.094-2.1452-3.231-.6228-.916-4.9972-5.358-5.8991-5.702-3.2302 2.777-12.8563.812-15.9097-.57-1.1691-.528-3.2756-.868-3.5752-2.281 4.4722-2.668 12.8529-1.463 16.9823.571-1.8488-2.458-6.4186-4.714-9.1168-6.463-1.1824-.766-2.9058-2.316-4.2903-2.661l-4.469 1.141c-3.9111.939-9.5133-.869-11.79826-1.901-1.16749-.527-3.16765-.782-3.39646-2.281 2.81638-1.688 8.74252-2.028 12.51332-.95 5.1572 1.475 9.8298 3.901 13.9433 6.652 1.6729 1.12 3.222 2.629 5.0053 3.612-.71-1.589-1.6725-3.251-2.3239-4.942-.2979-1.204-.5958-2.408-.8938-3.611-.8146-.368-2.0107-.78-2.3239-1.711.3157-.183.3004-.239.7151-.38.3387-.289.6417-.34 1.2513-.38v-3.421c.2283-.1.4692-.165.7151-.19 1.6919 2.82 3.119 2.934 7.5079 2.851.6184.403 1.4954.145 2.3239.38l3.9328 1.33v-.19c-.8604-.878-1.2469-1.989-1.9664-3.041-.7151-1.045-5.0068-5.501-6.0779-5.892-3.1987 2.756-12.694.803-15.731-.57-1.3058-.59-3.3757-.719-3.5752-2.471l.1788-.19c1.5418-.235 3.2404-.771 4.8265-1.14 4.264-.994 8.7843 1.105 11.6195 1.9v-.19c-1.1128-.68-2.0229-1.71-3.0389-2.471-2.5461-1.903-5.1916-3.365-8.0443-4.941-.572-.316-1.5261-1.202-2.1451-1.331-.5213-.108-3.6646.944-4.4691 1.141-3.8254.934-9.8277-.986-11.97695-2.091-1.13603-.584-2.74613-.613-3.03894-2.091 2.8221-1.693 8.89909-2.079 12.69199-.95 7.3536 2.189 12.7965 6.498 18.5912 10.263v-.38c-2.306-2.467-3.53-8.949-3.5752-13.874.3738-.213.3275-.273.8938-.38.7508 1.229 2.0613 2.048 2.8602 3.231 2.7152 4.017 4.585 8.775 4.6478 15.585 1.4443.908 2.3743 2.442 3.7539 3.421-1.2055-2.891-1.757-6.274-1.7876-10.454.3136-.119.1736-.036.3575-.19.3136.12.1736.037.3576.19 3.1295 1.263 6.359 9.415 7.3292 13.495.2956 1.243-.0424 4.099.3575 5.132.2324.6 1.0815 1.184 1.4301 1.71 1.4562 2.199 2.8097 4.577 4.1115 6.843 1.2383 2.155 2.2949 4.759 3.2177 7.032.3591.886.3729 1.79.8938 2.471-.1891-4.94-1.5195-11.78-2.6814-16.156-1.2753-4.801-1.6089-9.322-3.039-13.874l-4.2902-13.685c-1.3797-3.535-3.0577-7.241-4.4691-10.643-1.688-4.07-3.4531-7.823-5.5415-11.404-.6497-1.114-1.019-3.241-2.3239-3.611-1.3801 1.368-4.0937 1.6-6.0779 2.28-9.3094 3.19-21.1553 1.947-25.92038-5.131-.91686-1.362-1.39916-3.012-1.78761-4.942.11918-1.331.23835-2.661.35752-3.991l-.8938-.951c-1.09956-1.895-3.746297-7.877-3.038939-11.2135 1.310679-6.1824 5.328329-6.3158 8.759289-9.8833l3.21772-3.4211c.6256-1.2942.4244-2.6571 1.0725-3.8013 1.9637-3.4662 4.3852-5.4738 8.4018-6.8423 1.3808-.4708 3.8841-1.4188 5.8991-.9503 1.4671.3421 3.0275.5525 4.1115 1.3305l1.0726 1.3304h5.1841c.3158.2134.7483.0481 1.2513.1901 1.1164.3149 2.5239.8518 3.3965 1.5205 1.0511.8055 2.1869 2.4117 2.8601 3.6112.1192.4435.2384.8869.3576 1.3304h.715c.5463.3737 1.3253.2661 1.9664.5702 1.3082.6223 2.8103 2.4138 3.3964 3.8013 1.1657 2.7605.923 6.8375.1788 9.8833-1.7293 7.0769-3.5613 12.7049-6.9717 17.8659-.7161 1.083-2.8373 4.002-3.754 4.752-.8241.674-2.0512 1.237-2.3239 2.47.8939.812 1.1513 2.125 1.7877 3.232 1.6982 2.953 3.0809 6.076 4.6477 9.313 4.4067 9.102 7.5028 19.291 10.7257 29.84l2.8602 13.114c.7746 5.132 1.5492 10.263 2.3239 15.395.4447 2.057-.2615 5.21.715 6.842.7747-5.067 1.5493-10.135 2.3239-15.205.724-3.28.4062-6.734 1.0726-9.883v-2.091c.4469-2.14.0373-4.623.5363-7.032.3625-1.75-.0572-3.885.3575-5.892.7283-3.525.5175-7.854.5363-11.784-8.1716.093-16.0948-7.401-17.6974-14.065.8715-.489 2.5402-.403 3.9328-.38.4469.304 1.005.17 1.6088.38 1.0949.381 2.2243 1.01 3.2177 1.521v-.38c-1.1843-1.639-1.597-6.617-1.6088-9.503.2862-.115.5881-.179.8938-.19.6104.834 1.7011 1.261 2.5026 1.9 2.9902 2.385 6.3913 7.83 7.3292 12.354h.1788v-11.213c.6938-1.154.0572-6.513 0-7.983-6.9931-.842-15.5191-7.485-15.5522-15.585.345-.127.7076-.191 1.0725-.19.5453.373 1.3188.279 1.9664.57.6874.309 1.4957.922 2.1452 1.33v-.57c-1.6968-2.342-1.6037-7.9676-1.6089-12.164.2862-.1147.5881-.1789.8938-.19 1.0822 1.5282 3.0238 2.4425 4.1115 3.9913 1.0129 1.4422 1.9864 3.0353 2.8602 4.5617 1.3049 2.281 2.1489 5.22 3.0389 7.792.3629 1.049.3218 2.394.8938 3.231.4757-10.554-1.2198-21.5098-1.4301-31.7401h-.1787c-1.2106 1.2023-4.9104 1.7634-7.1505 1.1404-3.3642-.9355-9.1347-4.9288-9.6531-8.5529.738-.4166 1.9882-.4037 3.2177-.3801.7916-.5552 2.3954-.0475 3.3965 0v-.1901c-1.3545-1.5292-3.4283-6.6353-3.5752-9.3131.2862-.1147.5881-.1789.8938-.1901.9002.7439 2.2265.8785 3.2177 1.5205 3.1701 2.0527 8.0887 6.1277 9.1168 10.2635h.1788v-.7603c-.9258-1.6442-.4244-5.9915-.8938-8.1727-.8938-6.0181-1.7877-12.0367-2.6815-18.056-6.2387.8704-9.0492-3.0454-11.6194-6.6523-.876-1.2287-3.0901-1.6714-3.2177-3.6112 4.5705-.0591 8.6797 2.0746 11.4407 4.1814.9758.7447 1.6789 1.9326 2.6814 2.6609v-.7602l-3.0389-14.2548c-8.8267-.1369-9.0116-9.5935-13.5859-14.2548.1128-.3334.0345-.1845.1788-.3801.262-.4799.0786-.2935.715-.3801 2.2043 1.7826 7.072 3.1069 8.0443 6.082h.1787v-.9503c-.426-.7276-.4024-3.8429-.1787-4.9417.8101-3.9797.1383-9.3511 0-13.30442.2862-.114715.5881-.178916.8938-.190064.8999 2.083284 2.1907 4.124384 3.0389 6.272094 1.1512 2.91439 1.4423 6.10849 2.1451 9.50319.7426 3.5861-.5021 7.544-.8938 10.0734.8938 4.0546 1.7877 8.1093 2.6815 12.164.4302-4.2908 3.2652-7.804 5.8991-9.8833.858-.6777 1.245-1.5851 2.6814-1.7106.1128.3334.0345.1846.1788.3802-.2212.9613-.8141 1.7545-1.0726 2.6609l-.5363 4.7516c-.2987 1.2107-.9142 2.352-1.2513 3.4211h.1787c.9861-1.0013 4.1725-2.7443 5.8991-2.851.0943.2428.1545.4989.1788.7603-.712.7967-.995 1.94-1.6088 2.851-1.8095 2.6848-5.1877 6.1671-9.2956 6.2721zm-7.6867-41.05378c-.0832 6.82668-1.6854 18.46958 2.3239 21.28708v-.5701c-.1431-.1941-.0635-.0521-.1788-.3802l.3575-.3801.7151.1901c.782-6.1345.0917-11.3088-1.6089-16.15544-.4966-1.41521-.7131-3.0089-1.6088-3.99134zm2.8601 23.56788v-.5702c-2.1195-1.3416-2.5453-3.2221-3.9327-5.3218-1.3198-1.9975-4.715-5.3831-7.1505-6.082v.1901c3.7606 4.0464 3.709 11.5203 11.0832 11.7839zm10.3682 1.3304c-.5899.9293-1.6997 1.3978-2.3239 2.2808-2.163 3.06-3.7288 5.987-3.754 11.4038h.1788c1.9379-2.1895 4.0208-3.9847 5.0053-7.2224.1191-1.077.2383-2.154.3575-3.2311.1634-.734.7646-2.8234.5363-3.2311zm3.2177 7.9827c-.687.6698-1.6691.7899-2.5027 1.3305-2.117 1.3728-4.7514 3.3084-5.8991 5.7019h.5363c1.1943-.8855 2.7887-1.0338 3.9327-1.9007 1.734-1.3139 2.6573-3.5804 4.2903-4.9416-.1825-.1521-.049-.0675-.3575-.1901zm-21.6301 1.5205 3.0389 3.041c2.0476 2.8795 3.7183 4.7733 8.5806 4.7516v-.19l-2.1452-2.851c-2.4411-2.001-5.6131-4.4195-9.4743-4.7516zm59.3485 4.7516c-1.053.7032-2.335.4562-3.039 1.5205l-.179.1901c1.723.24 3.373.8897 4.827 1.9006.985.6979 1.024 1.6049 2.681 1.7106.662-.4626 2.716-.1844 3.397 0 3.806 1.0303 4.04 2.1072 6.614 3.9913v-.5702c-.857-.9714-1.219-2.5415-1.966-3.6112-2.325-3.3261-6.894-5.1385-12.335-5.1317zm-8.044 1.9007-3.5753.5701c-1.9843.7033-3.8076 2.4329-4.8266 4.1814-4.607 7.9067-1.3467 21.4333 1.2514 28.8897.7806 2.2405 1.3954 5.93 2.6814 7.6025v-.5702c-.9135-1.4089-.6469-3.8202-1.0726-5.7019-1.1083-4.8983-.8711-11.0818-.8938-17.1057h.3575v7.6026c.4219.7579-.0357 2.1931.1788 3.231.5638 2.7204.3305 8.3655 1.6088 10.2635-.2429-12.6921 3.1201-23.5109 8.2234-30.7903.809-1.1545 2.411-2.4729 3.575-3.2311.815-.531 2.039-.4276 2.503-1.3304-1.249-.8793-2.125-2.1639-4.112-2.2808l-3.039.9503c-2.29 1.0524-4.5344 3.2455-5.899 5.3218-.9414 1.4323-1.7853 3.3843-2.3239 5.1317-.3086 1.0011-.1226 2.3511-.8938 2.851v-1.3305c.466-.7108.3832-1.7944.715-2.6609.9117-2.3801 2.4744-5.5647 4.2903-7.0323 1.2374-.9998 2.6374-2.1766 4.1114-2.851.765-.3499 1.896-.2452 2.324-.9503h-.715c-.946-.6728-3.149-.6065-4.469-.7602zm12.156 4.1813c-.53.3971-1.296.276-1.967.5702-1.296.5689-2.658 1.5966-3.754 2.4709-1.127.8997-1.86 2.3621-2.681 3.6112-2.59 3.9398-4.153 8.7378-5.5417 14.0647l-.5363 3.8012c-.6458 2.6864-.8938 5.7814-.8938 9.1231 0 1.0537-.2277 2.9032.1788 3.6112.1945-2.0614 1.06-4.1289 1.6088-5.892 1.3582-4.3621 2.3472-8.5177 4.1112-12.3541h.358v.5702c-1.231 1.7138-1.567 4.2903-2.324 6.4622-1.411 4.0464-3.1305 8.6758-3.754 13.3044l.1787.1901c10.6723-5.1318 20.9893-9.7391 26.8143-19.9567 1.141-2.0016 3.072-7.7525 1.609-10.6436-.459-.9066-1.568-1.6448-2.145-2.4708-.669-.9571-.901-2.1068-2.324-2.2808-1.815-1.2494-5.49.2509-6.793.9504-5.295 2.841-8.223 7.3193-10.726 13.1143l-.179-.19c-.143-.1941-.063-.0521-.178-.3801.89-1.2102 1.195-2.862 1.966-4.1814 2.197-3.7599 4.941-6.6551 8.759-8.743 1.54-.8421 4.639-2.0336 7.151-1.1403v-.3802c-2.996-2.0146-3.732-3.2179-8.938-3.2311zm-23.2393 2.4709c-1.2779.9324-2.5563 1.0938-3.3964 2.4708-1.1423 1.8721-1.9362 6.1235-1.2514 9.1231 1.4605 6.3958 3.0604 12.4301 5.8992 17.2957.9086 1.5576 1.5194 3.4854 2.8601 4.5616-1.373-3.2556-3.1437-6.4774-4.469-9.8833-.8069-2.0738-.9653-4.0043-1.6088-6.2721-.542-1.9123-1.5731-5.911-.8938-8.1728l.1787.1901c.5721 1.0389.0692 2.8766.3575 4.1814l1.2514 6.082c1.0737 3.4296 2.3269 6.7926 3.7539 10.0734.6389 1.4734 1.8574 2.889 2.3239 4.5615h.1788c-.8094-3.607-2.6306-7.2638-3.754-10.8336-.7733-2.4573-.8028-4.718-1.4301-7.4125-.4506-1.936-1.0997-6.8822-.5363-9.5032.4777-2.221.9986-4.4665 1.4301-6.4621zm37.3613 7.2224c.25 13.328-8.435 18.9535-16.446 24.1381-2.856 1.848-6.339 4.165-9.832 5.1317v.19h.536c1.222-.8172 3.174-.6595 4.648-1.1403l8.402-2.851c2.764-1.2468 5.726-2.6979 8.223-4.3715 1.326-.8885 2.594-2.6798 4.29-3.041v.3802c-1.397.8404-2.592 2.1386-3.933 3.041-3.028 2.039-6.572 3.6302-10.01 5.1317l-8.402 2.6609c-1.363.4084-3.224.171-4.29.9503 13.635.2587 26.224-2.7628 31.64-11.4038 1.804-2.8772 5.607-10.4434 1.252-13.6846l-.179-.1901v.5702c.287.4541.357 2.4519.179 3.2311-.549 2.384-2.569 7.7713-4.648 8.1727v-.3801c1.988-1.389 5.84-8.7897 3.754-12.5442zm-9.653 2.2808c.42.5747-1.816 3.5205-2.503 4.3714-2.693 3.3252-5.2 6.8157-7.508 10.4535-.682 1.0834-2.034 4.2831-3.218 4.5615v-.3801c1.661-1.4167 3.173-5.0747 4.469-7.0323 2.719-4.1054 6.164-7.7927 8.76-11.974zm-64.1755 2.6608c.6339 5.6371 6.0544 14.0625 11.977 14.0647v-.3801c-.9559-1.4544-1.1023-3.4563-1.9664-4.9416-2.2286-3.8308-5.87-6.9467-10.0106-8.743zm25.384.5702c-6.1136.2532-10.0717 7.5266-11.9769 12.5442h.1787c.7526-.8055 1.8055-1.2183 2.6814-1.9006 2.2671-1.7676 4.7372-4.2589 6.4354-6.6522.8938-1.2605 2.389-2.0776 2.6814-3.9914zm-52.7345 8.3628c-1.0606.6803-3.6068.6082-4.8265 1.1404-3.4094 1.4876-5.7999 4.285-7.3292 7.7926h.1787c1.2458-1.9327 4.1936-3.3497 6.6142-3.9913 1.4181-.376 4.0718.5628 4.6478.19 1.2374-.7874 2.2795-1.8776 3.754-2.4708.8044-.3231 2.2507-.2281 2.6814-.9503-1.5703-.9822-3.1426-1.6824-5.7204-1.7106zm51.1257 0c-1.1441.8312-2.7393 1.0218-3.9328 1.7106-1.3909.8028-2.6896 2.0955-4.2902 2.6609v.1901h.3575c2.3815-1.576 8.6483-1.4295 9.6531-4.3715l-.1788-.1901zm-25.7416.1901c-.2535.1826-.5851.1855-1.0726.1901v.19c.6495.4967.8899 1.2961 1.4301 1.9007 1.8858 2.1097 3.73 3.4312 6.7929 4.3714.7884.242 2.3375.6881 3.5753.3801l2.5026-.7602v-.1901c-2.2838-.2813-4.4183-1.3493-6.0779-3.041-.7079-.7365-1.4077-2.2237-2.3239-2.6609-1.2236-.585-3.1472-.3636-4.8265-.3801zm-17.1611 2.4708c-.5134.3537-1.9703.3634-2.6814.3801v.1901h.1788l3.754 1.9006c3.3743 2.5007 6.7534 7.4028 6.7929 13.3045h-.1788v-.1901c-.9193-1.1943-.8452-3.8862-1.4301-5.3218-1.4392-3.5317-6.1072-9.4628-10.5469-9.5031-1.1262-.0103-2.7695 1.5338-3.5752 2.0907v.3801c1.2708.3746 1.9519 1.1993 2.8602 1.9006 6.06 4.6805 7.5135 13.3098 9.4743 22.4279.1788 2.407.3575 4.815.5363 7.222.0082 1.133-.2751 3.221.1788 3.991.4767-2.47.9534-4.941 1.4301-7.412.8737-3.913.8412-9.0887.8938-13.4946h.3575v5.5118c-.6879 1.2288-.182 4.6248-.5363 6.2718-.4523 2.102-.5005 4.472-1.0726 6.653-.4032 1.537-1.0207 3.26-1.2513 4.941h.1788v-.38c1.4386-1.755 1.9628-4.778 2.8601-7.032 3.2753-8.228 7.1247-22.5302 1.0726-30.9806-1.655-2.3108-5.4479-2.8873-9.2956-2.851zm-13.407 3.2311c-.4469.3013-1.019.1481-1.6089.3801-1.2973.5096-3.0346 1.6827-3.754 2.851 7.8242-.0728 11.3235 4.4285 14.3009 9.5032.9971 1.6993 2.5027 3.5986 2.6814 6.082h-.3575v-.3801c-.9018-1.0914-1.0611-2.9139-1.7876-4.1814-2.2224-3.8773-4.6776-6.9892-8.5805-9.1231-.9475-.5179-5.0332-2.3207-6.793-1.1404-.9066.3355-1.0293 1.0631-1.6088 1.7106-2.527 2.8238-3.49783 3.0944-3.2177 8.5529h-.35753v-.9503c-.6094-.9616-.01591-3.2756.17876-4.1815h-.17876c-2.57684 2.6799-6.23716 3.2815-7.68673 6.8423-1.284577 3.1551-.08777 7.1652.89381 9.5032 2.99049 7.123 8.37375 9.834 15.73095 12.354 3.939 1.36 8.0227 2.19 12.1558 2.471 1.1542.073 3.6814.852 4.6478.19-2.5354-.108-5.0969-1.269-7.1505-2.091-5.2586-2.104-9.7362-3.856-13.9433-6.842-1.5633-1.109-4.54058-2.392-5.18412-4.371h.53629c1.16323 1.789 3.28473 2.776 5.00533 3.991 5.6261 3.974 12.5726 6.92 20.2 8.743-1.8927-1.864-5.0927-2.542-7.3292-3.991-5.9528-3.857-11.3381-7.954-15.016-14.255-1.1017-1.888-2.4928-4.0169-2.68137-6.8425h.35747v.3801c.5202.7827.5174 1.9246.8939 2.8509.6176 1.5205 1.6058 3.2045 2.5026 4.5615 3.7914 5.738 9.637 9.398 15.3735 13.114 1.9967 1.294 4.0516 2.428 6.2566 3.612.6359.342 1.7497 1.181 2.3239.95.441-.246.1217.082.3575-.38-.9866-1.575-1.0313-5.196-1.6088-7.223-.765-2.683-1.2941-5.446-2.1452-8.172-.4971-1.593-1.4191-3.09-1.6088-4.942h.3575v.1901c.4676.5835.4015 1.2799.7151 2.0909 1.4524 3.758 2.4034 8.225 3.5752 12.354.3754 1.32.212 3.14.8938 4.181.1271-2.423.7179-6.9.1787-9.503-.2979-2.407-.5958-4.815-.8938-7.222-2.3995-9.9976-4.8056-21.8028-16.6247-21.6675zm100.106 11.4038c4.196-.4617 9.794-3.7382 9.832-8.5528h-.179c-3.168 4.5873-12.318 6.3901-18.591 7.9826-1.929.4898-7.699.1002-8.938.9503 5.094.0409 11.518.8873 16.267-.19v.5702h-.357c-1.183.8501-3.863.5702-5.721.5702-4.598-.0012-9.121-.7223-13.228-.9504v.1901h.358c1.561 1.3305 4.096 1.412 6.256 2.0907 8.208 2.5782 16.689 1.4709 21.452-3.6112 1.108-1.1833 2.243-2.4898 2.502-4.5615h-.179v.3801l-1.608 2.0907c-2.172 1.7509-4.691 2.9091-7.866 3.6112zm-74.3645-7.7926c.2818 1.3234.6094 2.8202.8939 4.1814.5091 2.4366.2792 5.8277-.1788 7.9827-.904 4.2538-.9421 7.8052-2.3239 11.4042-.9019 2.348-1.6982 4.82-2.6814 7.222-.423 1.034-1.12 2.053-1.4301 3.231h.1788v-.19c.9687-1.126 1.37-2.642 2.1451-3.991 2.0733-3.652 3.7524-7.542 5.0053-11.594l1.2513-6.0822c.2537-1.1649-.2742-2.1246.5363-2.6609v2.2807c-.3725.662-.143 1.5854-.3575 2.4709l-1.6089 6.2725c-1.7243 4.47-3.9227 8.479-5.8991 12.544h.1788c1.2141-2.232 2.9985-4.222 4.2902-6.462 2.4248-4.205 3.6836-9.304 5.0054-14.6353.9615-3.8784-.1679-9.3068-2.1452-10.8336-.7545-.5827-1.8083-.9123-2.8602-1.1404zm-27.5292 8.3628c1.5606.6517 2.4682 3.3432 3.3965 4.7516 2.3775 3.6064 4.7155 7.1649 6.9717 11.0239.7738 1.323 1.8895 2.5 2.3239 4.181h-.5363c-.4898-1.955-2.0613-3.759-3.0389-5.322-1.9246-3.075-3.564-6.1295-5.5416-9.1227-1.0567-1.5993-3.1689-3.4148-3.5753-5.5118zm37.3611 2.851c.1085 2.2427.0014 5.4016.5363 7.4125 1.6691 6.276 5.7663 13.034 10.3681 16.155v-.38l-1.7876-7.792c-1.8296-5.834-4.5827-12.3988-9.1168-15.3955zm19.8425 4.7515c-.6205.6394-1.4394.9623-2.1451 1.521-3.1999 2.531-5.7109 7.036-5.7204 12.924h.3575c.8306-1.095 2.4133-1.526 3.2177-2.661 1.5224-2.148 2.4267-4.191 3.3965-7.032.3348-.981 1.4272-3.7066.8938-4.752zm33.4281 1.1404c-.661.4916-1.654.4686-2.324.9506-3.113 2.236-3.328 6.364-4.29 11.023-.232 1.13-.82 4.227-.179 5.322-.089-4.843 1.743-9.007 3.576-11.974.652-1.056 1.124-2.598 2.323-3.041l.179.19c-2.441 4.084-5.411 7.794-5.541 14.445h.178v-.38c.736-.904.891-2.305 1.43-3.421 1.756-3.633 4.574-10.784 7.687-12.734v-.191h-.715c-.443-.312-1.591-.213-2.324-.1896zm5.721 0c-.616.5216-1.533.6336-2.146 1.1406-.875.723-1.486 2.064-2.145 3.041-2.912 4.314-5.056 9.121-7.15 14.445h.179v-.19c2.388-2.486 5.061-7.029 6.971-10.074.762-1.213 1.617-3.964 3.039-4.371v.38c-1.556 1.661-2.513 4.101-3.754 6.082-1.329 2.123-3.032 4.063-4.29 6.272h.179v-.19l4.648-4.942c1.585-1.273 3.022-2.551 4.647-3.801.917-.705 1.623-1.714 2.86-2.091v.571c-1.733.589-2.95 2.36-4.29 3.421-2.767 2.19-5.611 4.68-7.686 7.602l-2.146 2.281h.179c1.129-1.104 2.782-1.581 4.112-2.471 3.004-2.011 8.593-5.638 10.547-8.553 1.552-2.317 1.761-6.937-1.073-7.982-.614-.5289-1.539-.5896-2.681-.5706zm-62.3881 4.7516c2.791 8.128 5.2656 9.981 12.6921 13.114l-4.469-4.751c-2.692-3.896-3.1741-6.746-8.2231-8.363zm67.2141 3.041c-.922 3.565-7.016 7.619-9.832 9.503-.904.605-2.031.851-2.681 1.711h.179c.713-.654 1.729-.712 2.681-1.141 3.228-1.452 8.373-2.977 9.296-6.842h.357v.95c-.719.722-1.162 1.848-1.966 2.471-1.196.928-2.946 1.846-4.291 2.471-1.598.744-3.152 1.435-4.647 2.091-1.024.449-2.237.461-3.039 1.14 5.804.068 11.951-2.148 14.301-5.892.637-1.016 2.165-3.339 1.072-4.941-.196-.69-.569-.99-.894-1.521zm-114.94326 3.041c.04398 5.508 5.11616 8.173 9.47436 9.123v.38h-1.0726c-.7846-.621-1.9127-.697-2.8602-1.14-1.98028-.927-4.75877-2.948-5.3628-5.322h-.17876v.38l.71504 2.091c.8232 1.703 2.2978 3.535 3.75399 4.561 5.41643 3.821 13.75263 4.015 20.91503 1.901 1.7394-.513 3.7574-.474 5.0053-1.52-3.9256.104-8.7541.431-12.8708.19-2.1415-.126-4.9486.306-6.2566-.761-.143-.194-.0635-.052-.1788-.38h.7151c1.3317 1.012 10.3967 1.247 12.5132.76 1.0585-.243 2.6243.328 3.3965-.19-8.2945.195-18.6492-3.258-23.77522-6.652-1.43956-.953-2.56057-2.433-3.93274-3.421zm71.68316 14.255c-.7586 1.225-2.2166 1.881-3.0389 3.041-2.318 3.264-4.2341 6.418-5.1841 11.214h.3575c.7598-1.225 2.2167-1.882 3.039-3.041 2.193-3.089 4.5911-6.501 5.1841-11.214zm-19.3062.95c-.0357 7.137 3.182 11.724 6.0779 15.775.8568 1.199 2.1094 2.743 3.5752 3.231v-.38c-.5021-.902-.5048-4.625-.8938-5.892-1.4594-4.751-4.8801-10.662-8.7593-12.734zm75.0793 2.471-1.43.76c.085.247.217.753.358.951.866-.604 2.088-.42 2.502-1.521h-.357c-.254-.183-.585-.185-1.073-.19zm-13.764 1.14c-.668 1.787-.719 4.025-.715 6.653h.178v-.381c.941-1.256 1.359-4.583.716-6.272zm-39.6852 3.041c-.9553 1.127-1.4301 2.786-1.7876 4.562h.1788v-.38c.562-.568 1.9933-3.459 1.6088-4.182zm-28.6017.571c2.1898 5.064 5.3919 8.501 10.0106 11.023.8232.45 4.326 2.13 5.5416 1.331-2.5048-.867-5.2869-5.284-6.6142-7.603-.3171-.554-.3051-1.437-.715-1.901-1.7192-1.945-5.7831-1.691-8.223-2.85zm26.2778.95c-.5522.757-1.4177 1.13-2.1451 1.71-1.9571 1.563-5.631 6.129-6.0779 9.123h.3575c.5991-.578 1.4203-.662 2.1452-1.14 2.6589-1.751 3.9381-2.921 5.0053-6.462.2445-.811 1.0974-2.435.715-3.231zm52.0191.19c-1.17.741-3.235.145-4.29.95h.358c1.281 1.082 4.075.989 5.72.57.278-.454.523-.555.715-1.14-.464-.145-.947-.209-1.43-.19-.254-.183-.585-.186-1.073-.19zm-59.1695 5.512c-.7556.974-1.448.715-1.4301 2.661h.1788v-.38c.5139-.427 1.0387-1.375 1.2513-2.091h.1788zm35.5735.38c-.25 1.714-.885 5.578.179 7.032.12-2.027 1.314-5.659-.179-7.032zm-30.3894 1.901c-1.1084 1.25-2.8153 2.415-4.2903 3.231l-2.5027 1.14c-.2383 5.765-.4767 11.531-.715 17.296-.7447 3.672-.1089 7.784-.8938 11.594-.4433 2.151-.2215 4.512-.7151 6.842-1.1399 5.381-1.4796 11.238-2.6814 16.345-.9222 3.92-.3196 7.776-.1787 12.164.0552 1.722-.2701 5.374.3575 6.463-.0222-2.891.6557-5.908 1.2513-8.363l1.0726-6.842c1.0443-3.944 1.9891-8.181 2.8602-12.165.1191-2.788.2383-5.575.3575-8.362.3952-1.882.0981-4.022.5363-6.082.6554-5.069 1.3109-10.137 1.9663-15.205 1.0208-4.372 1.5442-9.142 2.6815-13.305.2306-.844 1.0089-4.548.8938-4.751zm-42.1877 1.9c0 5.681 3.1167 13.488 6.2567 15.775v-2.09c-.5542-.965-.3611-2.464-.7151-3.611-1.0084-3.269-3.1378-8.375-5.5416-10.074zm82.9451 1.141c-.866.573-2.605.404-3.575.76v.19c1.818.304 6.713 2.566 7.329-.38h-.357c-.678-.659-2.073-.602-3.397-.57zm-106.36276 1.9c-.74132.497-2.54609.57-3.39646.76.18252.152.04898.068.35753.191 1.59794 1.375 7.83399 3.022 10.54689 2.47 1.837-.373 3.5967.167 4.8266-.76-3.554-1.724-6.936-2.609-12.33456-2.661zm86.69916 2.851c-.4058 1.749-1.3969 6.47-.1788 8.363.0715-1.88 1.6298-7.007.1788-8.363zm-52.9133 5.892c-.0493 5.819 3.0032 12.728 6.2566 15.015v-1.14l-1.0725-5.132c-1.0528-3.024-2.7951-7.097-5.1841-8.743zm64.1749 2.091-7.329 1.14v.19h.358c2.25 1.761 9.408 1.211 10.725-.95l-.536-.19c-.594-.413-2.299-.215-3.218-.19zm-82.4085.76c-.7696.496-2.1575.223-2.8602.76h.1787c2.4176 2.44 11.439 3.522 15.5523 1.901-.1826-.152-.049-.068-.3576-.19-2.2742-2.231-8.0408-2.454-12.5132-2.471zm62.9239.38c-.3515 3.027-.5306 6.074-.5363 9.123h.3575v-1.14c.6807-1.06.9893-7.012.1788-7.983zm14.8376 6.462c-.975.623-2.632.397-3.7545.761l-5.3628 2.09v.19h.8938c2.2306-1.399 7.5845-.413 8.5805-3.041zm-68.6447 4.182.8938-.19v-.19l-.8938-.761zm57.0248.19c-.2535.182-.5851.185-1.0726.19-.6435 1.181-1.6089 2.15-2.3239 3.231-1.3623 2.061-2.4353 4.165-3.754 6.272-.4242.679-1.3557 1.496-1.6088 2.281-.0596 1.33-.1192 2.661-.1788 3.991-.4319 1.946-1.0145 3.862-1.4301 5.702h.1788c1.4344-2.235 3.4392-2.064 3.3964-6.082.3556-.631.1529-1.657.3576-2.471.4171-1.52.8342-3.041 1.2513-4.561 1.362-3.43 3.5709-5.725 5.3628-8.553zm-53.4496.38c-.1378.13-.399.249-.5363.38.7129.801.8849 2.463 2.1451 2.661 1.9248 1.371 7.6671.269 9.6531-.19v-.19c-1.1714-.315-2.2881-1.127-3.3964-1.521-2.3035-.818-5.0012-1.089-7.8655-1.14zm-3.0389.38c-.2576.391-.2777.247-.3576.95.8184.495 1.714.974 2.8602 1.141v-.19c-.4839-.503-.9026-1.274-1.2513-1.901zm-23.954.76-3.57525.761c.18252.152.04898.067.35752.19 1.44475 1.466 8.23483 3.131 11.08323 2.47 1.4962-.347 3.6251.229 4.2902-.95-1.3614-.208-2.5268-1.097-3.754-1.52-2.479-.856-5.2019-.905-8.4017-.951zm80.8 0c-.583.959-1.5329 1.735-2.1452 2.661-2.491 3.796-3.8603 8.296-3.9327 12.925h.1788c.8148-1.321 2.0697-2.443 2.8601-3.802 1.2734-2.187 1.7285-4.459 2.5027-7.222.2699-.964 1.1239-3.505.5363-4.562zm-56.846 1.711c.7037 3.717 3.2014 9.298 5.7203 11.024v-1.141c-.3852-.703-.1251-1.75-.3575-2.661-.3692-1.448-1.2871-5.528-2.3239-6.082zm15.1946.76c-2.2945 1.884-7.3771.869-10.5469.76v.19c1.4507 1.73 2.1219 7.162 2.1452 10.454l3.5752 3.421v-.38c-1.3992-1.893-1.6047-6.648-1.6088-10.073.0595-.063.1192-.128.1787-.19.3136.119.1736.036.3575.19 3.0509 1.222 6.36 9.031 7.3292 12.924.1788 1.963.3576 3.927.5363 5.892.5138 1.22 2.2789 2.961 3.039 4.181 2.0254 3.309 3.7607 6.808 5.184 10.454h.1788c.2642-4.832 2.129-9.65.715-15.015-1.4994-5.689-3.5886-11.336-6.2566-15.966-1.1112-1.929-3.6228-4.867-4.2903-6.842zm62.2088.38c-.772.489-2.054.109-3.039.38-2.218.61-4.229 1.685-6.256 2.281v.19c3.178.469 7.154 1.203 10.546.19 1.832-.547 3.618-1.576 5.363-2.09v-.19c-2.104-.254-4.082-.739-6.614-.761zm-67.7503 5.892c.6792 2.382.488 4.845 1.2513 7.033.4455 1.277 1.062 3.029 1.7876 4.181.6555.698 1.3109 1.394 1.9664 2.091.4626.648.7009 1.353 1.4301 1.71v-.19c-.2384-1.458-.4767-2.915-.7151-4.371-.8282-2.878-3.3771-9.576-5.7203-10.454zm-17.8762 2.851c-.6405.445-2.1451.54-3.0389.57v.381h.3575c2.355 2.358 11.4431 3.261 15.3735 1.71v-.19c-1.4798-.228-2.9124-1.239-4.2903-1.711-2.4383-.836-5.2568-.718-8.4018-.76zm54.7009.951c-.286.992-.9713 1.687-1.4301 2.47-2.0237 3.459-4.3735 6.62-4.6477 11.784h.1787v-.19c2.586-2.59 3.9928-5.322 5.1841-9.503.2814-.988 1.2445-3.526.715-4.561zm13.9434 1.9-3.2177.57c-1.7769.552-3.5102 1.251-5.1841 2.091v.19c2.5181.236 5.3146 1.283 8.223.57 2.7313-.671 5.118-1.771 7.508-2.471v-.19c-2.4121-.519-4.8681-.774-7.3292-.76zm-58.0974 8.933c-.5731.405-1.8821.519-2.6814.57v.19h.1788c2.8189 2.81 11.1681 2.937 15.731 1.901v-.19c-1.6089-.633-3.2177-1.266-4.8266-1.901-2.3968-.758-5.3778-.536-8.4018-.57zm31.1045 1.711c-.135 2.267-.9038 4.626-1.4301 6.652l-1.0726 6.842c-.2842 1.169-1.2198 4.301-.715 5.322.4161-2.98 2.441-5.381 3.2177-7.983v-6.082c.143-1.003.5443-3.797 0-4.751zm5.8991.57c-.3867 1.598-1.5693 3.244-2.3239 4.561-.5959 1.394-1.1917 2.787-1.7876 4.182h.1788v-.19c1.0053-1.042 1.5015-2.557 2.3238-3.802.3835-.581 1.3511-1.262 1.6089-1.9v-2.281c.1575-.327.1589-.243 0-.57zm9.6531.57c-.7794.506-2.0895.266-3.0389.57-1.6685.633-3.3369 1.267-5.0054 1.901.0596.063.1193.127.1788.19 2.4776 1.942 10.3122.317 12.5133-.57 1.0153-.409 2.5729-.538 3.0389-1.521h-.8938c-1.3573-.975-4.6599-.591-6.7929-.57zm-21.9876 10.644-.7151 5.892c.2353.944.8288 1.94 1.0726 3.041h.1788v-1.141c-.906-1.592.404-6.188-.5363-7.792z" fill="#000" fill-rule="evenodd"/></svg>