<svg fill="none" height="83" viewBox="0 0 89 83" width="89" xmlns="http://www.w3.org/2000/svg" xmlns:xlink="http://www.w3.org/1999/xlink"><clipPath id="a"><path d="m0 0h89v83h-89z"/></clipPath><g clip-path="url(#a)"><path clip-rule="evenodd" d="m31.1693 53.9744.5152-2.1198h.2576c.3171 1.2795 1.0223 1.6906 1.5456 2.7721-.0574-.014-.2081.0106-.2576 0-.0395-.0108-.2944-.1438-.3864-.1631-.3458 1.7848-.809 3.9633-.9016 6.1965-.2693.1828-.2359.2338-.644.3261-1.4649-4.9594-5.5448-7.6776-9.7887-11.2515-3.0139-2.5381-4.7765-4.0004-7.7279-6.6856-.9843-.8954-4.48736-4.0685-5.40956-5.055-3.1454-3.3654-6.62091-6.4365-7.649366-12.6788-.6839216-4.1484-.173234-8.1213 1.209426-10.8026 1.95671-3.7945 4.06888-6.08 7.98552-7.33789.30538-.33803 3.34878-.59796 4.12158-.65226 1.8161.06523 3.1746.19699 4.6367.65226 1.245.43473 2.7478 1.19592 3.9928 1.63065 2.0877 1.61434 3.0516 2.29234 4.6368 4.40274.6697.892 1.2824 2.0885 2.0607 3.0982.0077-1.6357.0937-3.2694.2576-4.8919.2981-1.42127 1.2919-3.08714 2.0711-3.97047 1.9646-2.22714 4.4344-4.36541 7.2025-5.16116v-.16307c-1.1658.17432-4.4327 1.93901-5.0232 1.63065l-.1288-.16306c1.6761-1.26832 2.7982-2.10354 5.0078-2.712097 1.8829-.519036 4.6501-.635301 7.3569-.549203.9929.003261 1.9839.112356 2.9624.32613.8017.203668 1.5804.5323 2.3183.97839 6.0161 3.48323 9.5075 16.16629 5.9248 25.76429h-.2576c-.2333-.4159-.479-.4534-.644-.9784.3275-.2464.6227-.4827.7728-.9784-.3964-.158-3.9284-2.8905-3.9928-3.2613.6358-2.6379.4674-6.1949-.2576-8.6425-.528-1.7834-1.8234-4.17279-2.9623-5.21803-2.5823-2.36999-7.3859-3.90068-11.2055-1.95678-2.9849 1.51911-5.1664 4.13341-6.1824 8.15321-.3349 1.3261-.1854 6.1226-.9016 6.6857 0-.1088-.3864-1.1958-.3864-1.3045-.3808-.7288-.365-.8325-.644-1.4676-1.4864-.6513-1.0155-.3118-1.4167-.6523l-1.5456-1.9568c-1.0903-.6049-4.5545-2.3567-5.2808-2.7721-2.2153-1.2665-2.3627-1.2978-4.8943-2.4459-.9899-.4489-4.5209-.8615-5.4096-.1631.9241.0509 2.1051.2723 2.8336.6523v.3261c-2.4093.0083-5.0112.8866-6.43996 2.2829-.82715.8083-1.11592 2.4112-1.54559 3.7505-.339 1.0563-.76816 2.337-1.03039 3.4244-.46986 1.9479.67529 5.5376 1.15919 6.5226 1.38987 2.8285 3.70945 5.5115 5.79595 7.5009 1.2086 1.1529 2.2529 2.7661 3.4776 3.9136 2.9255 2.7413 5.7713 5.4415 8.7583 8.1532 1.5172 1.3774 4.4455 6.5971 6.0535 7.0118zm12.1071-52.66992v.32613l.7728.16306.1288-.16306v-.16307zm-34.90446 10.43612v.3262c.17761-.0184.35165-.0735.51519-.1631v-.1631zm47.01156 14.1867c-1.7674-.297-3.2496-1.5655-5.1519-1.7937v.163c1.4886.2701 3.001 1.5791 4.1215 2.446 3.2669 2.5275 5.6099 4.7767 5.5384 11.5776h.1288c2.3312-4.9859 5.7971-7.4521 10.8191-9.1316 1.4812-.4951 3.8545-.4765 5.6671-.4892.8453-.0061 3.1969.2097 4.6368.9784 4.0908 2.1839 6.7855 6.3574 7.8567 12.3929.7871 4.4354-1.8638 9.938-3.0912 12.0668-1.4976 2.5978-3.6255 4.6097-5.6671 6.5226-1.2179 1.1414-2.3579 2.64-3.6064 3.7505-3.8409 3.4162-7.8725 6.3719-11.7207 9.7839-1.1007.9759-2.1467 2.2643-3.2199 3.2613-.6257.5811-1.4702 1.0216-1.932 1.7937-.5966.9974-1.1807 3.5372-2.3184 3.7505l-.1288-.4892c-.466-.9668-.1432-2.4936-.3864-3.7505-.1603-.7839-.3758-1.5479-.644-2.2829-.4706.1586-.5152.3649-1.0304.4892-.7238-1.5731-1.2155-3.5827-2.0608-5.055-1.1205-1.9518-5.0679-4.3898-6.8263-5.8704-5.0199-4.2271-11.2932-9.7764-14.4255-16.3065-.853-1.7783-1.1442-4.0277-1.5456-6.3595-.4678-2.7186.1932-6.1092.644-7.9902 1.6018-6.6833 4.0756-11.2903 9.6599-12.8821h2.3184c3.22-.8452 7.0849-.1019 9.4023 1.1415.9637.517 2.6791.9542 2.9624 2.2829zm-9.9175-2.6091c-.152.1305-.2165.1261-.5152.1631v.1631h.1288c.1674.143.3178.1457.644.163l.2576-.3261v-.1631zm.2576 4.0767c-.6392.014-2.2262.482-2.7048.6522-1.747.6215-3.78 1.9049-4.7655 3.5874-2.9135 4.9735-3.2181 12.1115-.2576 17.448 1.2901 2.3256 3.4724 5.6994 5.2807 7.3379 1.2659 1.1468 2.6275 1.9501 3.864 3.0982 1.2493 1.1601 2.357 2.7532 3.6064 3.9136 1.553 1.4421 3.3677 2.9515 4.5079 4.8919 1.3138 2.2366 1.9254 4.8183 2.8336 7.6641h.2576c.4836-.8855 1.3327-1.5242 1.932-2.2829l3.2199-4.2397c1.3575-1.2796 2.7505-2.34 4.1216-3.5874 3.0672-2.7909 5.7739-6.2811 8.7583-9.1317 2.5088-2.3962 4.7098-5.2485 6.1824-8.9685.36-.9095 1.1076-3.0117.7728-4.5659-.2408-1.1178-.952-2.2503-1.288-3.2613-.2147-.9783-.4294-1.9567-.644-2.9351-.6246-1.7714-2.5374-2.5476-4.1216-3.0983-.8533-.2966-2.6495.0033-3.0912-.8153l.1288-.163 2.576-.4892v-.1631c-4.5306-.8869-7.4734 1.2324-10.9479 3.0982-.93.4995-3.5253 1.7665-4.3791 2.446-.6183.4921-1.194 1.2517-1.6744 1.9568-.1803.2655-1.071-.0038-1.4168.6522-.3528.6686-.7841 2.1199-1.0304 2.7721h-.2576c-.5142-10.7785-4.0346-15.5563-11.4631-15.8172zm-39.54124 1.7937c.50424 1.4418 1.50102 4.044 2.70477 4.5658v-.1631c-1.12699-1.1263-1.53889-3.3614-2.70477-4.4027zm43.27644.3261c1.9675.5197 3.001 2.0709 4.3791 3.2613v.3261c-1.3741 1.1317-2.4259 3.0004-3.7351 4.2397-2.4054 2.2769-4.8042 4.3865-7.3416 6.5226-1.1483.9671-2.9687 3.2302-4.3791 3.5874-.3844-1.5828-1.1931-2.8096-1.288-4.8919 2.2153-1.6307 3.9826-4.188 6.0535-6.0334 1.9976-1.7799 5.474-3.9605 6.3112-7.0118zm30.7829 4.2397c.2147.316.1853.272.644.3261v-.1631l-.1288-.163zm-35.9349 5.3811-.1288.3262c.2246-.2283.1288-.3262.1288-.3262zm-.3864.3262-.1288.3261c.2246-.2283.1288-.3261.1288-.3261zm-11.0767 7.3379c.28 1.4923 1.2771 3.4907 2.1896 4.2397v-.3262c-.8385-1.1406-1.1691-3.0133-2.1896-3.9135zm49.8452 4.7288c-.604 1.5218-1.8697 2.6389-2.3184 4.2397h.1288c.342-.6395 2.54-3.6016 2.1896-4.2397z" fill="#000" fill-rule="evenodd"/></g></svg>