<svg fill="none" height="25" viewBox="0 0 150 25" width="150" xmlns="http://www.w3.org/2000/svg"><path clip-rule="evenodd" d="m.355026 19.9152.177515-.1412.177515-.2825.177515-.1412.355029-.2825.35503-.2825.35503-.2825.35503-.2825.35503-.2825.35503-.1412.53254-.1412.35503-.1413.17752-.1412.35503-.1413.53254-.1412.53254-.1413.53255-.1412.53254-.1412.53255-.1413.53254-.1412h.53255l.53254-.1413.53255-.1412h.88753l.5326-.1413.355-.1412h6.9231l.355.1412h.8876l.355.1413h.3551l.5325.1412.7101.1413h.8875l.8876.1412.8876.1413.71.1412.7101.1412.5325.1413.5326.1412.5325.1413.5326.1412.71.1413.8876.1412.5325.1412.5326.1413.7101.1412.5325.1413 3.5503.9887 1.4201.4237 1.0651.1412.8876.2825 1.2426.4238 1.2426.1412.8876.2825 1.2426.2825 1.4201.2825 1.5976.2824 1.0651.2825 1.2426.2825 1.2426.1413.8876.1412.71.1412.8876.1413 1.0651.2825.5325.1412.5326.1413h2.6627l.7101.1412h1.0651l.8875.1412h3.3728l.355-.1412.7101-.1412.7101-.1413.71-.1412.7101-.1413.71-.2825.7101-.4237.5325-.2825.7101-.4237.7101-.4237.71-.4238.5326-.7062.5325-.5649.355-.4238.3551-.2825.1775-.5649v-.565l.1775-.565v-.7062l-.1775-.565-.355-.7062-.5326-.5649-.7101-.565-.71-.2825-1.0651-.1412h-1.7751l-.7101.1412-.7101.1412-.355.2825-.7101.2825-.71.1413-.5326.2824-.8875.4238-.8876.4237-.7101.1412-.71.2825-.7101.1413-.5325.1412h-.5326l-.71-.1412-.3551-.1413-.1775-.1412h.8876l.7101-.2825.71-.2825.5326-.565.355-.4237.8876-.565.71-.7062.7101-.2825.5325-.2824.7101-.2825.8876-.1413.8875-.1412h2.3077l.7101.2825.71.2825.7101.2824.5325.2825.3551.4238.5325.2824.5326.565.355.565.1775.2825.1775.2825v2.6836l-.355.5649-.355.8475-.3551.4237-.5325.4238-.5326.5649-.5325.4238-.8876.7062-.71.4237-.7101.4237-1.0651.2825-.8876.2825-.8875.1412-.7101.1413-.8876.2825-.71.1412-1.0651.1413h-.8876l-1.4201-.1413h-3.5503l-1.0651-.1412-1.4201-.1413-.7101-.1412h-.8875l-1.2426-.1413-1.2426-.2824-1.4202-.1413-1.2426-.2825-1.2426-.1412-1.0651-.2825-.8875-.1412-1.0651-.1413-.8876-.2825-1.0651-.1412-2.1302-.565-1.2426-.2825-1.7751-.4237-1.9527-.4237-2.6627-.8475-1.7751-.4237-1.5977-.565-2.6627-.4237-1.7751-.2825-1.7752-.4237-1.9527-.1413-1.7751-.2825-1.4201-.1412h-5.50298l-.88757.1412h-.88757l-.71006.1413-.71006.1412-.88758.1413-.88757.2825-1.06509.4237-.71006.2825-.71006.2825-.71006.4237-.71005.565-.177519.1412zm144.141974 0-.177-.1412-.178-.2825-.178-.1412-.355-.2825-.355-.2825-.355-.2825-.355-.2825-.355-.2825-.355-.1412-.532-.1412-.355-.1413-.178-.1412-.355-.1413-.532-.1412-.533-.1413-.532-.1412-.533-.1412-.533-.1413-.532-.1412h-.533l-.532-.1413-.533-.1412h-.887l-.533-.1413-.355-.1412h-6.923l-.355.1412h-.888l-.355.1413h-.355l-.532.1412-.71.1413h-.888l-.887.1412-.888.1413-.71.1412-.71.1412-.533.1413-.532.1412-.533.1413-.532.1412-.71.1413-.888.1412-.532.1412-.533.1413-.71.1412-.533.1413-3.55.9887-1.42.4237-1.065.1412-.888.2825-1.242.4238-1.243.1412-.887.2825-1.243.2825-1.42.2825-1.5978.2824-1.065.2825-1.2427.2825-1.2426.1413-.8875.1412-.7101.1412-.8876.1413-1.065.2825-.5326.1412-.5325.1413h-2.6628l-.71.1412h-1.0651l-.8876.1412h-3.3728l-.355-.1412-.7101-.1412-.71-.1413-.7101-.1412-.71-.1413-.7101-.2825-.71-.4237-.5326-.2825-.71-.4237-.7101-.4237-.7101-.4238-.5325-.7062-.5326-.5649-.355-.4238-.355-.2825-.1775-.5649v-.565l-.1775-.565v-.7062l.1775-.565.355-.7062.5325-.5649.7101-.565.7101-.2825 1.0651-.1412h1.7751l.7101.1412.71.1412.355.2825.7101.2825.7101.1413.5325.2824.8876.4238.8876.4237.71.1412.7101.2825.71.1413.5326.1412h.5325l.7101-.1412.355-.1413.1775-.1412h-.8875l-.7101-.2825-.7101-.2825-.5325-.565-.355-.4237-.8876-.565-.7101-.7062-.71-.2825-.5326-.2824-.71-.2825-.8876-.1413-.8876-.1412h-2.3077l-.71.2825-.7101.2825-.7101.2824-.5325.2825-.355.4238-.5326.2824-.5325.565-.355.565-.1776.2825-.1775.2825v2.6836l.3551.5649.355.8475.355.4237.5326.4238.5325.5649.5325.4238.8876.7062.7101.4237.71.4237 1.0651.2825.8876.2825.8876.1412.71.1413.8876.2825.7101.1412 1.0651.1413h.8875l1.4201-.1413h3.5503l1.0651-.1412 1.4202-.1413.71-.1412h.8876l1.2426-.1413 1.2426-.2824 1.4201-.1413 1.2426-.2825 1.2426-.1412 1.0652-.2825.887-.1412 1.066-.1413.887-.2825 1.065-.1412 2.13-.565 1.243-.2825 1.775-.4237 1.953-.4237 2.663-.8475 1.775-.4237 1.597-.565 2.663-.4237 1.775-.2825 1.775-.4237 1.953-.1413 1.775-.2825 1.42-.1412h5.503l.888.1412h.887l.71.1413.71.1412.888.1413.888.2825 1.065.4237.71.2825.71.2825.71.4237.71.565.177.1412zm-72.426-19.350236v.706216l-.355.28248-.3551.28249-.1775.28249-.1775.28248v.14125l-.355-.14125h-.7101l-.355.14125.1775.14124.355.14124.3551.28249.355.14124.355.28249.1775.28248.1776.14124.355.56498.1775.28248v.14125l-.1775.14124-.355.28248-.1776.14125-.1775.28248-.1775.14125-.1775-.14125-.1775-.14124-.3551-.28249-.1775-.14124-.1775-.28248-.1775-.28249-.355-.28249-.1775-.42373v-.14124l-.1776-.28248-.355.70621-.1775.14124h-.7101l-.355.14125-.1775.14124-.355.14124h-.1775l-.3551.14125h-.355l-.1775.14124h-.1775l-.3551.14124h-.355l-.1775-.14124.1775-.14124v-.14125h-.7101v.28249l.1776.28248.355.14125h.5325l.5326-.14125.355-.14124.5326-.14124h1.2426l.355-.14124h.5325l.3551.14124.5325.28248.355.28249.3551.28249.1775.14124v.14124l-.1775.28249-.1776.14124-.355.28249-.1775.14124h-.355l-.1775-.14124-.3551-.14125-.355-.14124-.5325-.14124-.5326-.14125-.355-.14124h-.8876l-.1775.14124-.355.14125-.1776.28248-.1775.28249v.28249l.3551.28248.355.14124.5325.14125h1.4202l.355-.14125.355-.14124.355-.14124h.5326l.1775.14124.1775.14124.355.28249.3551.14124v.14125l-.1775.14124-.1776.14124-.355.14124-.355.14125-.355.14124-.5326.14124-.5325.14125h-1.5977l-.5325-.14125-.5326-.14124-.5325-.14124-.7101-.28249-.5325-.28248-.355-.14125-.1775-.14124-.1776-.28249v-1.41243l-.355.28249-.1775.14124-.1775.28249h-.1775l-.3551-.14124-.355-.14125-.1775-.14124-.355-.14124h-.7101l-.355.14124-.5326.14124-.1775.14125-.1775.14124-.355.28249v.28248l.1775.14124.1775.14125h.1775l.1775-.14125.1775-.14124v-.28248h-.1775v-.14125l.1775-.14124.1776-.14124h1.0651l.1775.14124.1775.14124.355.14125.1775.14124.5326.28248h-.5326l-.355.14125-.1775.14124v.42373l.1775.14124h.1775v-.14124l.1775-.14124h1.0651l.7101.28248.71.28249.5326.14124.8875.28249.5326.14124.5325.14124h2.1302l.355-.14124.5326-.14124.5325-.14125.8876-.56497.355.14124.1776.14125.1775.14124.1775.14124.1775.14125-.355.14124-.1775.14124-.3551.14125-.355.14124-.355.1412-.5326.1413-.5325.1412-.5326.1413v.2825l.5326.1412.355.2825.355.1412h1.0651v.565l.1775.2825.1776.1412.1775.2825.1775.1413.355.2824v-1.2711l-.355-.1413-.1775-.1412-.1775-.1413v-.9887l.1775-.2825.1775-.28244.1775-.14125.1775-.14124v-.28249l-.1775-.14124-.1775-.14124-.355-.28249-.1776-.14124.1776-.14124.1775-.14125.1775-.14124.1775-.14124.1775-.14125v-.56497l-.355-.28248-.1775-.28249-.3551-.14124-.1775-.14125v-.28248l.3551-.28249.355-.28248.1775-.14125.1775-.14124v-.9887l-.1775-.28249-.355-.28248v-.28249l-.1775-.14124v-.70621l.1775-.14125v-.28248l.1775-.14125.1775-.28248.1775-.14125v-1.129939zm.355 0v.706216l.3551.28248.355.28249.1775.28249.1775.28248v.14125l.355-.14125h.7101l.355.14125-.1775.14124-.355.14124-.355.28249-.3551.14124-.355.28249-.1775.28248-.1775.14124-.3551.56498-.1775.28248v.14125l.1775.14124.3551.28248.1775.14125.1775.28248.1775.14125.1775-.14125.1775-.14124.3551-.28249.1775-.14124.1775-.28248.1775-.28249.355-.28249.1776-.42373v-.14124l.1775-.28248.355.70621.1775.14124h.7101l.355.14125.1775.14124.3551.14124h.1775l.355.14125h.355l.1775.14124h.1776l.355.14124h.355l.1775-.14124-.1775-.14124v-.14125h.7101v.28249l-.1775.28248-.3551.14125h-.5325l-.5326-.14125-.355-.14124-.5325-.14124h-1.2426l-.3551-.14124h-.5325l-.355.14124-.5326.28248-.355.28249-.355.28249-.1776.14124v.14124l.1776.28249.1775.14124.355.28249.1775.14124h.355l.1776-.14124.355-.14125.355-.14124.5326-.14124.5325-.14125.355-.14124h.8876l.1775.14124.3551.14125.1775.28248.1775.28249v.28249l-.355.28248-.3551.14124-.5325.14125h-1.4201l-.3551-.14125-.355-.14124-.355-.14124h-.5326l-.1775.14124-.1775.14124-.355.28249-.3551.14124v.14125l.1776.14124.1775.14124.355.14124.355.14125.3551.14124.5325.14124.5326.14125h1.5976l.5325-.14125.5326-.14124.5325-.14124.7101-.28249.5325-.28248.355-.14125.1776-.14124.1775-.28249v-1.41243l.355.28249.1775.14124.1775.28249h.1776l.355-.14124.355-.14125.1775-.14124.3551-.14124h.71l.355.14124.5326.14124.1775.14125.1775.14124.355.28249v.28248l-.1775.14124-.1775.14125h-.1775l-.1775-.14125-.1775-.14124v-.28248h.1775v-.14125l-.1775-.14124-.1775-.14124h-1.0651l-.1775.14124-.1776.14124-.355.14125-.1775.14124-.5325.28248h.5325l.355.14125.1775.14124v.42373l-.1775.14124h-.1775v-.14124l-.1775-.14124h-1.0651l-.7101.28248-.71.28249-.5326.14124-.8875.28249-.5326.14124-.5325.14124h-2.1302l-.355-.14124-.5326-.14124-.5325-.14125-.8876-.56497-.355.14124-.1775.14125-.1775.14124-.1776.14124-.1775.14125.3551.14124.1775.14124.355.14125.355.14124.3551.1412.5325.1413.5325.1412.5326.1413v.2825l-.5326.1412-.355.2825-.355.1412h-1.0651v.565l-.1775.2825-.1775.1412-.1775.2825-.1776.1413-.355.2824v-1.2711l.355-.1413.1776-.1412.1775-.1413v-.9887l-.1775-.2825-.1776-.28244-.1775-.14125-.1775-.14124v-.28249l.1775-.14124.1775-.14124.3551-.28249.1775-.14124-.1775-.14124-.1775-.14125-.1776-.14124-.1775-.14124-.1775-.14125v-.56497l.355-.28248.1776-.28249.355-.14124.1775-.14125v-.28248l-.355-.28249-.3551-.28248-.1775-.14125-.1775-.14124v-.9887l.1775-.28249.3551-.28248v-.28249l.1775-.14124v-.70621l-.1775-.14125v-.28248l-.1776-.14125-.1775-.28248-.1775-.14125v-1.129939z" fill="#000" fill-rule="evenodd"/></svg>