<svg fill="none" height="27" width="180" xmlns="http://www.w3.org/2000/svg"><path d="M0 0h180v27H0z"/><path clip-rule="evenodd" d="M71.421 13.5 76.316 8l6.008-6.75 3.56 4 3.56-4 3.782 4 3.783-4L107.91 13.5 97.009 26l-3.783-4-3.56 4-3.782-4-3.338 4zm11.125-9.25L84.55 6.5l-6.008 7 6.008 7-2.225 2.5-8.232-9.25zm-1.335 9.25 4.673-5.25 2.225 2.5-2.225 2.75 2.447 2.75L86.106 19zm13.35-6.75 2.225-2.5 8.455 9.25-8.455 9.5-2.225-2.5 6.008-7zm-1.335 1.5L97.9 13.5 93.226 19l-2.225-2.5 2.448-2.75-2.448-3zM87.22 6.5 89.444 4l2.447 2.75-2.225 2.5zm0 14 2.447-2.75 2.225 2.5L89.444 23zm1.112-6.75 1.335-1.5 1.113 1.25-1.335 1.5zM.89 12.5h64.524V15H.89zm113.028 0h64.525V15h-64.525z" fill="#000" fill-rule="evenodd"/></svg>