<svg fill="none" height="77" width="63" xmlns="http://www.w3.org/2000/svg"><g fill="#000"><path d="M34.56 48.907 59.332 35.52l-10.082-5.823zM24 44.379l-5-29.646 9 4.089zM27.409 48.1l5.131-26.745 12.833 6.606zM31.333 5.192l9.334 3.748-7.933 7.847L21 10.985zM53 15l7.5 3.667L63 34l-10-6.333zM47.767 11.656l1.612 13.834-13.994-8.012z"/><path d="M20.369 23c-5.457 1.572-10.52 4.817-14.103 9.15A27.228 27.228 0 0 0 .085 47.343a27.093 27.093 0 0 0 3.703 15.95c2.854 4.826 7.136 8.686 12.278 11.07a28.536 28.536 0 0 0 16.513 2.276 28.253 28.253 0 0 0 14.912-7.322 27.375 27.375 0 0 0 8.04-14.332c1.136-5.466.121-11.718-2.106-16.851l-4.674 2.751c1.788 4.122 2.276 8.627 1.363 13.016a21.98 21.98 0 0 1-6.455 11.507c-3.291 3.105-7.467 5.155-11.973 5.88s-9.13.085-13.259-1.828a22.365 22.365 0 0 1-9.858-8.888c-2.291-3.875-3.328-8.34-2.973-12.807s2.086-8.72 4.962-12.199c2.877-3.479 6.431-6.145 10.812-7.407z"/></g></svg>