<svg width="63" height="77" viewBox="0 0 63 77" fill="none" xmlns="http://www.w3.org/2000/svg">
<path d="M34.5594 48.9075L59.3333 35.5192L49.2508 29.6961L34.5594 48.9075Z" fill="#000"/>
<path d="M24 44.3789L19 14.7329L28 18.822L24 44.3789Z" fill="#000"/>
<path d="M27.4089 48.1007L32.5405 21.3545L45.3731 27.9605L27.4089 48.1007Z" fill="#000"/>
<path d="M31.3334 5.19171L40.6667 8.94008L32.7339 16.7872L21 10.9846L31.3334 5.19171Z" fill="#000"/>
<path d="M53 15L60.5 18.6667L63 34L53 27.6667V15Z" fill="#000"/>
<path d="M47.7665 11.6561L49.379 25.4899L35.3852 17.4777L47.7665 11.6561Z" fill="#000"/>
<path d="M20.3685 23C14.912 24.572 9.84814 27.8171 6.26554 32.1498C2.68293 36.4825 0.527485 41.7812 0.0850358 47.3433C-0.357413 52.9054 0.934038 58.468 3.78813 63.2935C6.64222 68.1189 10.9241 71.9793 16.066 74.3627C21.2078 76.7461 26.9667 77.5398 32.579 76.6386C38.1912 75.7375 43.3916 73.184 47.4906 69.3168C51.5896 65.4497 54.3935 60.4515 55.5305 54.9852C56.6674 49.5188 55.6524 43.2672 53.4254 38.1338L48.7507 40.8853C50.5388 45.0071 51.0272 49.512 50.1144 53.901C49.2015 58.2901 46.9502 62.3032 43.659 65.4082C40.3678 68.5133 36.1923 70.5635 31.6861 71.2871C27.1799 72.0107 22.5559 71.3733 18.4274 69.4597C14.2989 67.546 10.8609 64.4464 8.56927 60.5719C6.27765 56.6974 5.24072 52.2311 5.59597 47.7652C5.95122 43.2993 7.68188 39.0448 10.5584 35.566C13.435 32.0871 16.989 29.4214 21.3702 28.1592L20.3685 23Z" fill="#000"/>
</svg>
