<svg fill="none" height="82" width="80" xmlns="http://www.w3.org/2000/svg"><mask id="a" fill="#fff"><path d="M44.395 43.582c3.617-8.211 3.496-20.092 1.113-26.458s-7.79-10.644-12.52-11.86c-4.452-.305-10.077-.248-15.025 3.649-4.947 3.896-8.979 9.155-11.115 16.513-2.136 7.359-2.518 15.419-1.405 22.11 1.67 6.69 5.008 10.644 10.573 13.685 4.73 1.825 10.572.912 13.633-.304.724-.288.278 0 1.113-.609l-.557-.608c-.278.608-3.06 1.52-3.895 1.52-1.21 0-4.451-.02-6.955-2.736-2.583-3.041-4.452-8.82-5.009-11.86-.834-7.908.768-13.42 1.868-17.21 1.1-3.79 4.213-8.945 6.201-11.682 4.138-5.698 8.347-7.907 13.633-8.211 5.466 0 8.233 6.758 9.46 10.036 4.73 20.68-7.234 31.628-6.678 32.54l.835.609z"/></mask><mask id="b" fill="#fff"><path d="M37.718 18.036c-4.174 0-9.475 4.328-12.243 9.124-2.75 6.082-2.878 11.883-1.39 18.55 1.487 6.668 5.44 12.838 10.415 17.944 4.609 4.728 7.273 6.514 14.068 7.907 4.452.912 10.295 0 16.138-4.572 3.789-3.748 5.472-9.775 5.196-16.255s-2.751-13.318-6.95-19.193c-4.197-5.874-11.045-11.072-17.166-12.897L46.9 28.68c4.174 2.13 8.957 8.09 12.52 13.077 1.948 3.346 2.616 4.562 3.534 8.211s1.892 8.212 0 13.077c-.473 1.217-2.697 1.385-7.707.609s-9.41-3.573-13.633-7.907c-4.224-4.334-7.113-8.82-9.182-13.99-1.095-2.737-3.214-9.731-1.67-14.597 1.546-4.866 6.4-7.603 6.957-9.124z"/></mask><path d="M0 0h80v82H0z"/><path d="M-188-155h414v736h-414z"/><g stroke="#000"><path d="M44.395 43.582c3.617-8.211 3.496-20.092 1.113-26.458s-7.79-10.644-12.52-11.86c-4.452-.305-10.077-.248-15.025 3.649-4.947 3.896-8.979 9.155-11.115 16.513-2.136 7.359-2.518 15.419-1.405 22.11 1.67 6.69 5.008 10.644 10.573 13.685 4.73 1.825 10.572.912 13.633-.304.724-.288.278 0 1.113-.609l-.557-.608c-.278.608-3.06 1.52-3.895 1.52-1.21 0-4.451-.02-6.955-2.736-2.583-3.041-4.452-8.82-5.009-11.86-.834-7.908.768-13.42 1.868-17.21 1.1-3.79 4.213-8.945 6.201-11.682 4.138-5.698 8.347-7.907 13.633-8.211 5.466 0 8.233 6.758 9.46 10.036 4.73 20.68-7.234 31.628-6.678 32.54l.835.609z" mask="url(#a)" stroke-width="2"/><path d="M37.718 18.036c-4.174 0-9.475 4.328-12.243 9.124-2.75 6.082-2.878 11.883-1.39 18.55 1.487 6.668 5.44 12.838 10.415 17.944 4.609 4.728 7.273 6.514 14.068 7.907 4.452.912 10.295 0 16.138-4.572 3.789-3.748 5.472-9.775 5.196-16.255s-2.751-13.318-6.95-19.193c-4.197-5.874-11.045-11.072-17.166-12.897L46.9 28.68c4.174 2.13 8.957 8.09 12.52 13.077 1.948 3.346 2.616 4.562 3.534 8.211s1.892 8.212 0 13.077c-.473 1.217-2.697 1.385-7.707.609s-9.41-3.573-13.633-7.907c-4.224-4.334-7.113-8.82-9.182-13.99-1.095-2.737-3.214-9.731-1.67-14.597 1.546-4.866 6.4-7.603 6.957-9.124z" mask="url(#b)" stroke-width="2"/><path d="m33.544 9.52 1.948 3.042 1.113 2.129 1.641 4.562.863 3.953.25 3.954-.25 3.04-.279 2.738-.556 2.737-.835 2.433-.834 2.433-.835 2.129-1.948 3.345M18.798 58.18h2.504l1.391-.305 1.113-.608 1.391-.912.835-.608.835-.913.556-1.216"/><path d="m31.04 25.64 1.948-.305 2.225-.304h2.782l1.114.304M62.48 63.958l1.39-.304 1.392-.609 1.113-.608 1.67-1.216"/></g></svg>