<svg fill="none" height="25" width="150" xmlns="http://www.w3.org/2000/svg"><path clip-rule="evenodd" d="m.355 19.915.178-.141.177-.283.178-.14.355-.283.355-.283.355-.282.355-.283.355-.282.355-.141.532-.142.355-.14.178-.142.355-.141.532-.142.533-.14.533-.142.532-.141.533-.142.532-.14h.533l.532-.142.533-.141h.887l.533-.142.355-.14h6.923l.355.14h.888l.355.142h.355l.532.14.71.142h.888l.887.141.888.142.71.14.71.142.533.141.532.142.533.14.532.142.71.141.888.142.532.14.533.142.71.141.533.142 3.55.988 1.42.424 1.065.141.888.283 1.242.424 1.243.14.887.283 1.243.283 1.42.282 1.598.283 1.065.282 1.242.283 1.243.14.888.142.71.141.887.142 1.065.282.533.141.532.142h2.663l.71.14h1.065l.888.142h3.373l.355-.141.71-.141.71-.142.71-.14.71-.142.71-.283.71-.423.533-.283.71-.424.71-.423.71-.424.532-.706.533-.565.355-.424.355-.282.177-.565v-.565l.178-.565v-.707l-.178-.565-.355-.706-.532-.565-.71-.565-.71-.282-1.065-.141h-1.775l-.71.14-.71.142-.356.283-.71.282-.71.141-.532.283-.888.424-.887.423-.71.141-.71.283-.71.141-.533.141h-.533l-.71-.14-.355-.142-.177-.141h.887l.71-.283.71-.282.533-.565.355-.424.888-.565.71-.706.71-.283.532-.282.71-.283.888-.14.887-.142h2.308l.71.282.71.283.71.282.533.283.355.424.532.282.533.565.355.565.177.283.178.282v2.684l-.355.565-.355.847-.355.424-.533.424-.532.564-.533.424-.887.706-.71.424-.71.424-1.066.282-.887.283-.888.141-.71.141-.887.283-.71.141-1.065.141h-.888l-1.42-.141h-3.55l-1.066-.141-1.42-.141-.71-.142h-.887l-1.243-.141-1.242-.282-1.42-.142-1.243-.282-1.243-.141-1.065-.283-.887-.141-1.066-.141-.887-.283-1.065-.141-2.13-.565-1.243-.283-1.775-.423-1.953-.424-2.663-.847-1.775-.424-1.597-.565-2.663-.424-1.775-.282-1.775-.424-1.953-.141-1.775-.283-1.42-.141H9.94l-.888.141h-.887l-.71.141-.71.142-.888.14-.888.283-1.065.424-.71.283-.71.282-.71.424-.71.565-.177.141zm144.142 0-.177-.141-.178-.283-.178-.14-.355-.283-.355-.283-.355-.282-.355-.283-.355-.282-.355-.141-.532-.142-.355-.14-.178-.142-.355-.141-.532-.142-.533-.14-.532-.142-.533-.141-.533-.142-.532-.14h-.533l-.532-.142-.533-.141h-.887l-.533-.142-.355-.14h-6.923l-.355.14h-.888l-.355.142h-.355l-.532.14-.71.142h-.888l-.887.141-.888.142-.71.14-.71.142-.533.141-.532.142-.533.14-.532.142-.71.141-.888.142-.532.14-.533.142-.71.141-.533.142-3.55.988-1.42.424-1.065.141-.888.283-1.242.424-1.243.14-.887.283-1.243.283-1.42.282-1.598.283-1.065.282-1.242.283-1.243.14-.888.142-.71.141-.887.142-1.065.282-.533.141-.532.142h-2.663l-.71.14H86.45l-.888.142H82.19l-.355-.141-.71-.141-.71-.142-.71-.14-.71-.142-.71-.283-.71-.423-.533-.283-.71-.424-.71-.423-.71-.424-.532-.706-.533-.565-.355-.424-.355-.282-.177-.565v-.565l-.178-.565v-.707l.178-.565.355-.706.532-.565.71-.565.71-.282 1.065-.141h1.776l.71.14.71.142.355.283.71.282.71.141.532.283.888.424.888.423.71.141.71.283.71.141.532.141h.533l.71-.14.355-.142.177-.141h-.887l-.71-.283-.71-.282-.533-.565-.355-.424-.887-.565-.71-.706-.71-.283-.533-.282-.71-.283-.888-.14-.887-.142h-2.308l-.71.282-.71.283-.71.282-.533.283-.355.424-.532.282-.533.565-.355.565-.177.283-.178.282v2.684l.355.565.355.847.355.424.533.424.532.564.533.424.887.706.71.424.71.424 1.066.282.887.283.888.141.71.141.887.283.71.141 1.066.141h.887l1.42-.141h3.55l1.066-.141 1.42-.141.71-.142h.887l1.243-.141 1.243-.282 1.42-.142 1.242-.282 1.243-.141 1.065-.283.887-.141 1.066-.141.887-.283 1.065-.141 2.13-.565 1.243-.283 1.775-.423 1.953-.424 2.663-.847 1.775-.424 1.597-.565 2.663-.424 1.775-.282 1.775-.424 1.953-.141 1.775-.283 1.42-.141h5.503l.888.141h.887l.71.141.71.142.888.14.888.283 1.065.424.71.283.71.282.71.424.71.565.177.141zM72.071.565v.706l-.355.283-.355.282-.178.283-.177.282v.141l-.355-.14h-.71l-.355.14.177.142.355.14.355.283.355.142.355.282.178.283.178.14.355.566.177.282v.141l-.177.142-.355.282-.178.141-.178.283-.177.141-.178-.141-.177-.141-.355-.283-.178-.141-.177-.283-.178-.282-.355-.282-.177-.424v-.141l-.178-.283-.355.706-.177.142h-.71l-.355.14-.178.142-.355.141h-.177l-.355.141h-.355l-.178.142h-.177l-.356.141h-.355l-.177-.141.177-.142v-.14h-.71v.282l.178.282.355.141h.532l.533-.14.355-.142.533-.141h1.242l.355-.142h.533l.355.142.532.282.355.283.355.282.178.141v.142l-.178.282-.177.141-.355.283-.178.141h-.355l-.177-.141-.355-.141-.355-.142-.533-.14-.532-.142-.355-.141h-.888l-.177.14-.355.142-.178.283-.178.282v.283l.356.282.355.141.532.142h1.42l.355-.142.355-.14.355-.142h.533l.177.141.178.141.355.283.355.141v.141l-.178.142-.177.14-.355.142-.355.141-.355.142-.533.14-.532.142h-1.598l-.532-.141-.533-.141-.533-.142-.71-.282-.532-.283-.355-.14-.178-.142-.177-.283V6.356l-.355.282-.178.142-.177.282h-.178l-.355-.141-.355-.141-.177-.142-.355-.14h-.71l-.355.14-.533.142-.178.14-.177.142-.355.283v.282l.177.141.178.142h.177l.178-.142.177-.14v-.283h-.177v-.142l.177-.14.178-.142h1.065l.178.141.177.141.355.142.178.14.532.283h-.532l-.355.142-.178.14v.425l.178.14h.177v-.14l.178-.142h1.065l.71.283.71.282.532.142.888.282.533.141.532.142h2.13l.355-.142.533-.141.532-.141.888-.565.355.141.178.141.177.142.178.14.177.142-.355.141-.177.142-.356.14-.355.142-.355.141-.532.141-.533.142-.532.141v.282l.532.142.355.282.355.141h1.065v.565l.178.283.178.141.177.283.178.14.355.283v-1.27l-.355-.142-.178-.141-.177-.142v-.988l.177-.283.178-.282.177-.141.178-.142v-.282l-.178-.141-.177-.142-.355-.282-.178-.141.178-.142.177-.14.178-.142.177-.141.178-.142v-.565l-.355-.282-.178-.283-.355-.14-.178-.142v-.283l.356-.282.355-.283.177-.14.178-.142v-.989l-.178-.282-.355-.283V3.39l-.177-.141v-.707l.177-.14v-.283l.178-.142.177-.282.178-.141V.424zm.355 0v.706l.355.283.355.282.178.283.177.282v.141l.355-.14h.71l.355.14-.177.142-.355.14-.355.283-.355.142-.355.282-.178.283-.177.14-.355.566-.178.282v.141l.178.142.355.282.177.141.178.283.177.141.178-.141.177-.141.355-.283.178-.141.177-.283.178-.282.355-.282.177-.424v-.141l.178-.283.355.706.177.142h.71l.355.14.178.142.355.141h.177l.355.141h.355l.178.142h.178l.355.141h.355l.177-.141-.177-.142v-.14h.71v.282l-.178.282-.355.141h-.532l-.533-.14-.355-.142-.533-.141H76.51l-.355-.142h-.533l-.355.142-.532.282-.355.283-.355.282-.178.141v.142l.178.282.177.141.355.283.178.141h.355l.177-.141.355-.141.355-.142.533-.14.532-.142.355-.141h.888l.177.14.356.142.177.283.178.282v.283l-.355.282-.356.141-.532.142h-1.42l-.355-.142-.355-.14-.355-.142h-.533l-.177.141-.178.141-.355.283-.355.141v.141l.178.142.177.14.355.142.355.141.355.142.533.14.532.142h1.598l.532-.141.533-.141.533-.142.71-.282.532-.283.355-.14.178-.142.177-.283V6.356l.355.282.178.142.177.282h.178l.355-.141.355-.141.177-.142.355-.14h.71l.355.14.533.142.178.14.177.142.355.283v.282l-.177.141-.178.142h-.177l-.178-.142-.177-.14v-.283h.177v-.142l-.177-.14-.178-.142h-1.065l-.178.141-.177.141-.355.142-.178.14-.532.283h.532l.355.142.178.14v.425l-.178.14h-.177v-.14l-.178-.142h-1.065l-.71.283-.71.282-.532.142-.888.282-.533.141-.532.142h-2.13l-.355-.142-.533-.141-.532-.141-.888-.565-.355.141-.177.141-.178.142-.178.14-.177.142.355.141.178.142.355.14.355.142.355.141.532.141.533.142.532.141v.282l-.532.142-.355.282-.355.141h-1.065v.565l-.178.283-.177.141-.178.283-.178.14-.355.283v-1.27l.355-.142.178-.141.178-.142v-.988l-.178-.283-.178-.282-.177-.141-.178-.142v-.282l.178-.141.177-.142.356-.282.177-.141-.177-.142-.178-.14-.178-.142-.177-.141-.178-.142v-.565l.355-.282.178-.283.355-.14.178-.142v-.283l-.355-.282-.356-.283-.177-.14-.177-.142v-.989l.177-.282.355-.283V3.39l.178-.141v-.707l-.178-.14v-.283l-.178-.142-.177-.282-.177-.141V.424z" fill="#000" fill-rule="evenodd"/></svg>