<svg fill="none" height="21" viewBox="0 0 172 21" width="172" xmlns="http://www.w3.org/2000/svg"><path clip-rule="evenodd" d="m171.871 9v.1c-.144.11263-.228.3013-.355.43333-.392.40884-.844.85537-1.29 1.19997-1.404 1.0869-2.894 2.02-4.643 2.7667-.899.3837-1.898.5647-2.902.8333-.574.1537-1.197.0645-1.806.2-.518.1155-1.773.1206-2.289 0-.542-.1264-1.028-.0233-1.516-.1666-1.317-.3867-2.529-.8379-3.579-1.5-.228-.1434-.482-.1903-.71-.3334-.684-.4298-1.433-.7627-2.128-1.2-2.117-1.332-4.515-2.61663-6.9-3.6333-.621-.26443-1.313-.32743-2.032-.5-.297-.07137-.658-.0015-.935-.06667-.306-.07213-1.319.0383-1.58.1-.358.08434-.663.01194-1 .1-.864.2261-1.76.36477-2.547.63334-.403.13726-.78.17116-1.161.33333-1.981.84287-3.962 1.633-5.708 2.7333-.529.3338-1.115.501-1.644.8334-.74.4647-1.568.7935-2.322 1.2666-.363.2278-.902.6131-1.322.7334.011.0111.022.0222.032.0333.134.1253.302.1505.484.2333.445.2029.881.4515 1.354.6667.745.3382 1.502.6609 2.387.9 1.208.3267 3.119-.1959 3.998-.5 3.209-1.1104 5.819-2.7167 8.642-4.2333 1.076-.5782 2.091-1.03703 3.418-1.40003.588-.1609 1.506-.1996 2.096 0 .376.12703.779.29333 1.096.50003.575.3742 1.141.9217 1.419 1.6.397.9683.204 3.0614-.226 3.8-.741 1.2733-1.975 1.91-3.579 2.3-.452.1098-1.054.0111-1.419-.1-1.17-.3567-2.132-.9175-2.483-2.1-.293-.9913.358-2.1887.968-2.3667.184-.0539.363.0369.483.0667.171.2617.385.3419.387.8-.279.2221-.49.5463-.741.8.01.942 1.354 1.4622 2.321 1.1333 1.179-.4006 2.374-2.8188 1.032-3.8667-.275-.2152-.601-.4187-.967-.5333-.393-.123-.928.0049-1.225.1-.824.2603-1.632.5719-2.419.9333-1.401.6394-2.738 1.4994-4.127 2.1334-1.067.4869-2.131.9682-3.225 1.4333-.959.4077-1.998.5661-3.096.8333-.407.0991-.804.0414-1.257.0667-1.696.0947-2.663-.4789-3.805-1-.474-.2162-.921-.3947-1.354-.6667-.367-.23-1.242-.8972-1.645-.9666-.142.1116-.337.1222-.516.2-.453.1969-.925.3446-1.419.5333-1.603.6131-3.432.9995-5.611 1-1.02.0002-2.019.0365-2.837-.2-.902-.2597-1.785-.5827-2.644-.9667-.459-.2045-.915-.4071-1.419-.6-.112-.0427-.337-.1872-.516-.1333-.113.0338-.145.1376-.29.1667v-.0334c.092-.0696.147-.1429.161-.3-.95-.6061-3.034-1.4266-4.611-1-1.18.3192-2.217.7754-3.2572 1.2334-.8077.3554-1.6461.624-2.4506.9666-.8836.3763-1.859.5424-2.8377.8l-1.2253.1334c-.3828.091-1.3886-.0855-1.6768-.1667-.258-.0727-.466-.0503-.7094-.1333-1.1041-.3767-2.1386-.8615-2.9989-1.5-.3415-.2534-.8674-.9658-1.2254-1.1-.1396.2126-.3821.3784-.5804.5333-.2041.1594-.3692.41-.5804.5667-.3199.2374-.654.383-.9996.6-.5834.3659-1.2944.6637-1.9993.9-1.6258.545-3.8015.2182-5.2238-.2667-.9481-.3233-1.8213-.5548-2.7087-.9333-1.1963-.5102-2.412-1.0761-3.676-1.5-.3754-.1259-.8014-.1434-1.1931-.2334-.3231-.0742-.7888.0067-1.0319.0667l-.516.0667c-.5596.1646-1.1089.365-1.6445.6-1.3988.6107-2.7158 1.2042-4.1275 1.8-.6465.2728-1.3859.3866-2.096.5666-.6423.163-2.1846.2209-2.8699.0667-.5878-.1323-1.1241-.025-1.6768-.1667-1.3185-.3379-2.6293-.5359-3.805-1.0333-.4472-.1892-.9209-.3353-1.3866-.5333-.2112-.0899-.4185-.2257-.6771-.2667-.1103.1122-.2496.1439-.387.2333-.4772.3104-.9812.5846-1.4833.9-.9445.5934-2.0431 1.1925-3.1601 1.5667-.2783.0933-.5275.0616-.8384.1333-.5262.1215-1.3121.1591-1.8702.0334-.4415-.0994-.8159-.0251-1.2254-.1334-2.7709-.7323-5.0671-1.7723-7.3521-3-1.3041-.7006-2.6025-1.3306-4.0307-1.9333-.5082-.2144-1.3296-.6212-2.096-.4-.6925.2-1.2814.6959-1.5156 1.3667-.3289.9422.5669 2.4804 1.0641 2.8.9549.6136 2.7034.3268 2.8377-.8667-.1086-.1093-.75-.8053-.7739-.9-.0993-.3933.4528-.8053.8384-.8l.258.1c.2521.1611.555.5444.6771.8333.345.817-.0263 1.8325-.3869 2.3334-.8834 1.2266-3.0372 1.68-4.7079.9333-1.0193-.4555-1.9849-1.072-2.4185-2.1333-.1362-.3334-.1741-.725-.258-1.1-.0107-.3445-.0215-.6889-.0322-1.0334 0-1.9589 1.0057-2.8633 2.3217-3.4333 1.7879-.7746 3.9925.27 5.2238.9333 1.0043.541 2.0393.9639 2.9989 1.5667.7268.4567 1.5114.8152 2.2895 1.2333 1.5249.8195 3.1117 1.5337 4.9336 2.0667.3576.1046.7449.1155 1.0964.2l.9351.0333c.3973.0844 1.0425-.0293 1.3866-.1333 1.0699-.3233 1.909-.7375 2.8054-1.2.3618-.1867.7175-.3755 1.0641-.5333.1867-.085.4592-.1192.5482-.3-.2744-.067-.5511-.2924-.7739-.4334-.3589-.227-.752-.3824-1.0964-.6-.7507-.4744-1.6013-.76-2.3539-1.2333-.748-.4711-1.5234-.8942-2.3217-1.2667-1.0858-.496-2.1457-1.0228-3.2569-1.49997-.6978-.29966-1.4669-.4881-2.1927-.73333-.8768-.29623-1.8309-.3365-2.7732-.56667-.3956-.09666-.8425-.0086-1.2253-.1-.4302-.1027-1.5669.04874-1.9025.13334-.3985.10043-.7333.0757-1.0964.2-1.0207.35129-2.0127.78599-2.9666 1.3-1.4534.78123-2.9459 1.53193-4.321 2.40003-.3907.2466-.8009.3868-1.1931.6333-1.4842.9328-3.0936 1.7944-4.8691 2.4-1.9993.6819-5.80929.431-7.67455-.2-1.41809-.4797-2.74901-.9928-3.90177-1.7333-.66159-.425-1.29042-.8021-1.90251-1.2667-.31978-.2427-.58923-.588-.90289-.8333-.280536-.2195-.995558-.78613-1.064113-1.1667.423648.0586.711185.47813.999623.7.69329.5333 1.38926 1.0841 2.12824 1.5667 1.1337.7402 2.45046 1.2666 3.83727 1.7333.68635.2309 1.36113.222 2.12823.4.58968.1368 1.87797.2559 2.54747.1h.5481c.5864-.1378 1.2391-.0677 1.8058-.2333 2.6458-.7734 4.6228-2.2061 6.7072-3.5667 1.0825-.70667 2.2018-1.34687 3.2891-2.03333.4514-.28494.9309-.44724 1.3865-.73334.954-.599 2.0728-1.04606 3.2246-1.43333.2963-.0996.5525-.0863.8707-.16667.3167-.08 1.4063-.26 1.8058-.16666l1.709.13333c1.0873.26117 2.1921.295 3.1923.63333.752.2543 1.534.4562 2.2573.76667 2.2965.98597 4.4367 2.08263 6.5781 3.23333 1.159.62277 2.3395 1.20217 3.5148 1.83337.198.1063 1.0838.6514 1.2254.6.1999-.05.3479-.1897.5159-.2667.6833-.3133 1.3302-.664 1.9993-.9667.502-.227 1.037-.3526 1.6123-.5l.6127-.0333c.3095-.07.9161-.073 1.2253 0l1.1609.0333c.5739.1359 1.1805.1202 1.709.3.7881.2687 1.5538.6031 2.2895 1 .2166.1165 1.1998.7557 1.3543.7.3782-.101.7491-.4633 1.0641-.6666.919-.5935 1.9044-1.1934 2.9989-1.5667.2876-.0981.5443-.0584.8706-.1333.2899-.0667 1.3205-.1511 1.6768-.0667.4937.1169.98.0833 1.4188.2333 2.3185.7929 4.3116 1.8771 6.7717 2.5667 1.9947.5592 4.4496-.5643 5.1271-1.7.2831-.4745.3328-1.45763.1612-2.1-.3763-1.408-1.0248-2.42537-2.3217-2.86667-1.4614-.49726-2.6064.2658-3.0956 1.23334-.0684.13493-.1661.21703-.1935.4.3167.20933.9913.86626 1.0964 1.26666.1725.6562-.6349 1.26797-1.2254 1.06667-1.0844-.36967-1.8273-2.1471-1.2575-3.53333.6568-1.59847 1.9834-2.40847 3.7082-2.9.5105-.14544 1.3208-.08264 1.8058.03333.4602.11.8429.09333 1.2576.23333 1.0538.35564 1.9367.97567 2.7409 1.6.2257.23334.4514.46667.6772.7.1209.16844.2012.43687.3869.53334.1603-.50074.8349-1.06814 1.2254-1.36667.8977-.68667 1.8251-1.277 3.0633-1.63333 2.1831-.62814 4.7682.48603 5.6108 1.7.3996.57553 1.0793 1.82193.7417 2.9-.1406.44846-.3734.7689-.6127 1.1-.1864.25796-.6894.80893-1.2253.66663-.1691-.0499-.324-.1414-.4515-.2666-.0874-.08413-.2018-.1883-.2579-.30003-.4612-.91974.9138-1.35634 1.0318-1.9-.176-.18424-.2408-.4853-.3869-.7-.3328-.489-.8645-.76984-1.5156-.93334-.5717-.14356-1.255.0618-1.6445.23334-1.1493.50633-1.7174 1.39123-2.0638 2.73333-.1173.4553-.1644 1.2705 0 1.7333.0932.2625.2648.521.4192.7334.1632.2241.4466.3749.6772.5333.8823.6064 2.6387 1.2358 4.192.8 2.4603-.6902 4.4515-1.7786 6.7716-2.5667.439-.1491.925-.1174 1.419-.2333.307-.072 1.126-.0275 1.386.0333.362.0846.667-.0024.968.1.941.32 1.845.7936 2.644 1.3.294.1867.793.6541 1.161.7.3-.2804 1.101-.5784 1.515-.7666.282-.1283.606-.3065.903-.4334.457-.1945.981-.2711 1.484-.4l1.257-.1333h.742c.508-.1137 1.54-.057 1.999.0667 1.113.2996 2.024.7421 2.934 1.2333.39.21 1.202.4867 1.484.7667 3.651-1.612 6.894-3.7545 10.512-5.40003 1.078-.49 2.165-.7973 3.354-1.2.918-.311 1.961-.44237 2.966-.7.443-.1135.859-.0284 1.322-.13334.576-.13023 1.875-.15146 2.451 0 .729.1918 1.469.3181 2.128.6 2.196.93857 4.161 2.12507 6.062 3.36667 1.276.8328 2.575 1.5487 3.87 2.3667 1.005.6348 2.057 1.1868 3.289 1.6.575.1928 1.2.1209 1.838.2666.516.1179 1.138.1 1.741.1h.581c.729-.1723 1.502-.08 2.192-.2666 1.58-.4277 3.077-.8504 4.321-1.6334.837-.5259 1.647-1.0755 2.419-1.66663.382-.2924.782-.87784 1.322-.96667zm-58.397 2.3c-.101.0603-.278-.0018-.42.0333-.271.0675-.582.1097-.87.2-.915.2871-1.842.5453-2.548 1.0334v.0666c.383.2254.777.5106 1.193.7.568.2587 1.204.4226 1.838.6 1.594.4455 4.231.2005 5.611-.2333.484-.1521.954-.2511 1.387-.4.165-.0567.327-.0403.451-.1333-.345-.16-.656-.4029-.967-.6-.616-.3895-1.537-.7861-2.257-1.0334-.929-.3184-2.233-.2317-3.418-.2333zm-58.2689.0333c-.179.1067-.8826.0828-1.1286.1667-.654.223-1.2937.5559-1.8703.8667-.2554.1377-.8042.2856-.8706.6.2728.06.5256.2133.7739.3.4917.1713.9989.2896 1.4833.4333 1.8332.5441 4.6195.6481 6.4169.0333.5718-.1955 1.0593-.345 1.5156-.6333.1522-.0961.2789-.05.3224-.2667-.2782-.1416-.5459-.3676-.8383-.5-.6803-.3064-1.3807-.5626-2.096-.7666-1.0142-.2908-2.4556-.2187-3.7083-.2334z" fill="#000" fill-rule="evenodd"/></svg>