<svg fill="none" height="95" viewBox="0 0 104 95" width="104" xmlns="http://www.w3.org/2000/svg"><path clip-rule="evenodd" d="m71.4094.0973866c4.9-.08976957 7.9278 2.3325234 9.3552 5.5467334.224.50444.3889 1.07485.5593 1.65429.0745.25377.0676.53302.1271.77849.0704.29079.0938 1.14496.0254 1.43534-.0763.32383.0036.68656-.0763.99746-.1782.6946-.291 1.3649-.5592 1.9705-1.0919 2.466-2.9373 4.1093-5.542 5.1332-.5605.2203-1.2004.29-1.8303.4379-.226.0531-.4767.0272-.6864.073-.2461.0536-1.2114.0219-1.4236-.0243-.4085-.0888-.7662-.0238-1.144-.1217-.635-.1645-1.2607-.3318-1.8049-.5595-2.739-1.1456-4.4206-2.968-5.3894-5.8144-.1498-.4401-.209-.9585-.3305-1.4596-.0084-.21088-.0169-.42172-.0254-.63256-.0458-.20435-.0481-.59858 0-.80282.0689-.29193-.0171-.5535.0508-.82714.1431-.5756.1892-1.16333.4068-1.67862 1.0837-2.56502 2.7198-4.36282 5.3385-5.449423.6315-.262035 1.3336-.38579 2.0592-.559539.2211-.052986.7258.001046.8897-.0973114zm-55.165 15.3508134c-.0477-.2616-.5327-.5601-.7372-.7055-.6299-.4528-1.2246-.9488-1.7795-1.484-.1983-.1903-.5135-.4344-.5339-.7785.0281-.012.0539-.0285.0763-.0486.4678.0808.8661.3286 1.2202.5352.4507.2629.9318.4496 1.4236.6568.7373.3107 1.4385.6861 2.4659.7299.0043-.2984.0995-.6085.178-.8515.2327-.7208.3846-1.2255.7118-1.8246 1.0045-1.83897 2.4252-3.05115 4.4996-3.8681.4144-.1632.8288-.19755 1.2965-.31627 1.1628-.29512 2.9518-.2676 4.0421.07299 2.46.76839 4.0975 2.10783 5.2114 4.16008.3435.6327.5743 1.334.7881 2.1165.0425.3.0848.6001.1271.9001v.4379c.0628.2774.0201 1.0822-.0508 1.3624-.194.7647-.3404 1.4491-.6356 2.0922-.7962 1.7355-2.3497 3.0591-4.1691 3.8194-.4434.1853-.875.2701-1.3728.4136-1.3293.3836-3.6448.4191-4.9826 0-.9432-.2954-1.801-.6319-2.5676-1.0948-.4215-.2544-.8223-.5746-1.2457-.8271-.1541-.0919-.3069-.1205-.483-.1946-.3439-.1447-.7044-.352-1.0169-.5352-.6919-.4056-1.3805-.7539-2.0337-1.1921-.5227-.3507-1.0179-.7587-1.5253-1.1191-.222-.1576-1.0374-.7164-1.1186-.9244h.0509c.1224.1027.3132.1104.483.1703.4147.1462.8893.3053 1.4236.3162v-.0486c-.3619-.1103-.677-.4335-.966-.6326-.8479-.584-1.5619-1.2496-2.288-1.9462-.2394-.2297-.8015-.7187-.8135-1.1191.0491-.0161.1007-.0244.1526-.0243.0859.0608.211.0669.305.1217.2492.1449.5092.2846.7627.4379.901.545 1.6182 1.1902 3.1014 1.192zm51.4535 5.6441h.1779v.0243h-.0508c-.3089.218-.9622.3505-1.3474.5109-.858.3573-1.7292.7057-2.593 1.0704-3.3468 1.4131-6.5217 3.0999-9.3297 5.0359-1.2465.8592-2.4187 1.8138-3.2286 3.0896-.1462.2301-.2008.5123-.305.7785h.0254c.107-.1416.2852-.2586.4321-.3649.0679-.073.1357-.146.2034-.219.2916-.2114.5456-.4454.8389-.6568.2909-.2097.5453-.4971.8389-.7055.8898-.6318 1.759-1.2532 2.6947-1.849 1.9549-1.2447 4.0223-2.3194 6.1775-3.2112 1.2757-.5287 2.6413-.912 4.0166-1.3381 1.2119-.3754 2.5168-.4961 3.8133-.8028.4166-.0985.8163-.0526 1.2456-.1459.3763-.0818.8044-.0354 1.2203-.1217.7324-.1519 1.7678-.1215 2.6184-.1216.6442 0 1.387-.0703 1.9575.0486h.4321c.4528.0962.9582.0193 1.4237.1217.3693.0812.7814.0556 1.1693.1459 1.1217.2611 2.2758.3285 3.3303.6569 1.5583.4855 3.0592.9123 4.4742 1.5083 4.5772 1.9282 8.2862 4.8957 11.0076 8.6121.8407 1.1482 1.6939 2.3996 2.3129 3.7464.622 1.3514 1.122 2.761 1.627 4.2574.274.8116.361 1.6854.585 2.5301.102.7215.204 1.4433.305 2.1652.069.2938.014.6057.076.8758.009.2919.017.5838.026.8758.078.3547.08 1.2514 0 1.6056-.081.3581.023.7473-.051 1.0704-.008.2433-.017.4866-.025.7298-.085.7703-.17 1.5406-.255 2.3112-.135.7785-.271 1.557-.406 2.3355-.418 1.5404-.731 3.0833-1.271 4.4763-.133.3403-.188.6646-.331.9974-.546 1.2714-1.065 2.5503-1.7032 3.7222-.2.3673-.3358.7429-.5592 1.0947-.5057.7967-.9567 1.6234-1.4745 2.4085-.6871 1.0414-1.4572 2.0323-2.2117 3.0166-.5976.7795-1.3239 1.4677-1.932 2.2382-.2105.2668-.497.4821-.7118.7541l-.9406.9002c-.2625.33-.5704.6246-.9152.8758-.1187.1216-.2374.2432-.3559.3649-.301.288-.6246.5802-.966.8271-.0763.081-.1526.1621-.2288.2433-.5369.3888-.9912.8802-1.5253 1.265-1.2945.933-2.5295 1.9487-3.8641 2.8464-1.6893 1.1361-3.4564 2.188-5.2369 3.2356-.8417.4951-1.7429.8682-2.593 1.3623-.7909.4598-1.6488.8216-2.4913 1.2408-1.5693.7806-3.2298 1.5209-4.881 2.2138-.6724.2822-1.3295.497-2.0083.7785-1.0476.4345-2.1402.7877-3.2285 1.2164-.3488.1374-.7238.244-1.0932.3892-.1479.0582-.2997.1435-.483.1703v-.0243h.0254c.2611-.2212.8824-.4158 1.2203-.5839.7176-.3574 1.4777-.6962 2.1608-1.0947.24-.1402.497-.201.7372-.3406 1.1361-.6608 2.348-1.2072 3.4828-1.8733 1.6496-.968 3.2921-1.9535 4.881-2.968.8081-.516 1.5835-1.0541 2.3642-1.5813.2636-.178.8753-.5016 1.0423-.7298h-.0254c-.1678.1542-.4053.2202-.6102.3406-.321.1885-.6579.3637-.9914.5595-1.0558.6199-2.1888 1.1787-3.254 1.8003-.4205.2452-.8745.387-1.2965.6325-.3356.1951-.7192.3326-1.0677.5352-.7761.4513-1.6382.832-2.4913 1.1921-.7139.3012-1.4394.6936-2.1609.9974-1.1592.4883-2.3347.9459-3.5082 1.411-2.0126.7977-4.1533 1.3514-6.3045 2.0192-.2977.0925-.5651.1015-.8644.1947-1.5247.4744-3.2211.6568-4.8555 1.0461-1.0423.154-2.0846.308-3.1269.4622-.3442.0766-.6998.0525-1.0168.1216-.5557.1209-1.1435.0557-1.6779.1703-.6464.1384-1.4213.0355-2.0591.1703-.2372.008-.4745.0162-.7118.0243-.3778.0784-.8753.0759-1.2711.0974-.2095.0111-.605.0919-.7626 0 .2356-.0212.4789-.1095.6863-.1703.4444-.1302.899-.1927 1.322-.3163 1.1167-.3267 2.277-.4914 3.3556-.8271.7703-.2397 1.5274-.3411 2.288-.5839.7504-.2394 1.5565-.4452 2.2879-.7055.2344-.0835.4553-.1037.6864-.1946.5435-.2141 1.1229-.3635 1.6778-.5839.6234-.2477 1.2754-.5233 1.8812-.7785.6562-.2764 1.2968-.535 1.8812-.8758.2937-.1713.5995-.2676.8898-.4379.7019-.4119 1.3796-.8636 2.0337-1.3137.2848-.1958.8616-.5401 1.0423-.8028h-.0254c-.1365.0941-.3155.1039-.483.1703-.3915.1554-.8094.2751-1.2203.4379-1.0598.4201-2.2111.7476-3.2793 1.1677-.3987.1569-.7947.2073-1.1949.3649-.8778.3457-1.8153.5783-2.7455.8758-1.4663.4693-3.0257.8668-4.5251 1.3381-.7143.2245-1.4614.3425-2.1608.5595-.2034.0406-.4067.0812-.6101.1216-.7128.208-1.5098.3392-2.2371.5352-.195.0324-.3899.0648-.5847.0974-1.2271.3318-2.5857.4247-3.8641.7298-.1609.0163-.3219.0325-.483.0486-.902.2088-1.9382.1866-2.8727.3893-.3516.0761-.7166.0275-1.0423.0973-.5603.1199-1.2517.0039-1.8049.1216-.5084.0163-1.0169.0326-1.5253.0487-.1627.0002-.4721.0416-.5847-.0243.5204-.047 1.2419-.2715 1.7287-.4136.305-.065.6101-.1298.9152-.1946.7021-.2073 1.4706-.3691 2.1608-.5839.8648-.2691 1.7144-.4082 2.5676-.6812 2.641-.8449 5.3177-1.593 7.8044-2.5787 1.0545-.418 2.0938-.7384 3.1269-1.1678 1.522-.6325 3.017-1.31 4.5251-1.9462.3571-.1506.7181-.3683 1.0677-.5352.5112-.2442 1.0272-.4542 1.4998-.7298.1632-.0951.345-.1241.5085-.219.5715-.3323 1.1996-.5865 1.7795-.9244 1.3143-.7661 2.6573-1.5098 3.9403-2.2868 6.9582-4.2141 12.8987-9.2816 17.2613-15.9834.9798-1.5052 1.7257-3.1877 2.4659-4.9142.3165-.7381.5021-1.5397.7627-2.3111.3473-1.0284.3943-2.1662.661-3.2843.0811-.3401.0269-.6987.1016-1.0218v-.3649c.0878-.3943.1203-1.581.0255-1.9949v-.4622c-.013-.2209-.0288-.5245-.0763-.7298-.017-.2353-.034-.4704-.0508-.7055-.1017-.6-.2034-1.2-.3051-1.8003-.2364-.806-.4271-1.6365-.6864-2.3841-.0501-.1448-.0419-.2547-.1017-.3893-.3088-.6972-.843-1.3183-1.2965-1.8975l-.4067-.3893c-.2019-.2554-.4721-.5381-.7372-.7298-.4297-.3107-.8395-.6705-1.2966-.9488-1.0796-.6573-2.2821-1.1847-3.6098-1.6056-2.9192-.9254-7.3883-.8853-10.3466-.0243-.9953.2897-1.924.5031-2.8218.8758-4.5625 1.8941-8.169 4.7553-10.9059 8.393-1.3804 1.8316-2.5562 3.7967-3.5082 5.863-.3158.6883-.5908 1.3977-.8898 2.0922-.0846.2433-.1694.4866-.2542.7299h-1.3473c-.085.0503-.3028.0243-.4322.0243h-5.0081v-.0243c.2265-.2528.4065-.9841.5593-1.3381.2807-.65.4942-1.3679.7118-2.0922.0254-.1783.0508-.3567.0763-.5352.1116-.4517.1233-1.1723-.0255-1.6056-.3508-1.0227-1.0679-1.7742-1.8049-2.4328-.0035-.2065-.0117-.4109-.0508-.5838v-.5596c-.0354-.1671-.073-.5252-.0255-.7298.0834-.3598-.0106-.7749.0763-1.1434.057-.2418.0361-.5199.1017-.7785.1744-.6865.2367-1.3938.4576-2.0435.3035-.8934.5867-1.7752.966-2.6031.887-1.9358 2.0261-3.6453 3.2286-5.2792.5585-.759 1.2482-1.4268 1.8303-2.1651.1945-.2467.4927-.436.6864-.6812.299-.3785.6696-.6895 1.0169-1.0218.2763-.2642.5239-.5508.8389-.7785.3226-.2333.6134-.6388.9406-.8758.9134-.6609 1.7358-1.4124 2.6693-2.0678.4415-.31.8712-.67 1.3219-.9731 1.2734-.8564 2.6199-1.6195 3.9658-2.4085.5076-.2975 1.0616-.4792 1.5761-.7785.5194-.3019 1.1379-.5891 1.7033-.8271 1.1747-.4944 2.3939-.9102 3.6098-1.3867.7444-.2916 1.5688-.4436 2.3388-.6812.7695-.2373 1.594-.3178 2.3897-.5109.2471-.0599.758-.0311.9406-.1459zm-40.7255 4.9628h.5338v.0244h-.0508c-.1111.0691-.2631.0549-.4068.0973-.3925.1155-.8147.1863-1.2202.3162-1.1164.3577-2.2545.6581-3.3048 1.0948-1.5548.6464-3.0543 1.338-4.4234 2.1652-.5952.3595-1.1457.7996-1.7032 1.192-.7414.5216-1.637 1.2261-2.1863 1.9219-.1356.1297-.2712.2594-.4068.3893-.3957.5023-.8274.9821-1.1693 1.5326h.0254v-.0243c.3621-.2248.6467-.6503.9914-.9001.6658-.4825 1.2589-1.0588 1.9321-1.5327 1.2009-.8454 2.4602-1.6005 3.7624-2.3598.2711-.1581.555-.2481.8389-.3892.834-.4148 1.7399-.787 2.6438-1.1434 1.1747-.4632 2.4664-.7002 3.7624-1.0461.6356-.1054 1.2711-.2108 1.9067-.3163.6947-.0649 1.3896-.1298 2.0845-.1946h.4831c.2554-.0523.6276.034.9151-.0243.1955-.0397.5672-.0409.7627 0 .2867.06.6602-.0292.9152.0243.4151.0163.8303.0325 1.2456.0486.2517.0538.5379.0134.8135.073.722.1564 1.5243.1533 2.2117.3163.5079.1204 1.0052.1474 1.4745.2676.1893.0484.4242.0214.5592.1216-.3714-.0051-.8724-.0238-1.2202.0487-.3493.0727-.7268-.0173-1.0423.0486h-.3813c-.2939.0623-.678.0365-.966.0974-.2626.0162-.5253.0325-.7881.0486-.5618.1216-1.2119.119-1.7541.2433l-1.0931.146c-.8156.2007-1.6934.3111-2.4659.5352-.6572.1904-1.2747.2846-1.9067.4865-1.2103.3866-2.3797.8164-3.5082 1.2894-.6478.2771-1.2761.594-1.8812.9488-.7452.435-1.4865.7957-2.1862 1.265-2.5385 1.7027-4.7602 3.8438-6.4317 6.3739-.6852 1.0371-1.213 2.1455-1.7795 3.3086h.0254c.3707-.5669.9266-1.0235 1.3474-1.557.1355-.1297.2711-.2594.4067-.3892.4979-.6301 1.1135-1.16 1.6778-1.7273.3158-.3175.597-.6576.9661-.9245.0847-.0893.1694-.1785.2542-.2676.231-.2211.4748-.4427.7372-.6325.0847-.0893.1695-.1785.2542-.2676 1.0955-.7931 2.0705-1.7407 3.2031-2.5058.6905-.4663 1.3939-.93 2.11-1.3623.4328-.2613.8801-.4484 1.322-.7055.3699-.2153.7936-.4637 1.1948-.6326.997-.4199 2.0111-.8089 3.0506-1.2163.9169-.3596 1.9511-.5226 2.9489-.7785.3691-.0947.7126-.0808 1.0931-.1703.4851-.1141 1.0665-.1102 1.5762-.219.2033-.008.4067-.0161.6101-.0243.2862-.0586.6393.0175.966-.0487.3656-.0739 1.2876-.0761 1.6524 0 .449.0163.8981.0326 1.3474.0487.3172.0676.677.0226 1.0168.0973.6839.1501 1.4376.1827 2.0846.3406.5997.1464 1.1796.2061 1.7287.3649.2135.0618.5018.0511.6609.1703-.7191.0333-1.6018.0744-2.2625.219-.1441.008-.2882.0161-.4321.0243-.3412.0764-.7607.0934-1.0932.1703-.1695.0163-.339.0325-.5084.0486-.7202.1297-1.4405.2595-2.1609.3893-.5519.1494-1.1467.2155-1.7032.3892-1.3461.4202-2.7089.7649-3.9404 1.2651-1.4922.606-2.9123 1.1687-4.22 1.9462-1.0407.6186-2.0108 1.3064-2.9743 1.9949-.4287.3063-.7725.7405-1.1948 1.0461-.5753.4162-1.1661 1.0521-1.6016 1.6056-.2045.2601-.4835.4902-.6864.7542-.8476 1.1027-1.652 2.2493-2.2625 3.5761-.2152.4676-.476.9712-.6864 1.4597-.248.5761-.4079 1.2028-.6101 1.8003-.2486.7347-.3127 1.5358-.5084 2.3111-.0678.5919-.1356 1.1839-.2034 1.7759v.4379c-.0642.2895-.0904 1.1281-.0254 1.4111.0559.2432-.0238.5653.0254.7784.1093.4742.0144.9542.1271 1.4111.2474 1.0023.3418 2.0024.661 2.9193.455 1.3069.9536 2.5829 1.6524 3.6735.4796.7485 1.0118 1.4502 1.5507 2.1408.129.1652.3283.2985.4576.4623.3148.3987.7021.7935 1.1185 1.0947.2181.1576.3903.4012.6102.5595.6099.4396 1.2041.9191 1.8557 1.3137 1.8007 1.0904 3.6864 1.7881 5.9233 2.4815.9602.2975 2.0032.372 3.0252.6082.3953.0912.7636.035 1.1694.1216.335.0715.7212.0202 1.0931.0973.7009.1453 1.6387.0971 2.4405.0973.6838.0003 1.4915.0523 2.0846-.0729h.3559c.593-.065 1.1862-.1299 1.7795-.1947.3833-.0895.7954-.0953 1.1948-.1946 1.1826-.2941 2.3889-.4797 3.4573-.9001.9145-.3598 1.8332-.7019 2.6693-1.1191.2031-.1014.4146-.154.6101-.2676.7774-.452 1.5767-.8683 2.3134-1.3624.7243-.4858 1.3832-1.0507 2.0846-1.5569.2768-.2.4878-.5065.7626-.7055.4207-.308.7968-.6679 1.1186-1.0705.1101-.0973.2202-.1946.3305-.2919.1881-.2379.396-.4416.5847-.6812.4176-.5308.9426-1.0089 1.3473-1.557.7294-.9877 1.4399-1.9978 2.11-3.0409.2753-.4284.4619-.88.7372-1.3137.7276-1.1459 1.2721-2.4158 1.8558-3.6979.2466-.5417.4647-1.1057.7118-1.6786.0753-.1742.1775-.3564.2288-.5595h.0509v.3406c.1316.1992-.0163 1.0059.0508 1.3137.0615.2819.0414 1.168-.0254 1.4596v.4623c-.1312.5632-.0722 1.2154-.2034 1.7516-.0424.3243-.0848.6486-.1271.9731-.2461.9145-.3386 1.8545-.6355 2.7247-.2715.796-.4831 1.6214-.8135 2.3841-.8684 2.0044-1.8001 3.8767-2.9744 5.5711-.5214.7524-1.026 1.4723-1.5761 2.1895-.469.6116-1.0474 1.1463-1.5253 1.7516l-.5593.5352c-.259.3279-.589.588-.8897.8758-.5751.5503-1.1494 1.1089-1.805 1.5813-.3676.2649-.6948.6131-1.0677.8758-.649.4571-1.298.9189-1.9575 1.3624-1.8631 1.2528-4.0006 2.2498-6.2028 3.1626-1.2081.5006-2.5135.8378-3.8133 1.2407-.3717.1151-.71.1396-1.0931.2433-.8217.2223-1.748.3347-2.6185.5352-.5455.1258-1.1195.1031-1.6524.2189-.5417.118-1.1203.0076-1.6778.1217-.4044.0827-1.6028.1143-2.0337.0243-.2545-.053-.5908.0221-.8135-.0243h-.5593c-.7794-.0567-1.559-.1135-2.3388-.1703-.4761-.1034-1.0067-.0594-1.4999-.1703-.3798-.0854-.7941-.0767-1.1948-.1703-.9601-.2243-1.9603-.3041-2.8981-.5596-1.2609-.3437-2.595-.6111-3.7624-1.0704-.7425-.2922-1.504-.5435-2.2371-.8514-.2837-.1193-.5848-.2959-.8643-.4136-.492-.2073-.9736-.3953-1.4236-.6569-1.1445-.6653-2.2821-1.2954-3.3557-2.0192-2.53354-1.7078-4.64979-3.9155-6.43165-6.3495-.38244-.5223-.76387-1.0778-1.11855-1.63-.15912-.2477-.24776-.5038-.40675-.7542-.19153-.3016-.40883-.6459-.55927-.9731-.5273-1.1465-1.06972-2.3111-1.49988-3.5518-.27964-.807-.43405-1.6013-.686387-2.4571-.20406-.6922-.298832-1.4816-.483012-2.2139-.073951-.2938-.029591-.5507-.101686-.8514-.073876-.308-.078604-.7058-.15253-1.0218v-.2676c-.1355995-.599-.126956-1.3081-.127109-1.9949-.000178-.8184-.0606303-1.756.101687-2.4571.016948-.2352.033895-.4704.050843-.7055.103721-.4311.085137-.8987.203374-1.338.313449-1.1648.486011-2.3221.86434-3.4059 1.16972-3.3512 2.73282-6.0773 4.65216-8.685.6015-.8172 1.35726-1.5188 1.98289-2.3112.27936-.3537.68275-.615.96602-.9731.05207-.0659.13288-.0949.20337-.146.2411-.1744.41321-.4291.66097-.6081.16948-.1623.33897-.3245.50847-.4866.4113-.2978.7768-.6284 1.1948-.9245.8421-.5965 1.6651-1.2536 2.5676-1.8002 2.0141-1.2198 4.2303-2.1584 6.7113-2.9437.9075-.2873 1.883-.3985 2.8472-.6325.4152-.0567.8304-.1134 1.2457-.1703.4999-.0406.9999-.0812 1.4998-.1216.1831-.0385.4729.0584.6102-.0244zm36.0479 27.8554h.0508c-.1774.5072-.3175.9901-.5338 1.4596-.5474 1.1882-1.2869 2.2698-2.0338 3.2843-.4573.6211-1.0273 1.1755-1.4998 1.7759-1.6192 2.0572-3.6503 3.7961-6.3809 4.7926-.6581.2401-1.3956.3588-2.1608.5352-.363.0837-.7919-.0054-1.1694.073-.4535.0941-1.3883.0418-1.805-.0487-.3482-.0756-1.253-.0328-1.449-.1946h.0509c.1093-.0915.2623-.1095.4067-.1703.3447-.1455.6831-.3104 1.0423-.4622.3937-.1715.7758-.3665 1.144-.5839.1472-.0859.3104-.109.4576-.1946.502-.292 1.0433-.5294 1.5507-.8272 1.132-.6644 2.2765-1.3197 3.3556-2.0435.9236-.6194 1.8126-1.2843 2.7201-1.9219.8423-.5919 1.581-1.3195 2.4151-1.9219.2288-.1652.4075-.4189.6355-.5839.4391-.3179.8575-.6996 1.2457-1.0704.1609-.1622.3219-.3244.483-.4865.3733-.2725.7067-.5916.9915-.9488zm15.075 29.1446c-.0084.0163-.017.0324-.0254.0487.0442-.0341.0254-.0487.0254-.0487z" fill="#000" fill-rule="evenodd"/></svg>