<svg width="104" height="95" viewBox="0 0 104 95" fill="none" xmlns="http://www.w3.org/2000/svg">
<path fill-rule="evenodd" clip-rule="evenodd" d="M71.4094 0.0973866C76.3094 0.00761703 79.3372 2.42991 80.7646 5.64412C80.9886 6.14856 81.1535 6.71897 81.3239 7.29841C81.3984 7.55218 81.3915 7.83143 81.451 8.0769C81.5214 8.36769 81.5448 9.22186 81.4764 9.51224C81.4001 9.83607 81.48 10.1988 81.4001 10.5097C81.2219 11.2043 81.1091 11.8746 80.8409 12.4802C79.749 14.9462 77.9036 16.5895 75.2989 17.6134C74.7384 17.8337 74.0985 17.9034 73.4686 18.0513C73.2426 18.1044 72.9919 18.0785 72.7822 18.1243C72.5361 18.1779 71.5708 18.1462 71.3586 18.1C70.9501 18.0112 70.5924 18.0762 70.2146 17.9783C69.5796 17.8138 68.9539 17.6465 68.4097 17.4188C65.6707 16.2732 63.9891 14.4508 63.0203 11.6044C62.8705 11.1643 62.8113 10.6459 62.6898 10.1448C62.6814 9.93392 62.6729 9.72308 62.6644 9.51224C62.6186 9.30789 62.6163 8.91366 62.6644 8.70942C62.7333 8.41749 62.6473 8.15592 62.7152 7.88228C62.8583 7.30668 62.9044 6.71895 63.122 6.20366C64.2057 3.63864 65.8418 1.84084 68.4605 0.754237C69.092 0.492202 69.7941 0.368447 70.5197 0.194698C70.7408 0.141712 71.2455 0.195744 71.4094 0.0973866ZM16.2444 15.4482C16.1967 15.1866 15.7117 14.8881 15.5072 14.7427C14.8773 14.2899 14.2826 13.7939 13.7277 13.2587C13.5294 13.0684 13.2142 12.8243 13.1938 12.4802C13.2219 12.4682 13.2477 12.4517 13.2701 12.4316C13.7379 12.5124 14.1362 12.7602 14.4903 12.9668C14.941 13.2297 15.4221 13.4164 15.9139 13.6236C16.6512 13.9343 17.3524 14.3097 18.3798 14.3535C18.3841 14.0551 18.4793 13.745 18.5578 13.502C18.7905 12.7812 18.9424 12.2765 19.2696 11.6774C20.2741 9.83843 21.6948 8.62625 23.7692 7.8093C24.1836 7.6461 24.598 7.61175 25.0657 7.49303C26.2285 7.19791 28.0175 7.22543 29.1078 7.56602C31.5678 8.33441 33.2053 9.67385 34.3192 11.7261C34.6627 12.3588 34.8935 13.0601 35.1073 13.8426C35.1498 14.1426 35.1921 14.4427 35.2344 14.7427V15.1806C35.2972 15.458 35.2545 16.2628 35.1836 16.543C34.9896 17.3077 34.8432 17.9921 34.548 18.6352C33.7518 20.3707 32.1983 21.6943 30.3789 22.4546C29.9355 22.6399 29.5039 22.7247 29.0061 22.8682C27.6768 23.2518 25.3613 23.2873 24.0235 22.8682C23.0803 22.5728 22.2225 22.2363 21.4559 21.7734C21.0344 21.519 20.6336 21.1988 20.2102 20.9463C20.0561 20.8544 19.9033 20.8258 19.7272 20.7517C19.3833 20.607 19.0228 20.3997 18.7103 20.2165C18.0184 19.8109 17.3298 19.4626 16.6766 19.0244C16.1539 18.6737 15.6587 18.2657 15.1513 17.9053C14.9293 17.7477 14.1139 17.1889 14.0327 16.9809H14.0836C14.206 17.0836 14.3968 17.0913 14.5666 17.1512C14.9813 17.2974 15.4559 17.4565 15.9902 17.4674V17.4188C15.6283 17.3085 15.3132 16.9853 15.0242 16.7862C14.1763 16.2022 13.4623 15.5366 12.7362 14.84C12.4968 14.6103 11.9347 14.1213 11.9227 13.7209C11.9718 13.7048 12.0234 13.6965 12.0753 13.6966C12.1612 13.7574 12.2863 13.7635 12.3803 13.8183C12.6295 13.9632 12.8895 14.1029 13.143 14.2562C14.044 14.8012 14.7612 15.4464 16.2444 15.4482ZM67.6979 21.0923H67.8758V21.1166H67.825C67.5161 21.3346 66.8628 21.4671 66.4776 21.6275C65.6196 21.9848 64.7484 22.3332 63.8846 22.6979C60.5378 24.111 57.3629 25.7978 54.5549 27.7338C53.3084 28.593 52.1362 29.5476 51.3263 30.8234C51.1801 31.0535 51.1255 31.3357 51.0213 31.6019H51.0467C51.1537 31.4603 51.3319 31.3433 51.4788 31.237C51.5467 31.164 51.6145 31.091 51.6822 31.018C51.9738 30.8066 52.2278 30.5726 52.5211 30.3612C52.812 30.1515 53.0664 29.8641 53.36 29.6557C54.2498 29.0239 55.119 28.4025 56.0547 27.8067C58.0096 26.562 60.077 25.4873 62.2322 24.5955C63.5079 24.0668 64.8735 23.6835 66.2488 23.2574C67.4607 22.882 68.7656 22.7613 70.0621 22.4546C70.4787 22.3561 70.8784 22.402 71.3077 22.3087C71.684 22.2269 72.1121 22.2733 72.528 22.187C73.2604 22.0351 74.2958 22.0655 75.1464 22.0654C75.7906 22.0654 76.5334 21.9951 77.1039 22.114H77.536C77.9888 22.2102 78.4942 22.1333 78.9597 22.2357C79.329 22.3169 79.7411 22.2913 80.129 22.3816C81.2507 22.6427 82.4048 22.7101 83.4593 23.0385C85.0176 23.524 86.5185 23.9508 87.9335 24.5468C92.5107 26.475 96.2197 29.4425 98.9411 33.1589C99.7818 34.3071 100.635 35.5585 101.254 36.9053C101.876 38.2567 102.376 39.6663 102.881 41.1627C103.155 41.9743 103.242 42.8481 103.466 43.6928C103.568 44.4143 103.67 45.1361 103.771 45.858C103.84 46.1518 103.785 46.4637 103.847 46.7338C103.856 47.0257 103.864 47.3176 103.873 47.6096C103.951 47.9643 103.953 48.861 103.873 49.2152C103.792 49.5733 103.896 49.9625 103.822 50.2856C103.814 50.5289 103.805 50.7722 103.797 51.0154C103.712 51.7857 103.627 52.556 103.542 53.3266C103.407 54.1051 103.271 54.8836 103.136 55.6621C102.718 57.2025 102.405 58.7454 101.865 60.1384C101.732 60.4787 101.677 60.803 101.534 61.1358C100.988 62.4072 100.469 63.6861 99.8308 64.858C99.6308 65.2253 99.495 65.6009 99.2716 65.9527C98.7659 66.7494 98.3149 67.5761 97.7971 68.3612C97.11 69.4026 96.3399 70.3935 95.5854 71.3778C94.9878 72.1573 94.2615 72.8455 93.6534 73.616C93.4429 73.8828 93.1564 74.0981 92.9416 74.3701L92.001 75.2703C91.7385 75.6003 91.4306 75.8949 91.0858 76.1461C90.9671 76.2677 90.8484 76.3893 90.7299 76.511C90.4289 76.799 90.1053 77.0912 89.7639 77.3381C89.6876 77.4191 89.6113 77.5002 89.5351 77.5814C88.9982 77.9702 88.5439 78.4616 88.0098 78.8464C86.7153 79.7794 85.4803 80.7951 84.1457 81.6928C82.4564 82.8289 80.6893 83.8808 78.9088 84.9284C78.0671 85.4235 77.1659 85.7966 76.3158 86.2907C75.5249 86.7505 74.667 87.1123 73.8245 87.5315C72.2552 88.3121 70.5947 89.0524 68.9435 89.7453C68.2711 90.0275 67.614 90.2423 66.9352 90.5238C65.8876 90.9583 64.795 91.3115 63.7067 91.7402C63.3579 91.8776 62.9829 91.9842 62.6135 92.1294C62.4656 92.1876 62.3138 92.2729 62.1305 92.2997V92.2754H62.1559C62.417 92.0542 63.0383 91.8596 63.3762 91.6915C64.0938 91.3341 64.8539 90.9953 65.537 90.5968C65.777 90.4566 66.034 90.3958 66.2742 90.2562C67.4103 89.5954 68.6222 89.049 69.757 88.3829C71.4066 87.4149 73.0491 86.4294 74.638 85.4149C75.4461 84.8989 76.2215 84.3608 77.0022 83.8336C77.2658 83.6556 77.8775 83.332 78.0445 83.1038H78.0191C77.8513 83.258 77.6138 83.324 77.4089 83.4444C77.0879 83.6329 76.751 83.8081 76.4175 84.0039C75.3617 84.6238 74.2287 85.1826 73.1635 85.8042C72.743 86.0494 72.289 86.1912 71.867 86.4367C71.5314 86.6318 71.1478 86.7693 70.7993 86.9719C70.0232 87.4232 69.1611 87.8039 68.308 88.164C67.5941 88.4652 66.8686 88.8576 66.1471 89.1614C64.9879 89.6497 63.8124 90.1073 62.6389 90.5724C60.6263 91.3701 58.4856 91.9238 56.3344 92.5916C56.0367 92.6841 55.7693 92.6931 55.47 92.7863C53.9453 93.2607 52.2489 93.4431 50.6145 93.8324C49.5722 93.9864 48.5299 94.1404 47.4876 94.2946C47.1434 94.3712 46.7878 94.3471 46.4708 94.4162C45.9151 94.5371 45.3273 94.4719 44.7929 94.5865C44.1465 94.7249 43.3716 94.622 42.7338 94.7568C42.4966 94.7648 42.2593 94.773 42.022 94.7811C41.6442 94.8595 41.1467 94.857 40.7509 94.8785C40.5414 94.8896 40.1459 94.9704 39.9883 94.8785C40.2239 94.8573 40.4672 94.769 40.6746 94.7082C41.119 94.578 41.5736 94.5155 41.9966 94.3919C43.1133 94.0652 44.2736 93.9005 45.3522 93.5648C46.1225 93.3251 46.8796 93.2237 47.6402 92.9809C48.3906 92.7415 49.1967 92.5357 49.9281 92.2754C50.1625 92.1919 50.3834 92.1717 50.6145 92.0808C51.158 91.8667 51.7374 91.7173 52.2923 91.4969C52.9157 91.2492 53.5677 90.9736 54.1735 90.7184C54.8297 90.442 55.4703 90.1834 56.0547 89.8426C56.3484 89.6713 56.6542 89.575 56.9445 89.4047C57.6464 88.9928 58.3241 88.5411 58.9782 88.091C59.263 87.8952 59.8398 87.5509 60.0205 87.2882H59.9951C59.8586 87.3823 59.6796 87.3921 59.5121 87.4585C59.1206 87.6139 58.7027 87.7336 58.2918 87.8964C57.232 88.3165 56.0807 88.644 55.0125 89.0641C54.6138 89.221 54.2178 89.2714 53.8176 89.429C52.9398 89.7747 52.0023 90.0073 51.0721 90.3048C49.6058 90.7741 48.0464 91.1716 46.547 91.6429C45.8327 91.8674 45.0856 91.9854 44.3862 92.2024C44.1828 92.243 43.9795 92.2836 43.7761 92.324C43.0633 92.532 42.2663 92.6632 41.539 92.8592C41.344 92.8916 41.1491 92.924 40.9543 92.9566C39.7272 93.2884 38.3686 93.3813 37.0902 93.6864C36.9293 93.7027 36.7683 93.7189 36.6072 93.735C35.7052 93.9438 34.669 93.9216 33.7345 94.1243C33.3829 94.2004 33.0179 94.1518 32.6922 94.2216C32.1319 94.3415 31.4405 94.2255 30.8873 94.3432C30.3789 94.3595 29.8704 94.3758 29.362 94.3919C29.1993 94.3921 28.8899 94.4335 28.7773 94.3676C29.2977 94.3206 30.0192 94.0961 30.506 93.954C30.811 93.889 31.1161 93.8242 31.4212 93.7594C32.1233 93.5521 32.8918 93.3903 33.582 93.1755C34.4468 92.9064 35.2964 92.7673 36.1496 92.4943C38.7906 91.6494 41.4673 90.9013 43.954 89.9156C45.0085 89.4976 46.0478 89.1772 47.0809 88.7478C48.6029 88.1153 50.0979 87.4378 51.606 86.8016C51.9631 86.651 52.3241 86.4333 52.6737 86.2664C53.1849 86.0222 53.7009 85.8122 54.1735 85.5366C54.3367 85.4415 54.5185 85.4125 54.682 85.3176C55.2535 84.9853 55.8816 84.7311 56.4615 84.3932C57.7758 83.6271 59.1188 82.8834 60.4018 82.1064C67.36 77.8923 73.3005 72.8248 77.6631 66.123C78.6429 64.6178 79.3888 62.9353 80.129 61.2088C80.4455 60.4707 80.6311 59.6691 80.8917 58.8977C81.239 57.8693 81.286 56.7315 81.5527 55.6134C81.6338 55.2733 81.5796 54.9147 81.6543 54.5916V54.2267C81.7421 53.8324 81.7746 52.6457 81.6798 52.2318V51.7696C81.6668 51.5487 81.651 51.2451 81.6035 51.0398C81.5865 50.8045 81.5695 50.5694 81.5527 50.3343C81.451 49.7343 81.3493 49.1343 81.2476 48.534C81.0112 47.728 80.8205 46.8975 80.5612 46.1499C80.5111 46.0051 80.5193 45.8952 80.4595 45.7606C80.1507 45.0634 79.6165 44.4423 79.163 43.8631L78.7563 43.4738C78.5544 43.2184 78.2842 42.9357 78.0191 42.744C77.5894 42.4333 77.1796 42.0735 76.7225 41.7952C75.6429 41.1379 74.4404 40.6105 73.1127 40.1896C70.1935 39.2642 65.7244 39.3043 62.7661 40.1653C61.7708 40.455 60.8421 40.6684 59.9443 41.0411C55.3818 42.9352 51.7753 45.7964 49.0384 49.4341C47.658 51.2657 46.4822 53.2308 45.5302 55.2971C45.2144 55.9854 44.9394 56.6948 44.6404 57.3893C44.5558 57.6326 44.471 57.8759 44.3862 58.1192H43.0389C42.9539 58.1695 42.7361 58.1435 42.6067 58.1435H37.5986V58.1192C37.8251 57.8664 38.0051 57.1351 38.1579 56.7811C38.4386 56.1311 38.6521 55.4132 38.8697 54.6889C38.8951 54.5106 38.9205 54.3322 38.946 54.1537C39.0576 53.702 39.0693 52.9814 38.9205 52.5481C38.5697 51.5254 37.8526 50.7739 37.1156 50.1153C37.1121 49.9088 37.1039 49.7044 37.0648 49.5315V48.9719C37.0294 48.8048 36.9918 48.4467 37.0393 48.2421C37.1227 47.8823 37.0287 47.4672 37.1156 47.0987C37.1726 46.8569 37.1517 46.5788 37.2173 46.3202C37.3917 45.6337 37.454 44.9264 37.6749 44.2767C37.9784 43.3833 38.2616 42.5015 38.6409 41.6736C39.5279 39.7378 40.667 38.0283 41.8695 36.3944C42.428 35.6354 43.1177 34.9676 43.6998 34.2293C43.8943 33.9826 44.1925 33.7933 44.3862 33.5481C44.6852 33.1696 45.0558 32.8586 45.4031 32.5263C45.6794 32.2621 45.927 31.9755 46.242 31.7478C46.5646 31.5145 46.8554 31.109 47.1826 30.872C48.096 30.2111 48.9184 29.4596 49.8519 28.8042C50.2934 28.4942 50.7231 28.1342 51.1738 27.8311C52.4472 26.9747 53.7937 26.2116 55.1396 25.4226C55.6472 25.1251 56.2012 24.9434 56.7157 24.6441C57.2351 24.3422 57.8536 24.055 58.419 23.817C59.5937 23.3226 60.8129 22.9068 62.0288 22.4303C62.7732 22.1387 63.5976 21.9867 64.3676 21.7491C65.1371 21.5118 65.9616 21.4313 66.7573 21.2382C67.0044 21.1783 67.5153 21.2071 67.6979 21.0923ZM26.9724 26.0551H27.5062V26.0795H27.4554C27.3443 26.1486 27.1923 26.1344 27.0486 26.1768C26.6561 26.2923 26.2339 26.3631 25.8284 26.493C24.712 26.8507 23.5739 27.1511 22.5236 27.5878C20.9688 28.2342 19.4693 28.9258 18.1002 29.753C17.505 30.1125 16.9545 30.5526 16.397 30.945C15.6556 31.4666 14.76 32.1711 14.2107 32.8669C14.0751 32.9966 13.9395 33.1263 13.8039 33.2562C13.4082 33.7585 12.9765 34.2383 12.6346 34.7888H12.66V34.7645C13.0221 34.5397 13.3067 34.1142 13.6514 33.8644C14.3172 33.3819 14.9103 32.8056 15.5835 32.3317C16.7844 31.4863 18.0437 30.7312 19.3459 29.9719C19.617 29.8138 19.9009 29.7238 20.1848 29.5827C21.0188 29.1679 21.9247 28.7957 22.8286 28.4393C24.0033 27.9761 25.295 27.7391 26.591 27.3932C27.2266 27.2878 27.8621 27.1824 28.4977 27.0769C29.1924 27.012 29.8873 26.9471 30.5822 26.8823H31.0653C31.3207 26.83 31.6929 26.9163 31.9804 26.858C32.1759 26.8183 32.5476 26.8171 32.7431 26.858C33.0298 26.918 33.4033 26.8288 33.6583 26.8823C34.0734 26.8986 34.4886 26.9148 34.9039 26.9309C35.1556 26.9847 35.4418 26.9443 35.7174 27.0039C36.4394 27.1603 37.2417 27.1572 37.9291 27.3202C38.437 27.4406 38.9343 27.4676 39.4036 27.5878C39.5929 27.6362 39.8278 27.6092 39.9628 27.7094C39.5914 27.7043 39.0904 27.6856 38.7426 27.7581C38.3933 27.8308 38.0158 27.7408 37.7003 27.8067H37.319C37.0251 27.869 36.641 27.8432 36.353 27.9041C36.0904 27.9203 35.8277 27.9366 35.5649 27.9527C35.0031 28.0743 34.353 28.0717 33.8108 28.196L32.7177 28.342C31.9021 28.5427 31.0243 28.6531 30.2518 28.8772C29.5946 29.0676 28.9771 29.1618 28.3451 29.3637C27.1348 29.7503 25.9654 30.1801 24.8369 30.6531C24.1891 30.9302 23.5608 31.2471 22.9557 31.6019C22.2105 32.0369 21.4692 32.3976 20.7695 32.8669C18.231 34.5696 16.0093 36.7107 14.3378 39.2408C13.6526 40.2779 13.1248 41.3863 12.5583 42.5494H12.5837C12.9544 41.9825 13.5103 41.5259 13.9311 40.9924C14.0666 40.8627 14.2022 40.733 14.3378 40.6032C14.8357 39.9731 15.4513 39.4432 16.0156 38.8759C16.3314 38.5584 16.6126 38.2183 16.9817 37.9514C17.0664 37.8621 17.1511 37.7729 17.2359 37.6838C17.4669 37.4627 17.7107 37.2411 17.9731 37.0513C18.0578 36.962 18.1426 36.8728 18.2273 36.7837C19.3228 35.9906 20.2978 35.043 21.4304 34.2779C22.1209 33.8116 22.8243 33.3479 23.5404 32.9156C23.9732 32.6543 24.4205 32.4672 24.8624 32.2101C25.2323 31.9948 25.656 31.7464 26.0572 31.5775C27.0542 31.1576 28.0683 30.7686 29.1078 30.3612C30.0247 30.0016 31.0589 29.8386 32.0567 29.5827C32.4258 29.488 32.7693 29.5019 33.1498 29.4124C33.6349 29.2983 34.2163 29.3022 34.726 29.1934C34.9293 29.1854 35.1327 29.1773 35.3361 29.1691C35.6223 29.1105 35.9754 29.1866 36.3021 29.1204C36.6677 29.0465 37.5897 29.0443 37.9545 29.1204C38.4035 29.1367 38.8526 29.153 39.3019 29.1691C39.6191 29.2367 39.9789 29.1917 40.3187 29.2664C41.0026 29.4165 41.7563 29.4491 42.4033 29.607C43.003 29.7534 43.5829 29.8131 44.132 29.9719C44.3455 30.0337 44.6338 30.023 44.7929 30.1422C44.0738 30.1755 43.1911 30.2166 42.5304 30.3612C42.3863 30.3692 42.2422 30.3773 42.0983 30.3855C41.7571 30.4619 41.3376 30.4789 41.0051 30.5558C40.8356 30.5721 40.6661 30.5883 40.4967 30.6044C39.7765 30.7341 39.0562 30.8639 38.3358 30.9937C37.7839 31.1431 37.1891 31.2092 36.6326 31.3829C35.2865 31.8031 33.9237 32.1478 32.6922 32.648C31.2 33.254 29.7799 33.8167 28.4722 34.5942C27.4315 35.2128 26.4614 35.9006 25.4979 36.5891C25.0692 36.8954 24.7254 37.3296 24.3031 37.6352C23.7278 38.0514 23.137 38.6873 22.7015 39.2408C22.497 39.5009 22.218 39.731 22.0151 39.995C21.1675 41.0977 20.3631 42.2443 19.7526 43.5711C19.5374 44.0387 19.2766 44.5423 19.0662 45.0308C18.8182 45.6069 18.6583 46.2336 18.4561 46.8311C18.2075 47.5658 18.1434 48.3669 17.9477 49.1422C17.8799 49.7341 17.8121 50.3261 17.7443 50.9181V51.356C17.6801 51.6455 17.6539 52.4841 17.7189 52.7671C17.7748 53.0103 17.6951 53.3324 17.7443 53.5455C17.8536 54.0197 17.7587 54.4997 17.8714 54.9566C18.1188 55.9589 18.2132 56.959 18.5324 57.8759C18.9874 59.1828 19.486 60.4588 20.1848 61.5494C20.6644 62.2979 21.1966 62.9996 21.7355 63.6902C21.8645 63.8554 22.0638 63.9887 22.1931 64.1525C22.5079 64.5512 22.8952 64.946 23.3116 65.2472C23.5297 65.4048 23.7019 65.6484 23.9218 65.8067C24.5317 66.2463 25.1259 66.7258 25.7775 67.1204C27.5782 68.2108 29.4639 68.9085 31.7008 69.6019C32.661 69.8994 33.704 69.9739 34.726 70.2101C35.1213 70.3013 35.4896 70.2451 35.8954 70.3317C36.2304 70.4032 36.6166 70.3519 36.9885 70.429C37.6894 70.5743 38.6272 70.5261 39.429 70.5263C40.1128 70.5266 40.9205 70.5786 41.5136 70.4534H41.8695C42.4625 70.3884 43.0557 70.3235 43.649 70.2587C44.0323 70.1692 44.4444 70.1634 44.8438 70.0641C46.0264 69.77 47.2327 69.5844 48.3011 69.164C49.2156 68.8042 50.1343 68.4621 50.9704 68.0449C51.1735 67.9435 51.385 67.8909 51.5805 67.7773C52.3579 67.3253 53.1572 66.909 53.8939 66.4149C54.6182 65.9291 55.2771 65.3642 55.9785 64.858C56.2553 64.658 56.4663 64.3515 56.7411 64.1525C57.1618 63.8445 57.5379 63.4846 57.8597 63.082C57.9698 62.9847 58.0799 62.8874 58.1902 62.7901C58.3783 62.5522 58.5862 62.3485 58.7749 62.1089C59.1925 61.5781 59.7175 61.1 60.1222 60.5519C60.8516 59.5642 61.5621 58.5541 62.2322 57.511C62.5075 57.0826 62.6941 56.631 62.9694 56.1973C63.697 55.0514 64.2415 53.7815 64.8252 52.4994C65.0718 51.9577 65.2899 51.3937 65.537 50.8208C65.6123 50.6466 65.7145 50.4644 65.7658 50.2613H65.8167V50.6019C65.9483 50.8011 65.8004 51.6078 65.8675 51.9156C65.929 52.1975 65.9089 53.0836 65.8421 53.3752V53.8375C65.7109 54.4007 65.7699 55.0529 65.6387 55.5891C65.5963 55.9134 65.5539 56.2377 65.5116 56.5622C65.2655 57.4767 65.173 58.4167 64.8761 59.2869C64.6046 60.0829 64.393 60.9083 64.0626 61.671C63.1942 63.6754 62.2625 65.5477 61.0882 67.2421C60.5668 67.9945 60.0622 68.7144 59.5121 69.4316C59.0431 70.0432 58.4647 70.5779 57.9868 71.1832L57.4275 71.7184C57.1685 72.0463 56.8385 72.3064 56.5378 72.5942C55.9627 73.1445 55.3884 73.7031 54.7328 74.1755C54.3652 74.4404 54.038 74.7886 53.6651 75.0513C53.0161 75.5084 52.3671 75.9702 51.7076 76.4137C49.8445 77.6665 47.707 78.6635 45.5048 79.5763C44.2967 80.0769 42.9913 80.4141 41.6915 80.817C41.3198 80.9321 40.9815 80.9566 40.5984 81.0603C39.7767 81.2826 38.8504 81.395 37.9799 81.5955C37.4344 81.7213 36.8604 81.6986 36.3275 81.8144C35.7858 81.9324 35.2072 81.822 34.6497 81.9361C34.2453 82.0188 33.0469 82.0504 32.616 81.9604C32.3615 81.9074 32.0252 81.9825 31.8025 81.9361H31.2432C30.4638 81.8794 29.6842 81.8226 28.9044 81.7658C28.4283 81.6624 27.8977 81.7064 27.4045 81.5955C27.0247 81.5101 26.6104 81.5188 26.2097 81.4252C25.2496 81.2009 24.2494 81.1211 23.3116 80.8656C22.0507 80.5219 20.7166 80.2545 19.5492 79.7952C18.8067 79.503 18.0452 79.2517 17.3121 78.9438C17.0284 78.8245 16.7273 78.6479 16.4478 78.5302C15.9558 78.3229 15.4742 78.1349 15.0242 77.8733C13.8797 77.208 12.7421 76.5779 11.6685 75.8541C9.13496 74.1463 7.01871 71.9386 5.23685 69.5046C4.85441 68.9823 4.47298 68.4268 4.1183 67.8746C3.95918 67.6269 3.87054 67.3708 3.71155 67.1204C3.52002 66.8188 3.30272 66.4745 3.15228 66.1473C2.62498 65.0008 2.08256 63.8362 1.6524 62.5955C1.37276 61.7885 1.21835 60.9942 0.966013 60.1384C0.761953 59.4462 0.667181 58.6568 0.483001 57.9245C0.40905 57.6307 0.45341 57.3738 0.381315 57.0731C0.307439 56.7651 0.302711 56.3673 0.228785 56.0513V55.7837C0.0931855 55.1847 0.101829 54.4756 0.101676 53.7888C0.101498 52.9704 0.0410457 52.0328 0.203363 51.3317C0.220311 51.0965 0.237258 50.8613 0.254206 50.6262C0.357927 50.1951 0.339343 49.7275 0.45758 49.2882C0.771029 48.1234 0.943591 46.9661 1.32192 45.8823C2.49164 42.5311 4.05474 39.805 5.97408 37.1973C6.57558 36.3801 7.33134 35.6785 7.95697 34.8861C8.23633 34.5324 8.63972 34.2711 8.92299 33.913C8.97506 33.8471 9.05587 33.8181 9.12636 33.767C9.36746 33.5926 9.53957 33.3379 9.78733 33.1589C9.95681 32.9966 10.1263 32.8344 10.2958 32.6723C10.7071 32.3745 11.0726 32.0439 11.4906 31.7478C12.3327 31.1513 13.1557 30.4942 14.0582 29.9476C16.0723 28.7278 18.2885 27.7892 20.7695 27.0039C21.677 26.7166 22.6525 26.6054 23.6167 26.3714C24.0319 26.3147 24.4471 26.258 24.8624 26.2011C25.3623 26.1605 25.8623 26.1199 26.3622 26.0795C26.5453 26.041 26.8351 26.1379 26.9724 26.0551ZM63.0203 53.9105H63.0711C62.8937 54.4177 62.7536 54.9006 62.5373 55.3701C61.9899 56.5583 61.2504 57.6399 60.5035 58.6544C60.0462 59.2755 59.4762 59.8299 59.0037 60.4303C57.3845 62.4875 55.3534 64.2264 52.6228 65.2229C51.9647 65.463 51.2272 65.5817 50.462 65.7581C50.099 65.8418 49.6701 65.7527 49.2926 65.8311C48.8391 65.9252 47.9043 65.8729 47.4876 65.7824C47.1394 65.7068 46.2346 65.7496 46.0386 65.5878H46.0895C46.1988 65.4963 46.3518 65.4783 46.4962 65.4175C46.8409 65.272 47.1793 65.1071 47.5385 64.9553C47.9322 64.7838 48.3143 64.5888 48.6825 64.3714C48.8297 64.2855 48.9929 64.2624 49.1401 64.1768C49.6421 63.8848 50.1834 63.6474 50.6908 63.3496C51.8228 62.6852 52.9673 62.0299 54.0464 61.3061C54.97 60.6867 55.859 60.0218 56.7665 59.3842C57.6088 58.7923 58.3475 58.0647 59.1816 57.4623C59.4104 57.2971 59.5891 57.0434 59.8171 56.8784C60.2562 56.5605 60.6746 56.1788 61.0628 55.808C61.2237 55.6458 61.3847 55.4836 61.5458 55.3215C61.9191 55.049 62.2525 54.7299 62.5373 54.3727L63.0203 53.9105ZM78.0953 83.0551C78.0869 83.0714 78.0783 83.0875 78.0699 83.1038C78.1141 83.0697 78.0953 83.0551 78.0953 83.0551Z" fill="black"/>
</svg>
