<svg fill="none" height="19" viewBox="0 0 118 19" width="118" xmlns="http://www.w3.org/2000/svg"><path clip-rule="evenodd" d="m58.5867 3.20215c.5583-.01507 1.1157.0569 1.6532.21349.115.1955.254.37488.4133.5337.0715 2.10281-1.0365 1.57786-1.1366 3.20225 1.6354 1.7939 1.6928-.47425 1.9633-1.92135.4521-.29791.7219-.58281 1.4465-.64045.1994.16289.5038.15809.7233.32023l.5167.74719c.0135.37082.0345.85735-.1033 1.06742-.1638.54171-.496.61835-.8267.96067h-1.5499c-.2686.41202-.4856.45899-.5166 1.17416.3471.20131.5476.31104 1.1366.32022.5093-.57992 1.0376-1.24001 2.0665-1.2809.1539.11161.3308.1847.5167.21349l.6199.74719c.0464 1.02739-.0092 1.78034-.7233 2.02804-.2455.2038-.5669.2195-1.0332.2135-.4811-.4967-1.1103-1.20476-1.9633-1.28087-.3862.31947-.5914.22417-.6199.96067.7977.776 1.2135.491 2.3765.7472.3743.577.6277.7518.62 1.8146-.3484.3701-.6752.7074-1.0333 1.0674h-.8266c-.3426-.3561-.8622-.5343-1.0333-1.0674-.2773-.864.2497-1.5833-.5166-1.9213-.6847-.517-1.2528.2615-1.24.9606.7351.8609 1.2546 1.5871.93 2.9888-.479.3101-1.4041.8276-2.0666.3202-.3627-.127-.3854-.3029-.6199-.5337-.0229-.4983-.1539-.9037.1033-1.2809.1571-.4824.6935-.9607 1.0333-1.2809-.0345-.3558-.0689-.7116-.1033-1.0674-.3031-.1425-.5173-.2621-.93-.3202l-.62.6404c-.3855.894.1714 1.868-.7233 2.2416-.2539.3193-.6547.3366-1.2399.3202-.3582-.3599-.6847-.6974-1.0333-1.0674v-.9607c.8783-.9727 1.0114-1.0486 2.5832-1.0674.2596-.3998.4108-.4339.4133-1.1741l-.3099-.1068c-.1959-.16234-.371-.19095-.7233-.21347-.4811.49677-1.1103 1.20477-1.9633 1.28087-.1041-.0739-.4133-.1373-.5166-.2135-.4856-.172-.521-.5203-.8266-.8539-.0599-1.574.4398-2.08967 1.9632-2.02808.3349.44939.8639.76086 1.2399 1.17416.8163.03299 1.1527-.09607 1.1366-.96067-.5436-.51236-1.5061-.55154-2.3765-.74719-.4663-.66105-1.1792-2.10281.1033-2.5618.2286-.22298.4999-.29365.93-.32023.4815.38577 1.0257.40509 1.2399 1.06742.402 1.24301-.3427 2.71049 1.5499 1.92135.1399-.31916.2046-.53915.2067-1.06742l-1.1366-1.2809c-.0149-.50046.0197-1.00118.1033-1.49438zm-39.7811 2.5618c3.123-.13791 5.838.163 8.2662.74719h1.6532l2.7899.32023c.708.19213 4.0957 1.44667 4.4431 1.38764.341-.05786.8196-.41213 1.1366-.53371 1.1421-.43817 2.3868-.74367 3.5131-1.06742 2.0741-.59625 5.6754-1.16892 8.3695-.85393.9185.10738 3.1039.52741 3.9265.74719v.32023c.0458.28884-.079.87528-.62.96067-.8765-.71709-2.928-.53819-4.4431-.53371-3.4541.01068-6.5416 1.12079-9.0928 2.24158v.10674c1.4363.18925 4.283 1.48135 5.7864 1.92135 2.7858.8153 5.4077.2943 8.0595-.3202l.1033.2135c.1744.2258.282.6906.2067.8539l-.1033.3202c-.8155.1174-1.4373.441-2.2732.5337-1.9007.2109-5.1346.2911-6.7163-.1067-1.6187-.3913-3.1345-.7829-4.7531-1.1742-.8133-.2749-2.2948-.9001-3.0998-1.0674-1.1357.3891-2.2275.6618-3.3685 1.0646-1.109.2874-2.2803.3587-3.3478.5365-.7233 0-1.3433.1068-2.0666.1068-1.4802.3512-3.1445.7584-4.8564.7472-1.2885-.0085-2.8663.0221-3.7197 0-.7233-.0356-1.55-.0712-2.2733-.1068-2.5747-.3808-4.8675-1.0405-7.23288-1.8146-1.059-.3466-1.88924-.7899-3.09982-1.38763-.72598.36933-.89761.49933-1.65324 1.06743-.28457.3431.205.6693-.41331 1.2809-.25192.425-1.44835.4423-1.75657.2135-.54061-.4015-.5497-1.8406 0-2.2416.82414-.60128 1.7328.3194 2.89317-.74719-.42251-.21466-.83695-.51546-1.23993-.74719-.48099.04173-.87994.23856-1.54991.10674l-.51664-.64045c-.01002-.42956.02462-.85898.10333-1.2809l.72329-.64045c1.98223-.0285 1.24654.73652 1.85989 1.81461.39792.39377 1.07172.70246 1.75657.96067.55993-.29792 1.09062-.50094 1.65324-.74719 2.0277-.88756 4.35581-1.51392 6.71631-2.13483 1.4119-.17783 2.7264-.32193 4.2364-.42697zm50.4238-.10674c3.6979-.02733 6.8496.33261 9.7128 1.2809.5627.18637 3.3905 1.37526 3.8231 1.2809.372-.08113.8506-.38641 1.24-.53371 1.0332-.39121 1.5224-.48151 2.5831-.74719 1.2433-.31137 2.8197-.24241 4.4431-.42697 2.2591-.25682 6.5341-.98351 9.9195-.64045 3.096.31372 5.447.89012 7.026 1.38764.847.26686 2.386.90955 4.547 1.70787.699-.62978 1.58-.36292 1.55-1.81461.082-.10898.036-.02925.103-.21348.241-.21348.482-.42697.723-.64045 1.289-.04601 1.8.48407 1.757 1.81461-.273.26888-.566.57256-.827.85393-.457.01472-.912-.05765-1.343-.21348-.306.37455-.912.39878-1.137.85393.43.09948.823.32136 1.137.64045.348-.1035.933-.38897 1.343-.1067 1.527.4824.624 1.9213 0 2.5618-.804.039-1.342-.0658-1.55-.6405-.227-.2556-.221-.654-.206-1.1742-.746-.1942-.788-.3901-1.964-.8539-1.291.5942-2.536 1.0034-3.823 1.4944-4.8 1.8308-11.5232 2.3163-17.1521.9607h-1.7566l-2.5832-.3203c-1.1021-.3202-1.9977-.6404-3.0998-.9606-.217-.0836-.8093-.395-1.0333-.427-.4718-.0677-1.2543.4903-1.6532.6405-1.3143.4945-2.7001.8413-4.0298 1.1741-2.3379.5852-6.215.7579-8.8862.5337-1.074-.0902-2.4478-.3471-2.5832-.9607.0558-.1727.0905-.352.1034-.5337.048-.1521.1177-.296.2066-.4269 3.7685 1.2334 7.475.6201 10.8494-.5337.8089-.2766 2.2215-.77925 3.0998-1.17419-1.1205-.39858-2.2658-.85148-3.2031-1.17416-1.5969-.54972-3.3093-.84486-5.0631-1.06742-3.82-.48482-5.3627.56851-5.683.42697-.2605-.15606-.1544-.17687-.2583-.5194-.0506-.19865-.0083-.05135-.155-.54802.6686-.30535 1.3596-.5552 2.0666-.74719.5591-.14228.9816-.15541 1.7565-.21348zm-49.3905.85393c-.7909.00192-1.313.00662-1.9632.10674-1.0735.16524-2.6498.17474-3.6165.64045.3666.2533.4263.51525.4133 1.17416.6127.16428.8437.5304 1.5499.64045 1.1811-.92758 3.6765-1.47303 5.2697-1.92135.7217-.20281 1.8075-.31873 2.4799-.42696-1.2743-.0712-2.8589-.14229-4.1331-.21349zm76.1523.10674c-.336.03384-1.3971.1108-1.6532.21349 2.0066-.01484 5.0321.92406 6.613 1.60112.504.21573.895.53179 1.55.64045.327-.30709 1.041-.47489 1.136-.74719-.084-.45365.209-.8122.414-1.17416-.173 0-1.171-.21348-1.343-.21348-.972-.29578-4.7581-.32385-6.7168-.32023zm-51.8704.10675c-.965.22415-1.5085.35683-2.1698.5337-1.2173.32535-1.7681.47308-2.8932.85394-.6406.2169-1.6016.37092-2.1699.64045.0689 0 .3444.10674.4133.10674.4879.39686 1.209.00672 1.7566-.21349 1.1711-.47083 2.2118-.80408 3.5279-1.2255.7792-.24956 4.6054-.7806 5.3583-1.01607-.2067 0-3.6165.32023-3.8232.32023zm28.8284 0c.7493.47798 2.388.43764 3.3065.74719 1.4487.48845 3.1592 1.24108 4.4006 1.67787.0756-.06586.526-.24038.6624-.50372-.711-.08667-1.3556-.43603-1.9632-.64045-1.9219-.64685-4.1322-1.19977-6.4063-1.28089zm-47.8406.5337-2.7899.42697c-1.8635.53734-3.7555 1.02867-5.373 1.81461v.10674c.8191.36057 3.279 1.15365 4.8564 1.60115 3.4649.983 6.2452.2994 8.8862-.854.6808-.2972 1.427-.40867 1.9632-.85389-2.2575-1.05835-4.3178-2.19472-7.5429-2.24158zm66.5429 0c-.7309.11304-1.5328.38161-2.2732.64045-1.2176.42569-2.4934 1.03657-3.6165 1.60113v.10674c.6673.11411 1.1113.51235 1.6533.74715 1.3408.5724 2.7227 1.0363 4.1331 1.3877 2.0293.5084 6.5457-.9533 7.8529-1.4944.6889-.28522 1.4349-.30955 1.9629-.74719-2.7508-1.2444-5.8321-2.18297-9.7125-2.24158zm-61.5832.10675c.1055.08539.0283.03789.2067.10674-.1055-.0854-.0284-.0379-.2067-.10674zm.31.10674c.4811.38042 2.9719 1.44997 3.7198 1.49438.1853-.17826.4257-.25095.7233-.32023v-.10674c-1.4983-.18477-2.7204-.96067-4.4431-1.06741zm55.2802.32022c-1.1876.43487-.888.21978-2.0666.85393.069 0 .3975.25971.93.32023.9867-.27283 2.4172-1.11246 3.4098-1.38764v-.10674c-.1722 0-2.101.32022-2.2732.32022zm-73.1559-.21348c-1.3169.35054-4.3575 1.24162-5.373 1.92135 1.68816.86819 3.5846 1.62079 5.5797 1.92139-.3142-2.02963 1.4362-1.0068 2.4798-2.02813-.336-.07675-.5775-.36848-.8266-.42697-.6846-.16075-1.0593.44917-1.6532-.53371-.163-.24059-.0876-.60843 0-.85393zm93.2014 0c.121.34691.075.70577 0 1.06741-.241.17784-.483.35588-.723.53371-.717.22576-1.258-.58857-1.757.42697.315.08422.524.36377.723.42695.277.0881.475-.1887.62-.21347.325-.05518.549.14944.827.21347.259.42.528.7401.31 1.3877h.207c1.843-.603 3.891-1.1094 5.166-2.02813-1.016-.4718-1.269-.51685-1.86-.7472zm-46.8073.96067c-.2252.24231-.3896.2676-.5167.64045-.4736.65497.3505 1.45882.93 1.38762.6134-.0754.8849-.67608.8266-1.49436l-.62-.53371zm-22.9387.53371-.93.42697v.10674c.436.06927.7776.32022 1.0333.21348.3584-.06863.5779-.12008.7233-.42696-.3954-.05156-.5396-.17559-.8266-.32023zm46.394 0c-.1854.17826-.4257.25095-.7233.32023v.21348c.0689 0 .2411.21348.31.21348.2583.16417 1.0828.09607 1.3433-.42696-.41-.04569-.6341-.17474-.93-.32023zm-66.4396.85393c-.2625.22983-1.4503.53463-1.3432.96063.0943.6578-.2981.7733-.4133.9607 2.2754.4618 4.9287.8181 7.4395.6405.8507-.0602 1.7806-.1068 2.4799-.2135-1.7274-.0046-4.4513-1.0406-6.4063-1.7079-.5786-.1977-1.053-.5142-1.7566-.64043zm21.6988 0c-.1601.15243-.4003.22613-.62.32023v.1067c1.1883.1437 2.3366.7126 3.4099 1.0675.9816.3242 1.7374.4791 2.7898.7471.4887.1245 3.0172.5116 3.5131.2135-3.4345-.3729-6.8268-1.8687-9.0928-2.45503zm42.7776 0c-.9761.86763-3.8687 1.48773-5.2697 1.92133-.6428.199-1.552.0693-2.0666.427 2.1522.0285 4.2825-.7017 5.993-1.2809.7728-.2616 1.7037-.2693 2.2732-.7472-.325-.1589-.4555-.27753-.9299-.32023zm21.8022 0c-1.278.68013-3.6406 1.37533-5.1665 1.81463-.5683.1634-1.2909.3351-2.6865.5337 3.202.2207.9588.1067 4.3398.1067 1.0694 0 4.4262-.2549 5.3732-.6404-.111-.2842-.268-.8282-.414-1.0674-.398-.3932-.902-.6535-1.446-.74723zm-68.6096.10673c-.5205.4919-2.3177 1.193-3.0998 1.3877v.1067h.5167c1.0892-.7068 2.8578-.3736 3.8231-1.1742-.5104-.0747-.6727-.2655-1.24-.3202zm50.9405-.10673c-.1854.17823-.6324.35773-.93.42693.1055.0854.0284.0379.2067.1068.3996.3222 4.4719 1.5408 4.9597 1.2809-.9664-.3274-3.2004-1.4624-4.2364-1.81463zm-54.3503 1.60113c.1055.0854.0283.0379.2067.1067-.1055-.0854-.0283-.0379-.2067-.1067z" fill="#000" fill-rule="evenodd"/></svg>